<svg width="24" height="23" viewBox="0 0 24 23" fill="none" xmlns="http://www.w3.org/2000/svg">
<path d="M23.4887 13.7616C23.4887 13.226 23.311 12.7313 23.0115 12.3329C23.6098 11.8996 24 11.196 24 10.4025C24 9.08878 22.9311 8.01994 21.6173 8.01994H16.2012L16.9549 5.41636V4.16887C16.9549 1.87017 15.0848 0 12.786 0C12.2287 0 11.7752 0.453469 11.7752 1.01081V3.77644C11.3775 4.413 9.06352 6.99853 6.63197 9.60319V7.55644H0V22.4027H6.63197V21.329L8.97741 22.2085C10.1341 22.6423 11.3471 22.8623 12.5825 22.8623H20.0834C21.3972 22.8623 22.466 21.7934 22.466 20.4796C22.466 19.9443 22.2885 19.4496 21.9893 19.0514C22.5875 18.618 22.9773 17.9139 22.9773 17.1206C22.9773 16.585 22.7996 16.0903 22.5002 15.6919C23.0985 15.2587 23.4887 14.555 23.4887 13.7616ZM5.22572 20.9964H1.40625V8.96269H5.22572V20.9964ZM21.6173 11.3789H21.0184V12.7852H21.106C21.6444 12.7852 22.0824 13.2232 22.0824 13.7615C22.0824 14.2999 21.6444 14.7379 21.106 14.7379H20.6875V14.7403C20.6566 14.7391 20.6258 14.7379 20.5947 14.7379V16.1442C21.133 16.1442 21.571 16.5822 21.571 17.1205C21.571 17.6589 21.1331 18.097 20.5947 18.097H20.0834V19.5032C20.6217 19.5032 21.0597 19.9412 21.0597 20.4796C21.0597 21.018 20.6217 21.456 20.0834 21.456H12.5825C11.5163 21.456 10.4695 21.2662 9.47119 20.8918L6.63197 19.8271V11.6572C7.11291 11.1468 8.42447 9.74995 9.72338 8.3242C13.1815 4.52845 13.1815 4.25944 13.1815 3.91894V1.43442C14.5181 1.62684 15.5487 2.77978 15.5487 4.16883V5.21686L14.3301 9.42614H21.6173C22.1557 9.42614 22.5938 9.86414 22.5938 10.4025C22.5938 10.9409 22.1557 11.3789 21.6173 11.3789Z" fill="#EC4F48"/>
</svg>
