<svg width="35" height="35" viewBox="0 0 35 35" fill="none" xmlns="http://www.w3.org/2000/svg">
<circle cx="17.5" cy="17.5" r="17.5" transform="matrix(-1 0 0 1 35 0)" fill="white" fill-opacity="0.6"/>
<path d="M13.5139 17.5832L21.3203 25.3896C21.3761 25.4459 21.4425 25.4906 21.5157 25.521C21.5889 25.5515 21.6673 25.5672 21.7466 25.5672C21.8259 25.5672 21.9044 25.5515 21.9775 25.521C22.0507 25.4906 22.1171 25.4459 22.173 25.3896C22.2292 25.3338 22.2739 25.2674 22.3044 25.1942C22.3349 25.121 22.3506 25.0425 22.3506 24.9633C22.3506 24.884 22.3349 24.8055 22.3044 24.7323C22.2739 24.6591 22.2292 24.5927 22.173 24.5369L14.7869 17.1569L22.173 9.77685C22.286 9.66378 22.3496 9.51042 22.3496 9.35051C22.3496 9.27133 22.334 9.19292 22.3037 9.11977C22.2734 9.04661 22.229 8.98015 22.173 8.92416C22.117 8.86817 22.0505 8.82376 21.9774 8.79346C21.9042 8.76315 21.8258 8.74756 21.7466 8.74756C21.5867 8.74756 21.4333 8.81108 21.3203 8.92416L13.5139 16.7305C13.4576 16.7864 13.4129 16.8528 13.3825 16.9259C13.352 16.9991 13.3363 17.0776 13.3363 17.1569C13.3363 17.2361 13.352 17.3146 13.3825 17.3878C13.4129 17.461 13.4576 17.5274 13.5139 17.5832Z" fill="#FF7A31"/>
</svg>
