<svg width="35" height="35" viewBox="0 0 35 35" fill="none" xmlns="http://www.w3.org/2000/svg">
<circle cx="17.5" cy="17.5" r="17.5" fill="white" fill-opacity="0.6"/>
<path d="M21.4861 17.5832L13.6797 25.3896C13.6239 25.4459 13.5575 25.4906 13.4843 25.521C13.4111 25.5515 13.3327 25.5672 13.2534 25.5672C13.1741 25.5672 13.0956 25.5515 13.0225 25.521C12.9493 25.4906 12.8829 25.4459 12.827 25.3896C12.7708 25.3338 12.7261 25.2674 12.6956 25.1942C12.6651 25.121 12.6494 25.0425 12.6494 24.9633C12.6494 24.884 12.6651 24.8055 12.6956 24.7323C12.7261 24.6591 12.7708 24.5927 12.827 24.5369L20.2131 17.1569L12.827 9.77685C12.714 9.66378 12.6504 9.51042 12.6504 9.35051C12.6504 9.27133 12.666 9.19292 12.6963 9.11977C12.7266 9.04661 12.771 8.98015 12.827 8.92416C12.883 8.86817 12.9495 8.82376 13.0226 8.79346C13.0958 8.76315 13.1742 8.74756 13.2534 8.74756C13.4133 8.74756 13.5667 8.81108 13.6797 8.92416L21.4861 16.7305C21.5424 16.7864 21.5871 16.8528 21.6175 16.9259C21.648 16.9991 21.6637 17.0776 21.6637 17.1569C21.6637 17.2361 21.648 17.3146 21.6175 17.3878C21.5871 17.461 21.5424 17.5274 21.4861 17.5832Z" fill="#FF7A31"/>
</svg>
