<svg width="51" height="50" viewBox="0 0 51 50" fill="none" xmlns="http://www.w3.org/2000/svg">
<g clip-path="url(#clip0_80_4504)">
<g clip-path="url(#clip1_80_4504)">
<g clip-path="url(#clip2_80_4504)">
<path d="M28.8803 24.1923C28.3715 23.8249 27.0512 23.2037 25.2002 24.7408C23.3489 23.2035 22.0289 23.8247 21.52 24.1923C20.335 25.0481 19.9355 26.9768 20.6477 28.4038C21.5115 30.1347 24.5318 31.6853 24.8733 31.8563C25.0772 31.9585 25.3233 31.9585 25.5271 31.8563C25.8687 31.6853 28.8888 30.1347 29.7527 28.4038C30.4649 26.9768 30.0653 25.0481 28.8803 24.1923ZM28.4451 27.7487C27.959 28.7228 26.1648 29.8484 25.2003 30.3744C24.2357 29.8482 22.4415 28.7228 21.9554 27.7487C21.573 26.9826 21.7809 25.8096 22.3749 25.3808C22.5329 25.2666 22.7067 25.2189 22.8865 25.2189C23.5659 25.2189 24.3334 25.9002 24.6832 26.2506C24.9686 26.5364 25.4314 26.5366 25.7171 26.2506C26.1595 25.8072 27.2699 24.8354 28.0255 25.3809C28.6196 25.8097 28.8274 26.9826 28.4451 27.7487Z" fill="#471D00"/>
<path d="M49.3715 36.6864C49.3604 36.6861 49.3494 36.6864 49.3382 36.6865C48.0897 36.6865 46.9156 36.2013 46.0293 35.3186C45.1362 34.429 44.6443 33.2443 44.6443 31.9825V27.2627C44.6443 23.8612 41.8823 21.0938 38.4874 21.0938H38.4551C34.5587 21.0938 31.3887 17.9176 31.3887 14.0136V6.20117C31.3888 2.78187 28.6125 0 25.1997 0C21.787 0 19.0106 2.78187 19.0106 6.20117V14.0137C19.0106 17.9177 15.8407 21.0939 11.9443 21.0939H11.9119C8.51712 21.0939 5.75506 23.8612 5.75506 27.2628V31.9826C5.75506 33.2443 5.26323 34.4291 4.37004 35.3187C3.48366 36.2016 2.30963 36.6866 1.06099 36.6866C1.05 36.6866 1.0393 36.6866 1.02782 36.6865C0.626168 36.6865 0.299319 37.0116 0.296887 37.4145C0.294553 37.8191 0.619747 38.149 1.02364 38.1514C1.03619 38.1515 1.04874 38.1515 1.06138 38.1515C2.69874 38.1515 4.23862 37.5152 5.40088 36.3576C6.57208 35.1911 7.21702 33.6372 7.21702 31.9826V27.2628C7.21702 24.9069 8.95467 22.9503 11.2131 22.6111V49.1702C11.2131 49.5748 11.5405 49.9026 11.9442 49.9026H38.4551C38.8589 49.9026 39.1861 49.5748 39.1861 49.1702V44.0915C39.1861 43.6869 38.8589 43.3591 38.4551 43.3591C38.0513 43.3591 37.724 43.6869 37.724 44.0915V48.4377H12.6753V22.5277C17.037 22.155 20.4727 18.4788 20.4727 14.0137V10.0587H29.9269V14.0137C29.9269 18.4787 33.3626 22.1548 37.7243 22.5277V40.6742C37.7243 41.0788 38.0516 41.4066 38.4553 41.4066C38.8591 41.4066 39.1864 41.0788 39.1864 40.6742V22.611C41.4448 22.9502 43.1825 24.9067 43.1825 27.2627V31.9825C43.1825 33.6371 43.8275 35.1908 44.9987 36.3575C46.1611 37.5152 47.7008 38.1514 49.3382 38.1514C49.3507 38.1514 49.3633 38.1514 49.376 38.1513C49.7797 38.1489 50.105 37.819 50.1026 37.4144C50.1001 37.0114 49.7733 36.6864 49.3715 36.6864ZM29.9268 8.59376H20.4726V6.20117C20.4726 3.58957 22.5932 1.46481 25.1997 1.46481C27.8062 1.46481 29.9268 3.58957 29.9268 6.20117V8.59376Z" fill="#471D00"/>
<path d="M32.9976 33.5938H17.4029C16.9992 33.5938 16.6719 33.9217 16.6719 34.3262V37.4513C16.6719 42.1629 20.4977 45.9962 25.2002 45.9962C29.9027 45.9962 33.7285 42.1629 33.7285 37.4513V34.3262C33.7285 33.9216 33.4014 33.5938 32.9976 33.5938ZM32.2665 37.4513C32.2665 41.3552 29.0966 44.5314 25.2002 44.5314C21.3038 44.5314 18.1338 41.3552 18.1338 37.4513V35.0587H32.2665V37.4513Z" fill="#471D00"/>
<path d="M25.2002 40.8438C25.7525 40.8438 26.2002 40.396 26.2002 39.8438C26.2002 39.2915 25.7525 38.8438 25.2002 38.8438C24.6479 38.8438 24.2002 39.2915 24.2002 39.8438C24.2002 40.396 24.6479 40.8438 25.2002 40.8438Z" fill="#471D00"/>
<path d="M28.2695 40.8438C28.8218 40.8438 29.2695 40.396 29.2695 39.8438C29.2695 39.2915 28.8218 38.8438 28.2695 38.8438C27.7172 38.8438 27.2695 39.2915 27.2695 39.8438C27.2695 40.396 27.7172 40.8438 28.2695 40.8438Z" fill="#471D00"/>
<path d="M22.0322 40.8438C22.5845 40.8438 23.0322 40.396 23.0322 39.8438C23.0322 39.2915 22.5845 38.8438 22.0322 38.8438C21.4799 38.8438 21.0322 39.2915 21.0322 39.8438C21.0322 40.396 21.4799 40.8438 22.0322 40.8438Z" fill="#471D00"/>
<path d="M23.7373 38.5C24.2896 38.5 24.7373 38.0523 24.7373 37.5C24.7373 36.9477 24.2896 36.5 23.7373 36.5C23.185 36.5 22.7373 36.9477 22.7373 37.5C22.7373 38.0523 23.185 38.5 23.7373 38.5Z" fill="#471D00"/>
<path d="M26.8076 38.5C27.3599 38.5 27.8076 38.0523 27.8076 37.5C27.8076 36.9477 27.3599 36.5 26.8076 36.5C26.2553 36.5 25.8076 36.9477 25.8076 37.5C25.8076 38.0523 26.2553 38.5 26.8076 38.5Z" fill="#471D00"/>
<path d="M29.9268 38.4023C30.479 38.4023 30.9268 37.9546 30.9268 37.4023C30.9268 36.8501 30.479 36.4023 29.9268 36.4023C29.3745 36.4023 28.9268 36.8501 28.9268 37.4023C28.9268 37.9546 29.3745 38.4023 29.9268 38.4023Z" fill="#471D00"/>
<path d="M20.5703 38.5C21.1226 38.5 21.5703 38.0523 21.5703 37.5C21.5703 36.9477 21.1226 36.5 20.5703 36.5C20.018 36.5 19.5703 36.9477 19.5703 37.5C19.5703 38.0523 20.018 38.5 20.5703 38.5Z" fill="#471D00"/>
<path d="M23.7373 43.1875C24.2896 43.1875 24.7373 42.7398 24.7373 42.1875C24.7373 41.6352 24.2896 41.1875 23.7373 41.1875C23.185 41.1875 22.7373 41.6352 22.7373 42.1875C22.7373 42.7398 23.185 43.1875 23.7373 43.1875Z" fill="#471D00"/>
<path d="M26.8076 43.1875C27.3599 43.1875 27.8076 42.7398 27.8076 42.1875C27.8076 41.6352 27.3599 41.1875 26.8076 41.1875C26.2553 41.1875 25.8076 41.6352 25.8076 42.1875C25.8076 42.7398 26.2553 43.1875 26.8076 43.1875Z" fill="#471D00"/>
</g>
</g>
</g>
<defs>
<clipPath id="clip0_80_4504">
<rect width="50" height="50" fill="white" transform="translate(0.200195)"/>
</clipPath>
<clipPath id="clip1_80_4504">
<rect width="50" height="50" fill="white" transform="translate(0.200195)"/>
</clipPath>
<clipPath id="clip2_80_4504">
<rect width="50" height="50" fill="white" transform="translate(0.200195)"/>
</clipPath>
</defs>
</svg>
