<svg width="51" height="43" viewBox="0 0 51 43" fill="none" xmlns="http://www.w3.org/2000/svg">
<g clip-path="url(#clip0_80_4532)">
<g clip-path="url(#clip1_80_4532)">
<g clip-path="url(#clip2_80_4532)">
<path d="M37.2383 8.90378C38.4268 7.33251 38.6344 5.35325 37.839 3.17998C37.271 1.62793 36.3815 0.515243 36.3439 0.468702C36.0524 0.106996 35.5332 0.0589373 35.1844 0.361455C34.8356 0.66372 34.7895 1.20122 35.08 1.56293C35.12 1.61326 37.9407 5.20831 35.9427 7.85003C33.0656 11.6545 36.1332 16.6721 36.2651 16.8838C36.4227 17.1365 36.6873 17.2741 36.9573 17.2741C37.1105 17.2741 37.2654 17.2298 37.4034 17.1373C37.7849 16.8813 37.8946 16.3529 37.6478 15.9568C37.6224 15.9163 35.0881 11.7466 37.2383 8.90378Z" fill="#471D00"/>
<path d="M42.7639 8.90378C43.9524 7.33251 44.16 5.35325 43.3646 3.17998C42.7963 1.62793 41.9068 0.515243 41.8692 0.468702C41.578 0.106996 41.0585 0.0589373 40.7097 0.361455C40.3614 0.663467 40.3148 1.20097 40.6053 1.56267C40.6341 1.59884 43.4702 5.203 41.468 7.85003C38.5909 11.6545 41.6587 16.6721 41.7907 16.8838C41.9483 17.1365 42.2127 17.2741 42.4827 17.2741C42.6358 17.2741 42.7907 17.2298 42.929 17.1373C43.3107 16.8813 43.4202 16.3529 43.1734 15.9568C43.1483 15.9163 40.6136 11.7466 42.7639 8.90378Z" fill="#471D00"/>
<path d="M8.19828 9.29929C9.38682 7.72802 9.59438 5.74876 8.79901 3.57549C8.23072 2.02344 7.34145 0.910751 7.30389 0.86421C7.01243 0.502504 6.4934 0.454445 6.14438 0.756963C5.79608 1.05897 5.7495 1.59647 6.03999 1.95818C6.06901 1.99435 8.90487 5.59851 6.90291 8.24554C4.02535 12.05 7.09316 17.0674 7.22535 17.2793C7.38291 17.532 7.6473 17.6696 7.9173 17.6696C8.07047 17.6696 8.22535 17.6254 8.3634 17.5328C8.74511 17.2768 8.85462 16.7482 8.60755 16.3523C8.58243 16.3118 6.04779 12.1421 8.19828 9.29929Z" fill="#471D00"/>
<path d="M13.7237 9.29929C14.9122 7.72802 15.1198 5.74876 14.3247 3.57549C13.7566 2.02344 12.8671 0.910751 12.8295 0.86421C12.5381 0.502504 12.019 0.454445 11.67 0.756963C11.3217 1.05897 11.2751 1.59647 11.5656 1.95818C11.5947 1.99435 14.4305 5.59851 12.4283 8.24554C9.55075 12.05 12.6186 17.0674 12.7505 17.2793C12.9081 17.532 13.1725 17.6696 13.4425 17.6696C13.5956 17.6696 13.7505 17.6254 13.8888 17.5328C14.2705 17.2768 14.38 16.7482 14.1329 16.3523C14.1078 16.3118 11.5732 12.1421 13.7237 9.29929Z" fill="#471D00"/>
<path d="M47.4458 36.1234H45.6997C45.2897 25.4738 37.248 16.8262 27.1043 15.9131V15.0437C28.1343 14.4048 28.7738 13.2595 28.7738 11.9862C28.7738 10.0153 27.2272 8.41162 25.3267 8.41162C25.3143 8.41162 25.2648 8.41162 25.2523 8.41162C23.3516 8.41162 21.8053 10.0153 21.8053 11.9862C21.8053 13.2595 22.445 14.4051 23.4745 15.0437V15.9131C13.3311 16.8262 5.28917 25.4735 4.87917 36.1234H3.13307C1.62624 36.1234 0.400391 37.3946 0.400391 38.9571V40.0245C0.400391 41.5881 1.62624 42.8599 3.13283 42.8599H47.446C48.9528 42.8599 50.1784 41.5881 50.1784 40.0245V38.9571C50.1782 37.3946 48.9523 36.1234 47.4458 36.1234ZM23.4511 11.9862C23.4511 10.9567 24.2589 10.119 25.2519 10.119C25.2645 10.119 25.3138 10.119 25.3262 10.119C26.3192 10.119 27.127 10.9567 27.127 11.9862C27.127 12.7559 26.6767 13.4368 25.9799 13.7204C25.6648 13.8486 25.4577 14.164 25.4577 14.5151V15.8332H25.1204V14.5151C25.1204 14.164 24.9131 13.8488 24.5982 13.7204C23.9014 13.4366 23.4511 12.7559 23.4511 11.9862ZM47.4458 41.1523H3.13259C2.53356 41.1523 2.04649 40.6462 2.04649 40.0242V38.9568C2.04649 38.3358 2.53381 37.8307 3.13259 37.8307H4.486C4.49356 37.831 4.50063 37.832 4.5082 37.832H34.0697C34.5241 37.832 34.8928 37.4498 34.8928 36.9783C34.8928 36.5071 34.5241 36.1246 34.0697 36.1246H6.52771C6.95844 25.8269 15.1511 17.5817 25.176 17.5403H25.4023C35.4275 17.5817 43.6197 25.8266 44.0506 36.1246H39.3941C38.9394 36.1246 38.5709 36.5071 38.5709 36.9783C38.5709 37.4498 38.9394 37.832 39.3941 37.832L45.7509 37.8307H47.4455C48.0445 37.8307 48.5316 38.3358 48.5316 38.9568V40.0242C48.5316 40.6462 48.0445 41.1523 47.4458 41.1523Z" fill="#471D00"/>
</g>
</g>
</g>
<defs>
<clipPath id="clip0_80_4532">
<rect width="50" height="43" fill="white" transform="translate(0.400391)"/>
</clipPath>
<clipPath id="clip1_80_4532">
<rect width="50" height="43" fill="white" transform="translate(0.400391)"/>
</clipPath>
<clipPath id="clip2_80_4532">
<rect width="50" height="43" fill="white" transform="translate(0.400391)"/>
</clipPath>
</defs>
</svg>
