<svg width="51" height="40" viewBox="0 0 51 40" fill="none" xmlns="http://www.w3.org/2000/svg">
<g clip-path="url(#clip0_80_4572)">
<g clip-path="url(#clip1_80_4572)">
<g clip-path="url(#clip2_80_4572)">
<path d="M39.4365 8.57129H10.9645C10.5596 8.57129 10.2314 8.89437 10.2314 9.29302C10.2314 9.69167 10.5596 10.0148 10.9645 10.0148H39.4365C39.8414 10.0148 40.1695 9.69167 40.1695 9.29302C40.1695 8.89437 39.8414 8.57129 39.4365 8.57129Z" fill="#471D00"/>
<path d="M39.4365 16.4297H10.9645C10.5596 16.4297 10.2314 16.7528 10.2314 17.1514C10.2314 17.55 10.5596 17.8731 10.9645 17.8731H39.4365C39.8414 17.8731 40.1695 17.5501 40.1695 17.1514C40.1695 16.7528 39.8414 16.4297 39.4365 16.4297Z" fill="#471D00"/>
<path d="M30.1018 21.5298H20.2984C19.8936 21.5298 19.5654 21.8529 19.5654 22.2515C19.5654 22.6501 19.8936 22.9732 20.2984 22.9732H30.1018C30.5066 22.9732 30.8348 22.6502 30.8348 22.2515C30.8348 21.8529 30.5066 21.5298 30.1018 21.5298Z" fill="#471D00"/>
<path d="M39.4365 12.4844H18.1988C17.7939 12.4844 17.4658 12.8075 17.4658 13.2061C17.4658 13.6047 17.7939 13.9278 18.1988 13.9278H39.4365C39.8414 13.9278 40.1695 13.6048 40.1695 13.2061C40.1695 12.8075 39.8414 12.4844 39.4365 12.4844Z" fill="#471D00"/>
<path d="M14.7885 12.4844H10.9645C10.5596 12.4844 10.2314 12.8075 10.2314 13.2061C10.2314 13.6048 10.5596 13.9278 10.9645 13.9278H14.7885C15.1934 13.9278 15.5215 13.6048 15.5215 13.2061C15.5215 12.8075 15.1934 12.4844 14.7885 12.4844Z" fill="#471D00"/>
<path d="M46.4166 7.35147C46.2461 7.18657 46.0204 7.0958 45.7797 7.0958C45.7795 7.0958 45.7799 7.0958 45.7797 7.0958C44.294 7.0958 43.0776 5.95233 43.0107 4.49214C42.9888 4.01733 42.5925 3.64551 42.1086 3.64551H8.11836C7.63438 3.64551 7.23799 4.01743 7.21611 4.49262C7.15234 5.88791 5.99229 7.03022 4.5751 7.09301C4.09268 7.11435 3.71484 7.50464 3.71484 7.98137V26.6372C3.71484 27.114 4.09268 27.5042 4.5751 27.5255C5.99229 27.5884 7.15234 28.7306 7.21611 30.1264C7.23809 30.6012 7.63447 30.973 8.11836 30.973H29.7567C30.1616 30.973 30.4897 30.6499 30.4897 30.2513C30.4897 29.8527 30.1616 29.5295 29.7567 29.5295H8.62246C8.31943 27.7912 6.94629 26.4392 5.18076 26.1407V8.47762C6.94629 8.17926 8.31943 6.82695 8.62246 5.08887H41.6048C41.9202 6.88214 43.3865 8.26637 45.2206 8.5033V20.7599C45.2206 21.1585 45.5487 21.4817 45.9536 21.4817C46.3585 21.4817 46.6866 21.1586 46.6866 20.7599V7.98541C46.6866 7.74512 46.5907 7.51993 46.4166 7.35147Z" fill="#471D00"/>
<path d="M48.1655 0.0429688H2.23486C1.11299 0.0429688 0.200195 0.941719 0.200195 2.04633V32.5723C0.200195 33.677 1.11299 34.5757 2.23486 34.5757H33.0013L31.912 36.8231C31.7721 37.1116 31.8062 37.45 32.0007 37.7059C32.1953 37.962 32.5155 38.0892 32.8359 38.0387L34.8639 37.7178L35.995 39.5459C36.1536 39.8025 36.4354 39.9573 36.7383 39.9573C36.753 39.9573 36.7679 39.9569 36.7827 39.9561C37.1022 39.9402 37.3863 39.7536 37.5243 39.4692L39.4897 35.4141L41.455 39.4689C41.5927 39.7534 41.8768 39.9401 42.1964 39.9562C42.2113 39.957 42.2264 39.9574 42.2412 39.9574C42.544 39.9574 42.8259 39.8026 42.9845 39.5461L44.1156 37.718L46.1436 38.039C46.4649 38.0896 46.7846 37.962 46.979 37.7059C47.1735 37.4497 47.2073 37.1114 47.0674 36.8234L45.9781 34.5759H48.1655C49.2874 34.5759 50.2002 33.6773 50.2002 32.5726V2.04633C50.2002 0.941719 49.2874 0.0429688 48.1655 0.0429688ZM36.6749 37.8704L35.9076 36.6305C35.7229 36.3318 35.377 36.1747 35.026 36.2302L33.7238 36.4363L35.0955 33.6063C35.6361 34.1495 36.4063 34.443 37.2059 34.3688C37.4792 34.3431 37.7532 34.4156 37.9771 34.5722C38.051 34.6239 38.1276 34.6698 38.2053 34.7131L36.6749 37.8704ZM39.6646 33.5908C39.6623 33.591 39.6601 33.5912 39.6577 33.5916C39.5466 33.6078 39.4336 33.6078 39.3225 33.5917C39.3196 33.5913 39.3168 33.591 39.3141 33.5907C39.1419 33.5644 38.9745 33.4995 38.8263 33.3958C38.3829 33.0854 37.8535 32.9204 37.3135 32.9204C37.2316 32.9204 37.1496 32.9242 37.0676 32.9318C36.5823 32.9769 36.1213 32.7145 35.9188 32.2787C35.8288 32.0853 35.7141 31.9062 35.5809 31.7425C35.575 31.7343 35.5686 31.7266 35.5624 31.7187C35.555 31.7099 35.548 31.7008 35.5406 31.692C35.5321 31.6822 35.5232 31.6729 35.5142 31.6635C35.2718 31.3889 34.9723 31.1647 34.6312 31.011C34.1885 30.8116 33.922 30.357 33.9679 29.8798C34.0269 29.2658 33.8596 28.6508 33.4967 28.1482C33.2146 27.7575 33.2146 27.2326 33.4966 26.8419C33.8596 26.3393 34.0269 25.7243 33.9679 25.1103C33.922 24.6331 34.1886 24.1784 34.6312 23.979C35.2008 23.7224 35.658 23.2722 35.9187 22.7113C36.1213 22.2755 36.584 22.013 37.0676 22.0583C37.6919 22.1162 38.3159 21.9515 38.8264 21.5942C39.2232 21.3165 39.7563 21.3165 40.153 21.5942C40.6636 21.9515 41.2877 22.1159 41.9118 22.0583C42.3969 22.0129 42.8583 22.2756 43.0608 22.7113C43.3215 23.2722 43.7787 23.7224 44.3482 23.9789C44.7909 24.1785 45.0575 24.6331 45.0116 25.1102C44.9526 25.7243 45.1199 26.3393 45.4828 26.8418C45.7649 27.2325 45.7649 27.7574 45.4828 28.1481C45.1199 28.6508 44.9526 29.2658 45.0116 29.8797C45.0575 30.3569 44.7909 30.8115 44.3481 31.011C44.0078 31.1644 43.709 31.3881 43.4669 31.6618C43.4569 31.672 43.4472 31.6823 43.438 31.693C43.4316 31.7005 43.4257 31.7083 43.4193 31.7159C43.412 31.7251 43.4046 31.7341 43.3978 31.7436C43.2649 31.9071 43.1505 32.0858 43.0608 32.2787C42.8582 32.7145 42.3965 32.9771 41.9118 32.9318C41.2888 32.874 40.6638 33.0384 40.153 33.3958C40.0046 33.4996 39.837 33.5646 39.6646 33.5908ZM43.9534 36.2301C43.6023 36.1748 43.2566 36.3318 43.0718 36.6306L42.3046 37.8705L40.7742 34.7131C40.8519 34.6698 40.9284 34.6239 41.0023 34.5722C41.2264 34.4155 41.5006 34.3428 41.7736 34.3687C42.5734 34.443 43.3435 34.1495 43.8841 33.6063L45.2557 36.4362L43.9534 36.2301ZM48.7343 32.5724C48.7343 32.8811 48.4792 33.1324 48.1655 33.1324H45.2785L44.9006 32.3526C44.9196 32.3427 44.9386 32.3323 44.9583 32.3234C45.9677 31.8685 46.5756 30.8318 46.471 29.7437C46.4451 29.4745 46.5185 29.2048 46.6776 28.9843C47.3208 28.0935 47.3208 26.8963 46.6775 26.0055C46.5185 25.7851 46.4451 25.5155 46.471 25.2461C46.5756 24.1581 45.9677 23.1213 44.9582 22.6664C44.7085 22.5538 44.508 22.3564 44.3937 22.1106C43.9317 21.1166 42.8783 20.5183 41.7735 20.6211C41.4999 20.6468 41.2262 20.5744 41.0023 20.4177C40.0976 19.7844 38.8816 19.7843 37.977 20.4177C37.753 20.5744 37.4785 20.6468 37.2058 20.621C36.0993 20.5185 35.0476 21.1166 34.5857 22.1105C34.4714 22.3564 34.2709 22.5537 34.0211 22.6663C33.0117 23.1212 32.4038 24.1579 32.5084 25.246C32.5343 25.5154 32.4609 25.785 32.3018 26.0055C31.6586 26.8963 31.6586 28.0935 32.3018 28.9842C32.4609 29.2046 32.5343 29.4743 32.5084 29.7436C32.4038 30.8318 33.0117 31.8685 34.0211 32.3234C34.0408 32.3322 34.0597 32.3426 34.0787 32.3525L33.7008 33.1324H2.23486C1.92129 33.1324 1.66611 32.8812 1.66611 32.5724V2.04633C1.66611 1.73758 1.92119 1.48633 2.23486 1.48633H48.1655C48.4791 1.48633 48.7343 1.73758 48.7343 2.04633V32.5724Z" fill="#471D00"/>
<path d="M39.4359 23.0107C36.9248 23.0107 34.8818 25.0223 34.8818 27.4947C34.8818 29.9672 36.9248 31.9787 39.4359 31.9787C41.9471 31.9787 43.9899 29.9671 43.9899 27.4947C43.9899 25.0222 41.9471 23.0107 39.4359 23.0107ZM39.4359 30.5353C37.7331 30.5353 36.3478 29.1712 36.3478 27.4946C36.3478 25.8181 37.7331 24.454 39.4359 24.454C41.1387 24.454 42.524 25.8181 42.524 27.4946C42.524 29.1712 41.1387 30.5353 39.4359 30.5353Z" fill="#471D00"/>
</g>
</g>
</g>
<defs>
<clipPath id="clip0_80_4572">
<rect width="50" height="40" fill="white" transform="translate(0.200195)"/>
</clipPath>
<clipPath id="clip1_80_4572">
<rect width="50" height="40" fill="white" transform="translate(0.200195)"/>
</clipPath>
<clipPath id="clip2_80_4572">
<rect width="50" height="40" fill="white" transform="translate(0.200195)"/>
</clipPath>
</defs>
</svg>
