<svg width="58" height="58" viewBox="0 0 58 58" fill="none" xmlns="http://www.w3.org/2000/svg">
<g clip-path="url(#clip0_80_4614)">
<g clip-path="url(#clip1_80_4614)">
<g clip-path="url(#clip2_80_4614)">
<path d="M29 58C45.0163 58 58 45.0163 58 29C58 12.9837 45.0163 0 29 0C12.9837 0 0 12.9837 0 29C0 45.0163 12.9837 58 29 58Z" fill="#FF7A31"/>
<path d="M41.556 19.2553C41.5179 18.4885 40.8895 17.8877 40.1254 17.8877H35.1565L33.9576 10.2564C33.5701 7.79003 31.4856 6 28.9993 6C26.5149 6 24.4304 7.79003 24.0429 10.2564L22.844 17.8877H17.8751C17.111 17.8877 16.4826 18.4885 16.4445 19.2553L15.0398 47.4886C15.0203 47.8805 15.1635 48.2683 15.4326 48.5526C15.7017 48.8369 16.08 49 16.4705 49H41.5301C41.9205 49 42.2987 48.8369 42.5678 48.5526C42.8369 48.2683 42.9801 47.8806 42.9606 47.4886L41.556 19.2553ZM25.4121 10.4738C25.6927 8.68866 27.2012 7.39309 29.0012 7.39309C30.7993 7.39309 32.308 8.68866 32.5885 10.4738L33.7533 17.8877H24.2474L25.4121 10.4738ZM41.5635 47.5925C41.5498 47.6069 41.5354 47.6069 41.5301 47.6069H16.4705C16.4651 47.6069 16.4508 47.6069 16.4371 47.5925C16.4234 47.5781 16.4241 47.5636 16.4244 47.5582L17.829 19.325C17.8302 19.3002 17.8506 19.2808 17.8752 19.2808H22.6253L22.4015 20.7045C22.3418 21.0845 22.5999 21.4412 22.978 21.5012C23.0146 21.507 23.051 21.5098 23.0869 21.5098C23.422 21.5098 23.7167 21.265 23.7707 20.9218L24.0285 19.2808H33.9721L34.2299 20.9218C34.2896 21.3018 34.6442 21.5608 35.0226 21.5012C35.4007 21.4412 35.6588 21.0845 35.5991 20.7045L35.3754 19.2808H40.1254C40.1501 19.2808 40.1704 19.3002 40.1716 19.325L41.5763 47.5582C41.5765 47.5636 41.5772 47.578 41.5635 47.5925Z" fill="white"/>
<path d="M29.0008 23.8315C28.618 23.8315 28.3077 24.1433 28.3077 24.5281V28.2894H27.476V24.5281C27.476 24.1433 27.1657 23.8315 26.783 23.8315C26.4002 23.8315 26.0899 24.1433 26.0899 24.5281V28.2894H25.2582V24.5281C25.2582 24.1433 24.9479 23.8315 24.5651 23.8315C24.1824 23.8315 23.8721 24.1433 23.8721 24.5281V29.729C23.8721 30.9324 24.8462 31.9115 26.0437 31.9115H26.0899V43.8456C26.0899 44.2304 26.4002 44.5421 26.783 44.5421C27.1657 44.5421 27.476 44.2304 27.476 43.8456V31.9115H27.5222C28.7197 31.9115 29.6939 30.9324 29.6939 29.729V24.5281C29.6939 24.1433 29.3835 23.8315 29.0008 23.8315ZM28.3077 29.729C28.3077 30.1642 27.9554 30.5184 27.5222 30.5184H26.0437C25.6106 30.5184 25.2582 30.1642 25.2582 29.729V29.6825H28.3077V29.729Z" fill="white"/>
<path d="M34.1958 25.2017C34.1204 24.4437 33.4919 23.8721 32.7339 23.8721C31.9237 23.8721 31.2646 24.5345 31.2646 25.3487V43.8455C31.2646 44.2303 31.575 44.5421 31.9577 44.5421C32.3405 44.5421 32.6508 44.2303 32.6508 43.8455V39.3412H33.2715C33.8863 39.3412 34.4747 39.0777 34.8859 38.6185C35.2971 38.1592 35.4958 37.5434 35.4311 36.929L34.1958 25.2017ZM33.8554 37.6868C33.7045 37.8552 33.4972 37.9481 33.2716 37.9481H32.6508V25.3487C32.6508 25.3026 32.688 25.2652 32.7339 25.2652C32.7767 25.2652 32.8123 25.2975 32.8169 25.3444L34.0526 37.0757C34.0764 37.3011 34.0063 37.5181 33.8554 37.6868Z" fill="white"/>
</g>
</g>
</g>
<defs>
<clipPath id="clip0_80_4614">
<rect width="58" height="58" fill="white"/>
</clipPath>
<clipPath id="clip1_80_4614">
<rect width="58" height="58" fill="white"/>
</clipPath>
<clipPath id="clip2_80_4614">
<rect width="58" height="58" fill="white"/>
</clipPath>
</defs>
</svg>
