<svg width="38" height="46" viewBox="0 0 38 46" fill="none" xmlns="http://www.w3.org/2000/svg">
<g clip-path="url(#clip0_80_4553)">
<g clip-path="url(#clip1_80_4553)">
<g clip-path="url(#clip2_80_4553)">
<path d="M37.8632 40.9476L31.8314 26.2454C31.6778 25.871 31.2525 25.693 30.8815 25.8482C30.5105 26.0034 30.3343 26.4328 30.488 26.8072L35.9409 40.0984L30.9671 38.6433C30.6406 38.5477 30.2919 38.6935 30.128 38.9943L27.63 43.574L21.779 29.3125C28.5321 27.9977 33.6489 21.9864 33.6489 14.7904C33.649 6.63496 27.0774 0 18.9998 0C10.9222 0 4.35052 6.63496 4.35052 14.7904C4.35052 18.0937 5.42886 21.1473 7.2486 23.6119L0.136394 40.9476C0.0294706 41.2084 0.0799757 41.5079 0.266389 41.7181C0.452705 41.9283 0.742068 42.0121 1.01049 41.9336L6.87849 40.2168L9.82543 45.6201C9.95377 45.8552 10.1983 46 10.4621 46C10.4755 46 10.489 45.9996 10.5024 45.9989C10.7815 45.9833 11.027 45.8076 11.134 45.5469L16.7696 31.8102C16.9233 31.4356 16.7471 31.0063 16.3762 30.8511C16.0052 30.696 15.5799 30.8738 15.4263 31.2484L10.3694 43.574L7.87162 38.9943C7.7076 38.6935 7.35872 38.5477 7.03242 38.6433L2.05869 40.0984L8.30126 24.8823C10.9766 27.7715 14.7826 29.5806 18.9998 29.5806C19.4352 29.5806 19.8658 29.5602 20.2915 29.5225L26.8657 45.5469C26.9726 45.8076 27.2182 45.9833 27.4972 45.9988C27.5107 45.9996 27.5241 46 27.5376 46C27.8014 46 28.0459 45.8552 28.1742 45.6201L31.1212 40.2168L36.9892 41.9336C37.2578 42.0122 37.5469 41.9283 37.7333 41.7181C37.9197 41.5079 37.9701 41.2084 37.8632 40.9476ZM5.8046 14.7904C5.8046 7.44446 11.724 1.46809 18.9998 1.46809C26.2756 1.46809 32.1949 7.44446 32.1949 14.7904C32.1949 22.1363 26.2756 28.1126 18.9998 28.1126C11.724 28.1126 5.8046 22.1363 5.8046 14.7904Z" fill="#471D00"/>
<path d="M27.4003 12.0347C27.3167 11.7746 27.0964 11.5829 26.8292 11.5376L21.937 10.7087L19.6445 6.26738C19.5192 6.02475 19.2708 5.87256 18.9997 5.87256C18.7288 5.87256 18.4802 6.02475 18.355 6.26738L16.0624 10.7087L11.1703 11.5376C10.903 11.5828 10.6829 11.7745 10.5991 12.0347C10.5153 12.2949 10.5818 12.5805 10.7717 12.7758L14.247 16.3496L13.5161 21.3033C13.4761 21.5739 13.5886 21.8444 13.8079 22.0053C14.0269 22.166 14.3167 22.1904 14.5592 22.0686L18.9997 19.8359L23.4401 22.0686C23.5427 22.1202 23.6536 22.1456 23.7642 22.1456C23.9151 22.1456 24.0651 22.0982 24.1916 22.0054C24.4108 21.8445 24.5233 21.574 24.4833 21.3034L23.7525 16.3497L27.2278 12.7758C27.4176 12.5805 27.4841 12.2949 27.4003 12.0347ZM22.4612 15.582C22.3014 15.7463 22.2273 15.9767 22.2609 16.2044L22.8397 20.1265L19.3239 18.3588C19.2217 18.3075 19.1108 18.2818 18.9997 18.2818C18.8887 18.2818 18.7776 18.3074 18.6756 18.3588L15.1599 20.1265L15.7386 16.2044C15.7722 15.9767 15.6981 15.7462 15.5383 15.582L12.7867 12.7523L16.6601 12.096C16.885 12.0579 17.0792 11.9155 17.1845 11.7113L18.9997 8.19487L20.8149 11.7114C20.9204 11.9156 21.1144 12.058 21.3393 12.0961L25.2128 12.7524L22.4612 15.582Z" fill="#471D00"/>
<path d="M30.0133 15.5306C29.6152 15.4769 29.2497 15.76 29.1971 16.1619C28.5227 21.3009 24.1388 25.1763 18.9999 25.1763C13.3276 25.1763 8.71287 20.5172 8.71287 14.7902C8.71287 9.06324 13.3276 4.40412 18.9999 4.40412C24.1389 4.40412 28.5227 8.27947 29.1971 13.4186C29.2497 13.8205 29.6159 14.1038 30.0133 14.0498C30.4113 13.9966 30.6913 13.6276 30.6385 13.2257C29.8688 7.35967 24.8653 2.93604 18.9999 2.93604C12.5259 2.93604 7.25879 8.25373 7.25879 14.7902C7.25879 21.3267 12.5259 26.6443 18.9999 26.6443C24.8653 26.6443 29.8688 22.2207 30.6386 16.3546C30.6913 15.9529 30.4114 15.5839 30.0133 15.5306Z" fill="#471D00"/>
</g>
</g>
</g>
<defs>
<clipPath id="clip0_80_4553">
<rect width="38" height="46" fill="white"/>
</clipPath>
<clipPath id="clip1_80_4553">
<rect width="38" height="46" fill="white"/>
</clipPath>
<clipPath id="clip2_80_4553">
<rect width="38" height="46" fill="white"/>
</clipPath>
</defs>
</svg>
