<svg width="50" height="50" viewBox="0 0 50 50" fill="none" xmlns="http://www.w3.org/2000/svg">
<g clip-path="url(#clip0_80_4479)">
<g clip-path="url(#clip1_80_4479)">
<g clip-path="url(#clip2_80_4479)">
<path d="M45.1838 37.0875L45.5221 36.165C45.8079 35.385 45.8946 34.4192 45.7962 33.1242C45.7704 32.7808 45.7296 32.4508 45.6904 32.1342C45.5471 30.9792 45.4896 30.2917 45.9821 29.5717C46.1396 29.3408 46.4696 28.9475 46.8188 28.5317C48.2288 26.8525 49.2262 25.5858 49.2262 24.5667C49.2262 23.5467 48.2271 22.2783 46.8154 20.5975C46.4671 20.1833 46.1379 19.7917 45.9813 19.5617C45.4896 18.8425 45.5471 18.1542 45.6904 17C45.7296 16.6817 45.7704 16.3533 45.7962 16.01C46.0779 12.3092 44.9504 11.6767 43.0596 11.0758C42.1363 10.7817 41.0888 10.4492 39.9329 9.29333C38.7779 8.1375 38.4446 7.09083 38.1513 6.1675C37.5504 4.27583 36.9179 3.155 33.2171 3.43083C32.8737 3.45667 32.5454 3.4975 32.2279 3.5375C31.0737 3.68 30.3846 3.7375 29.6646 3.24667C29.4354 3.09 29.0446 2.76167 28.6313 2.41417C26.9496 1 25.6804 0 24.6596 0C23.6388 0 22.3696 1 20.6879 2.41333C20.2746 2.76083 19.8838 3.08917 19.6546 3.24583C18.9354 3.73583 18.2471 3.67833 17.0921 3.53667C16.7746 3.49667 16.4454 3.45583 16.1021 3.43C12.4054 3.14667 11.7696 4.275 11.1687 6.16583C10.8746 7.08917 10.5421 8.13667 9.38625 9.29333C8.23042 10.4483 7.18375 10.7808 6.26042 11.075C4.36875 11.675 3.24125 12.3075 3.52292 16.0083C3.54958 16.3517 3.59042 16.6808 3.62958 16.9983C3.77375 18.1533 3.83125 18.8417 3.33958 19.56C3.18292 19.7892 2.85542 20.1792 2.50792 20.5917C1.09458 22.275 0.09375 23.5442 0.09375 24.5658C0.09375 25.5858 1.09292 26.8533 2.50292 28.5333C2.85125 28.9483 3.18125 29.3408 3.33875 29.5717C3.83042 30.2908 3.77292 30.9792 3.62958 32.1342C3.59042 32.4525 3.54958 32.7808 3.52292 33.1242C3.24125 36.8242 4.36958 37.4567 6.26042 38.0575C7.18375 38.3517 8.23125 38.6833 9.38625 39.8392C10.5412 40.995 10.8746 42.0425 11.1687 42.9658C11.7696 44.8575 12.4013 45.9792 16.1021 45.7025C16.4463 45.6767 16.7754 45.6358 17.0938 45.5958C18.2471 45.4508 18.9354 45.3942 19.6546 45.8867C19.8846 46.0442 20.2763 46.3733 20.6913 46.7208C22.3721 48.1325 23.6404 49.1317 24.6596 49.1325C25.6796 49.1325 26.9471 48.1342 28.6271 46.7225C29.0429 46.3742 29.4346 46.045 29.6654 45.8867C30.3879 45.3925 31.0788 45.4517 32.2363 45.595C32.5129 45.63 32.7979 45.665 33.0929 45.6908L34.4171 45.8075L27.2338 26.9142L45.1838 37.0875ZM28.7246 44.51C28.4263 44.7142 28.0221 45.0533 27.5546 45.4458C26.8438 46.0425 25.1796 47.44 24.6613 47.465C24.1379 47.44 22.4729 46.0417 21.7621 45.4442C21.2954 45.0525 20.8929 44.7142 20.5954 44.5108C19.8121 43.9742 19.0429 43.8258 18.2879 43.8258C17.8154 43.8258 17.3488 43.8842 16.8871 43.9425C16.5946 43.9783 16.2913 44.0167 15.9746 44.0408C13.3229 44.2417 13.1913 43.83 12.7563 42.4608C12.4404 41.4658 12.0071 40.1033 10.5646 38.66C9.12208 37.2183 7.75958 36.785 6.76458 36.4683C5.39625 36.0342 4.98292 35.9017 5.18458 33.2508C5.20875 32.935 5.24708 32.6325 5.28292 32.34C5.43208 31.1425 5.58625 29.905 4.71458 28.63C4.51042 28.3317 4.17125 27.9275 3.77875 27.4608C3.18208 26.75 1.78458 25.0858 1.75958 24.5675C1.78458 24.0425 3.18542 22.375 3.78375 21.6642C4.17375 21.1992 4.51125 20.7983 4.71458 20.5008C5.58542 19.2258 5.43125 17.9875 5.28208 16.7917C5.24625 16.4992 5.20792 16.1967 5.18375 15.8808C4.98208 13.2275 5.39542 13.0967 6.76375 12.6625C7.75875 12.3458 9.12125 11.9133 10.5638 10.4708C12.0063 9.02833 12.4396 7.665 12.7563 6.66917C13.1904 5.30083 13.3221 4.88667 15.9738 5.09C16.2896 5.11417 16.5929 5.15167 16.8846 5.18833C18.0821 5.3375 19.3188 5.49167 20.5938 4.61917C20.8913 4.41583 21.2929 4.07833 21.7579 3.6875C22.4713 3.09167 24.1379 1.69167 24.6579 1.66667C25.1821 1.69167 26.8479 3.09167 27.5588 3.68917C28.0246 4.08 28.4263 4.4175 28.7238 4.62167C29.9988 5.4925 31.2362 5.33667 32.4338 5.19C32.7254 5.15333 33.0279 5.11583 33.3438 5.09167C35.9963 4.8925 36.1279 5.30333 36.5621 6.67167C36.8779 7.66667 37.3112 9.02917 38.7537 10.4717C40.1963 11.9142 41.5588 12.3475 42.5537 12.6633C43.9229 13.0983 44.3354 13.23 44.1338 15.8825C44.1096 16.1992 44.0721 16.5017 44.0354 16.7942C43.8871 17.9908 43.7329 19.2275 44.6046 20.5025C44.8088 20.8 45.1471 21.2033 45.5387 21.6692C46.1354 22.3808 47.5337 24.045 47.5588 24.5642C47.5337 25.0875 46.1371 26.7492 45.5413 27.46C45.1479 27.9283 44.8088 28.3333 44.6038 28.6317C43.7329 29.9067 43.8862 31.1433 44.0346 32.3392C44.0713 32.6325 44.1088 32.935 44.1329 33.2517C44.1713 33.76 44.1779 34.2042 44.1496 34.5883L41.2612 32.9517C41.3179 32.8917 41.3746 32.8317 41.4121 32.7542C42.6287 30.2483 43.2463 27.5567 43.2463 24.7508C43.2463 14.6392 35.0196 6.4125 24.9088 6.4125C14.7971 6.4125 6.57042 14.6392 6.57042 24.7508C6.57042 34.8625 14.7971 43.0892 24.9088 43.0892C27.0671 43.0892 29.1663 42.6983 31.1721 41.9683L31.8988 43.8792C30.8704 43.7675 29.8104 43.7675 28.7246 44.51ZM30.5821 40.4092C28.7654 41.0675 26.8646 41.42 24.9104 41.42C15.7179 41.42 8.23875 33.9408 8.23875 24.7483C8.23875 15.5558 15.7179 8.07667 24.9104 8.07667C34.1029 8.07667 41.5812 15.5558 41.5812 24.7483C41.5812 27.3 41.0204 29.7475 39.9146 32.0225C39.8921 32.0683 39.8913 32.1167 39.8779 32.1642L24.0329 23.1833L30.5821 40.4092Z" fill="#471D00"/>
<path d="M25.2771 19.0231C25.4905 19.0231 25.7038 18.9415 25.8663 18.779C28.1371 16.5073 28.138 12.8123 25.8663 10.5398C25.5405 10.214 25.0138 10.214 24.688 10.5398C23.5871 11.6406 22.9805 13.104 22.9805 14.659C22.9805 16.2148 23.5871 17.6773 24.688 18.7781C24.8505 18.9415 25.0638 19.0231 25.2771 19.0231ZM25.2771 12.479C26.0996 13.8131 26.0996 15.5065 25.2771 16.8398C24.8738 16.189 24.6471 15.4431 24.6471 14.659C24.6471 13.8756 24.873 13.1298 25.2771 12.479Z" fill="#471D00"/>
<path d="M24.688 39.371C24.8505 39.5335 25.0638 39.6152 25.2771 39.6152C25.4905 39.6152 25.7038 39.5335 25.8663 39.371C28.138 37.0994 28.138 33.4052 25.8663 31.1335C25.5405 30.8077 25.0138 30.8077 24.688 31.1335C23.5871 32.2344 22.9805 33.6969 22.9805 35.2519C22.9805 36.8069 23.5863 38.2702 24.688 39.371ZM25.2771 33.0727C26.0996 34.406 26.0996 36.0994 25.2771 37.4319C24.8738 36.7819 24.6471 36.036 24.6471 35.2519C24.6471 34.4677 24.873 33.7227 25.2771 33.0727Z" fill="#471D00"/>
<path d="M31.4534 24.3661C31.1275 24.6919 31.1275 25.2186 31.4534 25.5444C32.5542 26.6452 34.0167 27.2527 35.5725 27.2527C37.1275 27.2527 38.5909 26.6452 39.6917 25.5444C40.0175 25.2186 40.0175 24.6919 39.6917 24.3661C37.42 22.0961 33.7242 22.0961 31.4534 24.3661ZM33.3925 24.9561C34.7259 24.1336 36.4192 24.1327 37.7534 24.9561C37.1025 25.3602 36.3567 25.5869 35.5725 25.5869C34.7892 25.5861 34.0434 25.3594 33.3925 24.9561Z" fill="#471D00"/>
<path d="M19.1 25.5442C19.4259 25.2184 19.4259 24.6917 19.1 24.3659C16.8284 22.0951 13.1334 22.0959 10.8625 24.3659C10.5367 24.6917 10.5367 25.2184 10.8625 25.5442C11.9634 26.6451 13.4259 27.2526 14.9809 27.2526C16.5359 27.2526 17.9992 26.6459 19.1 25.5442ZM17.1617 24.9551C16.5109 25.3592 15.765 25.5859 14.9809 25.5859C14.1975 25.5859 13.4517 25.3592 12.8009 24.9559C14.1342 24.1326 15.8275 24.1326 17.1617 24.9551Z" fill="#471D00"/>
<path d="M30.0609 21.004C33.2725 21.0032 35.8859 18.3899 35.8859 15.179C35.8859 14.7182 35.5125 14.3457 35.0525 14.3457C31.8409 14.3457 29.2275 16.959 29.2275 20.1707C29.2275 20.6315 29.6009 21.004 30.0609 21.004ZM34.0984 16.1332C33.7375 17.6574 32.54 18.854 31.0159 19.2157C31.3767 17.6915 32.5742 16.494 34.0984 16.1332Z" fill="#471D00"/>
<path d="M20.4931 28.6406H20.4914C18.9356 28.6406 17.4723 29.379 16.3739 30.479C15.2739 31.5781 14.6681 33.1748 14.6689 34.7315C14.6689 35.1923 15.0423 35.5648 15.5023 35.5648C18.7139 35.5648 21.3273 32.9515 21.3273 29.7406C21.3273 29.6931 21.3081 29.6531 21.3006 29.6073C21.3081 29.5623 21.3273 29.5215 21.3273 29.474C21.3264 29.014 20.9531 28.6406 20.4931 28.6406ZM16.4298 33.7848C16.5948 32.9865 16.9756 32.2331 17.5523 31.6573C18.1198 31.0898 18.8239 30.6406 19.5898 30.434C19.3081 32.0898 18.0531 33.4115 16.4298 33.7848Z" fill="#471D00"/>
<path d="M19.6214 16.0515C18.5223 14.9515 17.0589 14.3457 15.5023 14.3457C15.0423 14.3457 14.6689 14.7182 14.6689 15.179C14.6689 15.179 14.6723 15.1899 14.6723 15.1965C14.6723 15.1965 14.6689 15.2074 14.6689 15.214C14.6689 16.7707 15.2748 18.2682 16.3739 19.369C17.4731 20.4674 18.9356 21.1415 20.4914 21.1415H20.4931C20.9531 21.1415 21.3264 20.7682 21.3264 20.3082C21.3264 20.284 21.3148 20.2632 21.3123 20.239C21.3139 20.2149 21.3264 20.1949 21.3264 20.1699C21.3273 18.6132 20.7206 17.1507 19.6214 16.0515ZM16.4489 16.1307C17.1973 16.304 17.8873 16.6732 18.4431 17.229C19.0323 17.8182 19.4223 18.5524 19.5806 19.3524C18.8189 19.164 18.1173 18.7565 17.5523 18.1924C16.9914 17.6332 16.6206 16.9049 16.4489 16.1307Z" fill="#471D00"/>
<path d="M38.409 49.3208L39.1065 49.1117C39.3323 49.0442 44.684 47.3775 47.1548 41.0742L47.4098 40.4242L29.3623 29.375L38.409 49.3208ZM33.1231 33.6308L41.8831 38.9942C41.8823 39.0058 41.8765 39.0158 41.8765 39.0275C41.8765 41.6025 40.0798 43.7192 37.799 43.9392L33.1231 33.6308ZM39.2981 47.2458L38.5131 45.515C41.0865 45.0083 43.099 42.7717 43.4731 39.9683L45.3323 41.1067C43.6006 44.9283 40.624 46.6442 39.2981 47.2458Z" fill="#471D00"/>
</g>
</g>
</g>
<defs>
<clipPath id="clip0_80_4479">
<rect width="50" height="50" fill="white"/>
</clipPath>
<clipPath id="clip1_80_4479">
<rect width="50" height="50" fill="white"/>
</clipPath>
<clipPath id="clip2_80_4479">
<rect width="50" height="50" fill="white"/>
</clipPath>
</defs>
</svg>
