<svg width="51" height="50" viewBox="0 0 51 50" fill="none" xmlns="http://www.w3.org/2000/svg">
<g clip-path="url(#clip0_80_4596)">
<g clip-path="url(#clip1_80_4596)">
<g clip-path="url(#clip2_80_4596)">
<path d="M46.5354 21.9178C45.361 21.9178 43.9657 22.16 42.7348 22.3735C42.1112 22.4817 41.5103 22.5858 41.007 22.6465V18.7377C41.007 18.3323 40.6784 18.0038 40.2731 18.0038H37.1146C36.3175 16.5041 35.2582 15.1904 33.9618 14.0942C33.962 14.0765 33.962 14.0587 33.962 14.041C33.962 11.3259 32.6931 8.80928 30.5383 7.19404C30.7327 6.62949 30.831 6.03867 30.831 5.43047C30.831 2.43613 28.3948 0 25.4004 0C22.406 0 19.9698 2.43613 19.9698 5.43057C19.9698 6.03877 20.0681 6.62959 20.2625 7.19414C18.1077 8.80937 16.8388 11.326 16.8388 14.0411C16.8388 14.0588 16.8388 14.0766 16.839 14.0943C15.5446 15.1889 14.486 16.5004 13.689 17.998C13.6879 18 13.6872 18.0021 13.6862 18.004H10.5276C10.1224 18.004 9.79375 18.3325 9.79375 18.7379V22.6467C9.29043 22.586 8.68965 22.4819 8.06602 22.3737C6.83506 22.1601 5.43975 21.9179 4.26533 21.9179C2.34473 21.9178 0.400391 22.9766 0.400391 25C0.400391 27.0234 2.34473 28.0822 4.26533 28.0822C5.43975 28.0822 6.83506 27.84 8.06602 27.6265C8.68955 27.5183 9.29033 27.4142 9.79375 27.3535V31.2623C9.79375 31.6677 10.1224 31.9962 10.5276 31.9962H14.6966C14.7203 32.0577 14.7522 32.1172 14.7938 32.1727C15.4276 33.0163 16.1593 33.7813 16.9731 34.4522C16.8838 34.9516 16.8387 35.4565 16.8387 35.9591C16.8387 38.6742 18.1076 41.1908 20.2625 42.8061C20.0682 43.3706 19.9699 43.9614 19.9699 44.5696C19.9698 47.5639 22.406 50 25.4004 50C28.3948 50 30.831 47.5639 30.831 44.5694C30.831 43.9612 30.7327 43.3704 30.5383 42.8059C32.6931 41.1906 33.962 38.674 33.962 35.9589C33.962 35.4562 33.9169 34.9513 33.8275 34.452C34.6521 33.7725 35.392 32.9962 36.0315 32.1395C36.0654 32.094 36.0926 32.0458 36.1146 31.9961H40.2731C40.6784 31.9961 41.007 31.6676 41.007 31.2622V27.3534C41.5103 27.4141 42.1111 27.5182 42.7348 27.6264C43.9657 27.84 45.3608 28.0821 46.5354 28.0821C48.4561 28.0822 50.4004 27.0234 50.4004 25C50.4004 22.9766 48.4561 21.9178 46.5354 21.9178ZM9.79375 25.8759C9.21992 25.9364 8.55176 26.0524 7.81504 26.1803C6.64248 26.3838 5.31338 26.6145 4.26533 26.6145C3.11074 26.6145 1.86807 26.1093 1.86807 25C1.86807 23.8907 3.11074 23.3855 4.26533 23.3855C5.31338 23.3855 6.64248 23.6162 7.81504 23.8198C8.55176 23.9478 9.21982 24.0636 9.79375 24.1241V25.8759ZM32.5709 33.5766C32.3419 33.7522 32.2372 34.0459 32.3034 34.3269C32.4301 34.8648 32.4943 35.4139 32.4943 35.959C32.4943 38.3785 31.2774 40.6082 29.239 41.923C28.9282 42.1235 28.8152 42.5239 28.9752 42.8573C29.2326 43.3937 29.3632 43.9698 29.3632 44.5695C29.3632 46.7547 27.5854 48.5323 25.4004 48.5323C23.2152 48.5323 21.4377 46.7546 21.4377 44.5695C21.4377 43.9698 21.5683 43.3937 21.8257 42.8573C21.9856 42.5239 21.8727 42.1235 21.5619 41.923C19.5235 40.6082 18.3066 38.3785 18.3066 35.959C18.3066 35.414 18.3708 34.8648 18.4976 34.3269C18.5637 34.0459 18.459 33.7523 18.2301 33.5765C17.6166 33.1057 17.052 32.5756 16.5427 31.9961H34.2583C33.7487 32.5755 33.1846 33.1056 32.5709 33.5766ZM39.5394 30.5284H11.2614V19.4716H28.1891C28.5943 19.4716 28.9229 19.1431 28.9229 18.7377C28.9229 18.3323 28.5943 18.0038 28.1891 18.0038H15.3789C16.0878 16.8609 16.9802 15.8545 18.041 15.0058C18.1708 14.902 18.2625 14.7545 18.2986 14.5924C18.3383 14.4145 18.3064 14.2218 18.3064 14.0409C18.3064 11.6214 19.5233 9.3917 21.5618 8.07686C21.8726 7.87637 21.9855 7.47598 21.8256 7.14258C21.5681 6.60625 21.4375 6.03018 21.4375 5.43047C21.4375 3.24531 23.2152 1.46768 25.4003 1.46768C27.5854 1.46768 29.3631 3.24541 29.3631 5.43047C29.3631 6.03018 29.2325 6.60635 28.9751 7.14268C28.8151 7.47607 28.9281 7.87646 29.2389 8.07695C31.2772 9.3918 32.4941 11.6215 32.4941 14.041C32.4941 14.2219 32.4623 14.4146 32.502 14.5925C32.5381 14.7546 32.6299 14.902 32.7596 15.0059C33.8207 15.8549 34.7133 16.8611 35.4219 18.0039H31.8092C31.4039 18.0039 31.0753 18.3324 31.0753 18.7378C31.0753 19.1432 31.4039 19.4717 31.8092 19.4717H39.5392L39.5394 30.5284ZM46.5354 26.6145C45.4874 26.6145 44.1584 26.3838 42.9857 26.1802C42.249 26.0522 41.581 25.9364 41.007 25.8759V24.124C41.5809 24.0635 42.249 23.9475 42.9857 23.8197C44.1584 23.6162 45.4873 23.3854 46.5354 23.3854C47.69 23.3854 48.9327 23.8906 48.9327 24.9999C48.9327 26.1092 47.69 26.6145 46.5354 26.6145Z" fill="#471D00"/>
</g>
</g>
</g>
<defs>
<clipPath id="clip0_80_4596">
<rect width="50" height="50" fill="white" transform="translate(0.400391)"/>
</clipPath>
<clipPath id="clip1_80_4596">
<rect width="50" height="50" fill="white" transform="translate(0.400391)"/>
</clipPath>
<clipPath id="clip2_80_4596">
<rect width="50" height="50" fill="white" transform="translate(0.400391)"/>
</clipPath>
</defs>
</svg>
