<svg width="58" height="58" viewBox="0 0 58 58" fill="none" xmlns="http://www.w3.org/2000/svg">
<g clip-path="url(#clip0_80_4632)">
<g clip-path="url(#clip1_80_4632)">
<g clip-path="url(#clip2_80_4632)">
<path d="M28.9902 58C45.0065 58 57.9902 45.0163 57.9902 29C57.9902 12.9837 45.0065 0 28.9902 0C12.974 0 -0.00976562 12.9837 -0.00976562 29C-0.00976562 45.0163 12.974 58 28.9902 58Z" fill="#FF7A31"/>
<path d="M28.9902 8C17.4108 8 7.99023 17.4206 7.99023 29C7.99023 40.5794 17.4108 50 28.9902 50C40.5696 50 49.9902 40.5794 49.9902 29C49.9902 17.4206 40.5696 8 28.9902 8ZM28.9902 48.25C18.3759 48.25 9.74023 39.6143 9.74023 29C9.74023 18.3857 18.3759 9.75 28.9902 9.75C39.6045 9.75 48.2402 18.3857 48.2402 29C48.2402 39.6143 39.6045 48.25 28.9902 48.25Z" fill="white"/>
<path d="M29.6898 26.2144V19.115C29.6898 18.7279 29.3762 18.415 28.9898 18.415C28.6034 18.415 28.2898 18.7279 28.2898 19.115V26.2144C27.3105 26.4692 26.544 27.2357 26.2892 28.215H21.2898C20.9034 28.215 20.5898 28.5279 20.5898 28.915C20.5898 29.3021 20.9034 29.615 21.2898 29.615H26.2892C26.6021 30.819 27.6892 31.715 28.9898 31.715C30.534 31.715 31.7898 30.4592 31.7898 28.915C31.7898 27.6137 30.8938 26.5273 29.6898 26.2144ZM28.9898 30.315C28.2177 30.315 27.5898 29.6871 27.5898 28.915C27.5898 28.1429 28.2177 27.515 28.9898 27.515C29.7619 27.515 30.3898 28.1429 30.3898 28.915C30.3898 29.6871 29.7619 30.315 28.9898 30.315Z" fill="white"/>
<path d="M28.99 14.9154C29.3764 14.9154 29.69 14.6025 29.69 14.2154V13.5154C29.69 13.1283 29.3764 12.8154 28.99 12.8154C28.6036 12.8154 28.29 13.1283 28.29 13.5154V14.2154C28.29 14.6025 28.6036 14.9154 28.99 14.9154Z" fill="white"/>
<path d="M28.99 42.9155C28.6036 42.9155 28.29 43.2284 28.29 43.6155V44.3155C28.29 44.7026 28.6036 45.0155 28.99 45.0155C29.3764 45.0155 29.69 44.7026 29.69 44.3155V43.6155C29.69 43.2284 29.3764 42.9155 28.99 42.9155Z" fill="white"/>
<path d="M44.3902 28.2153H43.6902C43.3038 28.2153 42.9902 28.5282 42.9902 28.9153C42.9902 29.3024 43.3038 29.6153 43.6902 29.6153H44.3902C44.7766 29.6153 45.0902 29.3024 45.0902 28.9153C45.0902 28.5282 44.7766 28.2153 44.3902 28.2153Z" fill="white"/>
<path d="M14.2906 28.2153H13.5906C13.2042 28.2153 12.8906 28.5282 12.8906 28.9153C12.8906 29.3024 13.2042 29.6153 13.5906 29.6153H14.2906C14.677 29.6153 14.9906 29.3024 14.9906 28.9153C14.9906 28.5282 14.677 28.2153 14.2906 28.2153Z" fill="white"/>
<path d="M39.3847 17.5307L38.8898 18.0256C38.6161 18.2993 38.6161 18.7417 38.8898 19.0154C39.0263 19.1519 39.2055 19.2205 39.3847 19.2205C39.5639 19.2205 39.7431 19.1519 39.8796 19.0154L40.3745 18.5205C40.6482 18.2468 40.6482 17.8044 40.3745 17.5307C40.1008 17.257 39.6584 17.2577 39.3847 17.5307Z" fill="white"/>
<path d="M18.1006 38.8144L17.6057 39.3093C17.332 39.583 17.332 40.0254 17.6057 40.2991C17.7422 40.4356 17.9214 40.5042 18.1006 40.5042C18.2798 40.5042 18.459 40.4356 18.5955 40.2991L19.0904 39.8042C19.3641 39.5305 19.3641 39.0881 19.0904 38.8144C18.8167 38.5407 18.3736 38.5414 18.1006 38.8144Z" fill="white"/>
<path d="M39.8796 38.8146C39.6059 38.541 39.1635 38.541 38.8898 38.8146C38.6161 39.0883 38.6161 39.5308 38.8898 39.8045L39.3847 40.2994C39.5212 40.4359 39.7004 40.5045 39.8796 40.5045C40.0588 40.5045 40.238 40.4359 40.3745 40.2994C40.6482 40.0257 40.6482 39.5833 40.3745 39.3096L39.8796 38.8146Z" fill="white"/>
<path d="M18.5955 17.5305C18.3218 17.2568 17.8794 17.2568 17.6057 17.5305C17.332 17.8042 17.332 18.2466 17.6057 18.5203L18.1006 19.0152C18.2371 19.1517 18.4163 19.2203 18.5955 19.2203C18.7747 19.2203 18.9539 19.1517 19.0904 19.0152C19.3641 18.7415 19.3641 18.2991 19.0904 18.0254L18.5955 17.5305Z" fill="white"/>
</g>
</g>
</g>
<defs>
<clipPath id="clip0_80_4632">
<rect width="58" height="58" fill="white" transform="translate(-0.00976562)"/>
</clipPath>
<clipPath id="clip1_80_4632">
<rect width="58" height="58" fill="white" transform="translate(-0.00976562)"/>
</clipPath>
<clipPath id="clip2_80_4632">
<rect width="58" height="58" fill="white" transform="translate(-0.00976562)"/>
</clipPath>
</defs>
</svg>
