<svg width="59" height="58" viewBox="0 0 59 58" fill="none" xmlns="http://www.w3.org/2000/svg">
<g clip-path="url(#clip0_80_4657)">
<g clip-path="url(#clip1_80_4657)">
<g clip-path="url(#clip2_80_4657)">
<path d="M29.7998 58C45.8161 58 58.7998 45.0163 58.7998 29C58.7998 12.9837 45.8161 0 29.7998 0C13.7835 0 0.799805 12.9837 0.799805 29C0.799805 45.0163 13.7835 58 29.7998 58Z" fill="#FF7A31"/>
<path d="M44.633 16.0189L34.1278 10.2418C33.1312 9.69356 31.761 10.1152 31.2212 11.1273L25.0759 22.7237H17.6018C16.6468 22.7237 15.8994 23.4827 15.8994 24.4526V27.4887V43.2177C15.8994 44.1875 16.6468 44.9466 17.6018 44.9466H41.4773C42.4323 44.9466 43.1797 44.1875 43.1797 43.2177V38.8321H43.8856C44.2593 38.8321 44.5499 38.5369 44.5499 38.1574V33.1393C44.5499 32.7598 44.2593 32.4646 43.8856 32.4646H43.1797V27.5309C43.1797 26.7297 42.5984 26.0128 41.851 25.8442L45.5049 18.9707C46.0447 17.9165 45.671 16.6092 44.633 16.0189ZM37.1589 13.4466L30.5984 25.802H28.7299L35.7472 12.6875L37.1589 13.4466ZM32.4254 11.7598C32.633 11.3803 33.1312 11.2116 33.5049 11.4225L34.543 12.0128L27.2351 25.802H24.9513L32.4254 11.7598ZM17.1866 24.4104C17.1866 24.2839 17.3527 24.0731 17.5603 24.0731H24.3285L23.415 25.7598H17.5603C17.4357 25.7598 17.3112 25.7598 17.1866 25.802V24.4104ZM41.8094 43.2177C41.8094 43.4285 41.6434 43.5972 41.4357 43.5972H17.5603C17.3527 43.5972 17.1866 43.4285 17.1866 43.2177V27.5309C17.1866 27.3201 17.3527 27.1514 17.5603 27.1514H23.8302H26.4876H31.3458H40.6883H41.3942C41.6018 27.1514 41.7679 27.3201 41.7679 27.5309V32.4646H39.2351C38.1139 32.4646 37.242 33.3924 37.242 34.4887V36.808C37.242 37.9466 38.1555 38.8321 39.2351 38.8321H41.8094V43.2177ZM43.1382 33.814H43.1797V37.4827H43.1382H39.2351C38.8614 37.4827 38.5707 37.1875 38.5707 36.808V34.4887C38.5707 34.1092 38.8614 33.814 39.2351 33.814H43.1382ZM44.3008 18.296L40.3146 25.802H32.0932L38.3216 14.1213L43.9686 17.2418C44.3838 17.4104 44.5084 17.9165 44.3008 18.296Z" fill="white"/>
<path d="M41.768 17.6635L41.4359 17.4949C40.6054 17.031 39.4843 17.3684 39.0276 18.2117L38.6123 19.0129C38.4047 19.4346 38.3217 19.9406 38.4878 20.4045C38.6123 20.8684 38.9445 21.2479 39.3597 21.4587L39.6919 21.6274C39.9411 21.7539 40.2317 21.8382 40.5224 21.8382C41.1867 21.8382 41.768 21.4587 42.1002 20.9105L42.5155 20.1093C42.9307 19.2238 42.5985 18.1274 41.768 17.6635ZM41.3113 19.4768L40.8961 20.278C40.7715 20.4888 40.4808 20.5732 40.2732 20.4467L39.9411 20.2358C39.858 20.1937 39.775 20.0671 39.7334 19.9828C39.6919 19.8563 39.6919 19.7298 39.775 19.6455L40.1902 18.8443C40.2732 18.7178 40.4393 18.5912 40.6054 18.5912C40.6885 18.5912 40.73 18.5912 40.813 18.6334L41.1452 18.8021C41.3113 18.9708 41.3943 19.2238 41.3113 19.4768Z" fill="white"/>
</g>
</g>
</g>
<defs>
<clipPath id="clip0_80_4657">
<rect width="58" height="58" fill="white" transform="translate(0.799805)"/>
</clipPath>
<clipPath id="clip1_80_4657">
<rect width="58" height="58" fill="white" transform="translate(0.799805)"/>
</clipPath>
<clipPath id="clip2_80_4657">
<rect width="58" height="58" fill="white" transform="translate(0.799805)"/>
</clipPath>
</defs>
</svg>
