<svg width="49" height="20" viewBox="0 0 49 20" fill="none" xmlns="http://www.w3.org/2000/svg">
<g clip-path="url(#clip0_80_4779)">
<g clip-path="url(#clip1_80_4779)">
<g clip-path="url(#clip2_80_4779)">
<path d="M3.07806 7.85329V9.81643V10.7406V12.7037C3.07806 13.3409 2.56144 13.8575 1.92428 13.8575C1.28712 13.8575 0.770508 13.3409 0.770508 12.7037V10.7406V9.81643V7.85329C0.770508 7.21613 1.28712 6.69952 1.92428 6.69952C2.56144 6.69952 3.07806 7.21613 3.07806 7.85329ZM16.6651 7.85329C16.6651 7.21613 16.1485 6.69952 15.5113 6.69952C14.8741 6.69952 14.3575 7.21613 14.3575 7.85329V9.81643V10.7406V12.7037C14.3575 13.3409 14.8741 13.8575 15.5113 13.8575C16.1485 13.8575 16.6651 13.3409 16.6651 12.7037V10.7406V9.81643V7.85329ZM3.50857 6.49861C3.50857 6.44695 3.50283 6.39529 3.50283 6.33789C3.50283 5.98199 3.54876 5.63758 3.62912 5.31039C3.95057 4.03607 4.869 2.95692 6.10314 2.31402L5.30525 0.833052C5.25359 0.741209 5.28803 0.626405 5.37987 0.580484C5.47172 0.528822 5.58652 0.563263 5.63244 0.655106L6.44181 2.15329C7.13063 1.8548 7.90555 1.68834 8.7264 1.68834C9.5415 1.68834 10.3107 1.8548 10.9938 2.14755L11.8031 0.655106C11.8548 0.563263 11.9639 0.528822 12.0557 0.580484C12.1475 0.632145 12.182 0.741209 12.1303 0.833052L11.3324 2.30254C12.6297 2.9684 13.5711 4.11644 13.8581 5.47112C13.8926 5.6261 13.9155 5.78109 13.927 5.93607V6.49287H3.50857V6.49861ZM10.6092 4.15662C10.6092 4.42641 10.8273 4.65027 11.1028 4.65027C11.3726 4.65027 11.5965 4.43215 11.5965 4.15662C11.5965 3.88109 11.3784 3.66296 11.1028 3.66296C10.8273 3.6687 10.6092 3.88683 10.6092 4.15662ZM5.85057 4.15662C5.85057 4.42641 6.0687 4.65027 6.34422 4.65027C6.61401 4.65027 6.83788 4.43215 6.83788 4.15662C6.83788 3.88109 6.61975 3.66296 6.34422 3.66296C6.07444 3.6687 5.85057 3.88683 5.85057 4.15662ZM3.5545 6.90042H3.49709V14.5119C3.49709 15.1491 4.01945 15.6657 4.65087 15.6657H5.64392V16.3545V18.3176C5.64392 18.9548 6.16054 19.4714 6.7977 19.4714C7.43486 19.4714 7.95147 18.9548 7.95147 18.3176V16.3545V15.6657H9.50706V16.3545V18.3176C9.50706 18.9548 10.0237 19.4714 10.6608 19.4714C11.298 19.4714 11.8146 18.9548 11.8146 18.3176V16.3545V15.6657H12.7847C13.4219 15.6657 13.9385 15.1433 13.9385 14.5119V6.90042H13.9213H3.5545Z" fill="#78C257"/>
<path d="M23.6509 13.9952C22.5201 13.9952 21.4696 13.4556 20.9013 12.5544C20.8669 12.5027 20.8152 12.4109 20.8152 12.2616V9.08732C20.8267 8.93808 20.8784 8.84049 20.9128 8.79457C21.5041 7.91058 22.5201 7.37101 23.6509 7.37101C25.4533 7.37101 26.9228 8.85771 26.9228 10.6831C26.9228 12.5142 25.459 13.9952 23.6509 13.9952ZM20.8152 17.755V14.0928C21.5557 14.8332 22.5832 15.2867 23.7485 15.2867C26.2684 15.2867 28.266 13.226 28.266 10.6888C28.266 8.14593 26.2684 6.08521 23.7485 6.08521C22.5832 6.08521 21.5557 6.53868 20.8152 7.26768V6.26315H19.4893V17.755H20.8152ZM33.7766 13.9894C31.9627 13.9894 30.4989 12.5027 30.4989 10.6773C30.4989 8.85771 31.9684 7.37101 33.7766 7.37101C34.9074 7.37101 35.9751 7.8991 36.5261 8.81179C36.5548 8.86345 36.6122 8.9553 36.6122 9.10454V12.2444C36.6007 12.4051 36.5491 12.5027 36.5146 12.5429C35.9234 13.4212 34.9074 13.9894 33.7766 13.9894ZM37.9382 15.103V6.26315H36.6122V7.27342C35.8717 6.53294 34.8442 6.09094 33.679 6.09094C31.1533 6.09094 29.1615 8.14019 29.1615 10.6773C29.1615 13.2203 31.1476 15.281 33.679 15.281C34.8442 15.281 35.8717 14.8275 36.6122 14.0985V15.1088H37.9382V15.103ZM47.5817 6.25167H46.0893L42.8461 14.0239H43.5062L40.2687 6.26315H38.7303L42.3983 14.7758L42.1056 15.436C41.7784 16.1707 41.1584 16.4864 40.5672 16.4864H40.0793V17.8239H40.55C41.8645 17.8239 42.9092 17.1178 43.466 15.7746L47.5817 6.25167Z" fill="#757575"/>
</g>
</g>
</g>
<defs>
<clipPath id="clip0_80_4779">
<rect width="47.5" height="19" fill="white" transform="translate(0.770508 0.5)"/>
</clipPath>
<clipPath id="clip1_80_4779">
<rect width="47.5" height="19" fill="white" transform="translate(0.770508 0.5)"/>
</clipPath>
<clipPath id="clip2_80_4779">
<rect width="47.5" height="19" fill="white" transform="translate(0.770508 0.5)"/>
</clipPath>
</defs>
</svg>
