<svg width="40" height="18" viewBox="0 0 40 18" fill="none" xmlns="http://www.w3.org/2000/svg">
<g clip-path="url(#clip0_80_4756)">
<g clip-path="url(#clip1_80_4756)">
<g clip-path="url(#clip2_80_4756)">
<path d="M10.7005 7.39334C10.7207 9.49833 12.6068 10.1987 12.6277 10.2077C12.6119 10.2573 12.3265 11.206 11.6344 12.1863C11.0356 13.0335 10.4144 13.8778 9.43586 13.8954C8.47424 13.9127 8.16546 13.3434 7.06564 13.3434C5.96654 13.3434 5.62285 13.8778 4.71269 13.9127C3.76835 13.9473 3.04893 12.9961 2.4454 12.1518C1.21206 10.4243 0.269519 7.2717 1.53524 5.14332C2.16397 4.08633 3.28718 3.41694 4.50684 3.40003C5.43427 3.38275 6.30988 4.00428 6.87706 4.00428C7.44352 4.00428 8.50771 3.25679 9.6266 3.36656C10.0945 3.38563 11.4088 3.54974 12.2527 4.74637C12.1843 4.78739 10.684 5.63349 10.7005 7.39334ZM8.89315 2.22391C9.39447 1.63586 9.73241 0.817472 9.64028 0.00268555C8.91726 0.0307568 8.04309 0.4691 7.52486 1.0568C7.05988 1.57719 6.65321 2.40998 6.76297 3.20857C7.56912 3.26903 8.39147 2.81233 8.89315 2.22391ZM16.1517 1.21731C16.5601 1.14962 16.9703 1.09322 17.3818 1.04816C17.8733 0.995876 18.3674 0.970886 18.8617 0.973303C19.6304 0.973303 20.293 1.06399 20.8501 1.24538C21.4079 1.42676 21.8653 1.6866 22.2238 2.02454C22.5341 2.32846 22.7794 2.69237 22.9446 3.09412C23.1174 3.50691 23.203 3.98268 23.203 4.52072C23.203 5.17139 23.0853 5.74074 22.8482 6.22874C22.6203 6.70563 22.2888 7.12564 21.8779 7.45812C21.4676 7.78922 20.9811 8.03646 20.4175 8.19949C19.8535 8.3618 19.2388 8.44313 18.5723 8.44313C17.9706 8.44313 17.4646 8.39959 17.055 8.31213V13.7176H16.1517V1.21731ZM17.055 7.52398C17.2728 7.58624 17.5161 7.63015 17.7853 7.65498C18.0545 7.68017 18.3424 7.69241 18.6497 7.69241C19.8024 7.69241 20.696 7.42969 21.3302 6.90425C21.9639 6.37882 22.2813 5.60902 22.2813 4.59557C22.2813 4.10757 22.1982 3.68182 22.0316 3.31905C21.8734 2.96682 21.629 2.66021 21.3208 2.42761C21.0134 2.19584 20.6485 2.02094 20.2257 1.90181C19.8024 1.78305 19.3349 1.72367 18.8221 1.72367C18.4125 1.72367 18.0602 1.73914 17.7655 1.77045C17.4711 1.80176 17.2339 1.83631 17.0547 1.87374L17.055 7.52398ZM30.3871 11.5785C30.3871 11.9412 30.3932 12.3044 30.4062 12.6671C30.4188 13.0299 30.4569 13.3797 30.5213 13.718H29.6759L29.5417 12.4415H29.5025C29.3873 12.6171 29.2401 12.792 29.0609 12.9669C28.8817 13.1418 28.6737 13.3016 28.4369 13.4456C28.1997 13.5895 27.9309 13.7054 27.6296 13.7929C27.3076 13.8831 26.9744 13.9273 26.6399 13.9242C26.1919 13.9242 25.7978 13.8522 25.4577 13.7083C25.1183 13.5643 24.8398 13.3768 24.622 13.1454C24.4059 12.9159 24.2393 12.6443 24.1326 12.3476C24.0258 12.0592 23.9705 11.7543 23.9692 11.4468C23.9692 10.3833 24.427 9.56382 25.3429 8.988C26.2588 8.41218 27.6393 8.13687 29.4845 8.16206V7.91806C29.4845 7.67981 29.4618 7.40738 29.4172 7.10111C29.3722 6.79435 29.2711 6.4985 29.1188 6.22838C28.9652 5.95343 28.7348 5.72202 28.4275 5.53452C28.1202 5.34666 27.7034 5.25273 27.1787 5.25273C26.781 5.25273 26.3877 5.31211 25.9968 5.43087C25.606 5.54964 25.2508 5.71518 24.9305 5.92824L24.6422 5.27108C25.0518 4.99613 25.475 4.79927 25.9101 4.68051C26.3549 4.56053 26.8137 4.50062 27.2744 4.50236C27.915 4.50236 28.4369 4.60853 28.8407 4.82122C29.2441 5.03392 29.5611 5.30923 29.7918 5.64681C30.0245 5.9894 30.1846 6.3759 30.2626 6.78261C30.345 7.19355 30.3869 7.61158 30.3878 8.0307L30.3871 11.5785ZM29.4838 8.89443C28.9737 8.8825 28.4635 8.90125 27.9557 8.95058C27.4245 9.00024 26.9343 9.11037 26.4863 9.27879C26.0375 9.44794 25.6664 9.69482 25.3721 10.0202C25.0777 10.3455 24.9297 10.7774 24.9297 11.3158C24.9297 11.9531 25.1155 12.4228 25.4876 12.7229C25.8583 13.0231 26.2747 13.1735 26.736 13.1735C27.1074 13.1735 27.4407 13.1238 27.7351 13.0231C28.0298 12.923 28.2853 12.7884 28.5034 12.62C28.7215 12.4516 28.9036 12.2601 29.0512 12.0478C29.1987 11.8344 29.3107 11.6159 29.388 11.3903C29.4521 11.1398 29.4845 10.9584 29.4845 10.8454L29.4838 8.89443ZM32.1534 4.70822L34.497 10.5643C34.6277 10.8957 34.7496 11.2306 34.8627 11.5684C34.9778 11.9125 35.0804 12.2288 35.17 12.5163H35.2085C35.2985 12.2414 35.4007 11.9315 35.5159 11.5871C35.6314 11.2434 35.7595 10.8897 35.9002 10.5262L38.0912 4.70786H39.0514L36.381 11.3154C36.1365 11.9538 35.8834 12.5888 35.6217 13.2203C35.406 13.7444 35.1656 14.2579 34.9012 14.7592C34.6808 15.1784 34.4335 15.5829 34.1609 15.9702C33.9209 16.3097 33.6403 16.6185 33.3252 16.8897C32.9671 17.2021 32.6367 17.431 32.3355 17.5749C32.0347 17.7189 31.8331 17.8096 31.7305 17.847L31.4225 17.115C31.686 16.9981 31.9428 16.8665 32.1916 16.7209C32.4925 16.5436 32.7699 16.3292 33.0175 16.0828C33.2486 15.8575 33.5016 15.561 33.7769 15.191C34.0522 14.8221 34.2987 14.3748 34.5168 13.849C34.5935 13.6489 34.632 13.5172 34.632 13.4546C34.632 13.3675 34.5938 13.2358 34.5168 13.0605L31.1922 4.7075L32.1534 4.70822Z" fill="black"/>
</g>
</g>
</g>
<defs>
<clipPath id="clip0_80_4756">
<rect width="38.83" height="18" fill="white" transform="translate(0.610352)"/>
</clipPath>
<clipPath id="clip1_80_4756">
<rect width="38.83" height="18" fill="white" transform="translate(0.610352)"/>
</clipPath>
<clipPath id="clip2_80_4756">
<rect width="38.83" height="17.9944" fill="white" transform="translate(0.610352 0.00268555)"/>
</clipPath>
</defs>
</svg>
