<svg width="12" height="21" viewBox="0 0 12 21" fill="none" xmlns="http://www.w3.org/2000/svg">
<g clip-path="url(#clip0_80_4795)">
<g clip-path="url(#clip1_80_4795)">
<g clip-path="url(#clip2_80_4795)">
<path fill-rule="evenodd" clip-rule="evenodd" d="M8.02579 19.8172H4.43324V11.1412H1.49365V7.69137H4.45062V7.43069C4.44938 6.73675 4.43572 6.04406 4.4531 5.34889C4.46427 4.90944 4.48289 4.45758 4.5611 4.02434C4.74482 2.97041 5.2302 2.07786 6.11282 1.44475C6.88248 0.891098 7.76262 0.665167 8.69365 0.646546C8.80289 0.644064 8.91213 0.642822 9.02262 0.642822C9.52289 0.642822 10.0232 0.66765 10.5234 0.688753C10.8561 0.706132 11.1888 0.752064 11.5054 0.783098V3.87289H11.2596C11.2149 3.87289 11.1702 3.87289 11.1268 3.87289C10.9666 3.87289 10.8077 3.87165 10.6488 3.87041C10.4912 3.86917 10.3348 3.86917 10.1771 3.86917C9.94372 3.86917 9.71034 3.87041 9.47696 3.8791C8.66138 3.90765 8.05931 4.21799 8.03076 5.23593C8.00965 5.97703 8.00096 7.68889 8.00096 7.68889C8.00096 7.68889 8.85131 7.69013 9.66441 7.69013C10.0716 7.69013 10.4688 7.69013 10.7469 7.68889C10.8177 7.68889 10.8884 7.68889 10.9592 7.68889C11.1032 7.68889 11.2484 7.68889 11.4061 7.68889C11.2521 8.87193 11.1057 10.0078 10.9554 11.1573H8.02579V19.8172Z" fill="#4D6CA6"/>
</g>
</g>
</g>
<defs>
<clipPath id="clip0_80_4795">
<rect width="11" height="20" fill="white" transform="translate(0.979492 0.5)"/>
</clipPath>
<clipPath id="clip1_80_4795">
<rect width="11" height="20" fill="white" transform="translate(0.979492 0.5)"/>
</clipPath>
<clipPath id="clip2_80_4795">
<rect width="11" height="20" fill="white" transform="translate(0.979492 0.5)"/>
</clipPath>
</defs>
</svg>
