<svg width="20" height="20" viewBox="0 0 20 20" fill="none" xmlns="http://www.w3.org/2000/svg">
<g clip-path="url(#clip0_80_4801)">
<g clip-path="url(#clip1_80_4801)">
<g clip-path="url(#clip2_80_4801)">
<path fill-rule="evenodd" clip-rule="evenodd" d="M16.6803 4.94231C16.6789 5.57693 16.1748 6.0784 15.5391 6.0784C14.9048 6.0784 14.4036 5.57835 14.3994 4.94373C14.3951 4.30203 14.9062 3.79207 15.5504 3.79632C16.1819 3.80057 16.6831 4.30911 16.6803 4.94231ZM10.4477 13.1499C8.73026 13.147 7.33139 11.7262 7.33139 9.98668C7.33281 8.24715 8.743 6.84617 10.493 6.84617C12.2303 6.84617 13.632 8.2599 13.632 10.0093C13.6305 11.7588 12.2161 13.1513 10.4477 13.1499ZM10.4803 5.12505C7.7873 5.12363 5.60829 7.30514 5.60971 10.0051C5.61112 12.6881 7.78446 14.8681 10.4689 14.8724C13.1661 14.8781 15.3522 12.698 15.3536 10.0051C15.3551 7.30514 13.1761 5.12505 10.4803 5.12505ZM18.0749 14.7662C17.8229 16.4249 16.7199 17.4534 15.0521 17.6361C13.5201 17.8033 6.67585 17.8953 5.25433 17.4987C3.89369 17.1191 3.11638 16.1827 2.89126 14.8129C2.67464 13.5054 2.62083 6.96941 2.88843 5.22138C3.13904 3.57392 4.23916 2.54833 5.89854 2.36134C7.58058 2.17294 13.639 2.15311 15.2503 2.40101C16.9068 2.65315 17.9333 3.75807 18.1146 5.43103C18.2845 6.99208 18.3326 13.0889 18.0749 14.7662ZM19.8249 5.26671C19.6975 4.01447 19.2175 2.90955 18.2887 2.02279C17.3104 1.08927 16.1154 0.677054 14.8043 0.607642C12.5715 0.485818 7.27051 0.407907 5.40724 0.712468C3.28062 1.05811 1.886 2.30185 1.29701 4.40261C0.845349 6.02032 0.934548 13.4743 1.19931 15.075C1.55894 17.2607 2.8502 18.6617 5.01505 19.2198C6.51444 19.6065 13.8797 19.557 15.5335 19.2892C17.7181 18.9351 19.1269 17.6503 19.6932 15.4886C20.1293 13.8284 19.9764 6.76259 19.8249 5.26671Z" fill="#D83A52"/>
</g>
</g>
</g>
<defs>
<clipPath id="clip0_80_4801">
<rect width="19" height="19" fill="white" transform="translate(0.979492 0.5)"/>
</clipPath>
<clipPath id="clip1_80_4801">
<rect width="19" height="19" fill="white" transform="translate(0.979492 0.5)"/>
</clipPath>
<clipPath id="clip2_80_4801">
<rect width="19" height="19" fill="white" transform="translate(0.979492 0.5)"/>
</clipPath>
</defs>
</svg>
