<svg width="33" height="20" viewBox="0 0 33 20" fill="none" xmlns="http://www.w3.org/2000/svg">
<g clip-path="url(#clip0_80_4741)">
<g clip-path="url(#clip1_80_4741)">
<g clip-path="url(#clip2_80_4741)">
<path d="M10.1104 19.5C15.3571 19.5 19.6104 15.2467 19.6104 10C19.6104 4.75329 15.3571 0.5 10.1104 0.5C4.86365 0.5 0.610352 4.75329 0.610352 10C0.610352 15.2467 4.86365 19.5 10.1104 19.5Z" fill="#ED1C2E"/>
<path fill-rule="evenodd" clip-rule="evenodd" d="M22.9107 0.5C20.4107 0.5 18.2107 1.4 16.5107 3C16.2107 3.3 15.8107 3.6 15.5107 4H17.4107C17.7107 4.3 17.9107 4.7 18.1107 5H14.7107C14.5107 5.3 14.3107 5.7 14.2107 6H18.7107C18.9107 6.3 19.0107 6.7 19.1107 7H13.8107C13.7107 7.3 13.6107 7.7 13.5107 8H19.3107C19.4107 8.6 19.5107 9.3 19.5107 10C19.5107 11.1 19.3107 12.1 19.0107 13H13.7107C13.8107 13.3 13.9107 13.7 14.1107 14H18.6107C18.4107 14.3 18.3107 14.7 18.1107 15H14.7107C14.9107 15.4 15.2107 15.7 15.4107 16H17.3107C17.0107 16.4 16.7107 16.7 16.3107 17C18.0107 18.5 20.2107 19.5 22.7107 19.5C27.9107 19.5 32.2107 15.2 32.2107 10C32.4107 4.8 28.1107 0.5 22.9107 0.5ZM31.1107 15.3C31.1107 15.1 31.2107 15 31.4107 15C31.6107 15 31.7107 15.1 31.7107 15.3C31.7107 15.5 31.6107 15.6 31.4107 15.6C31.2107 15.6 31.1107 15.5 31.1107 15.3ZM31.4107 15.5C31.5107 15.5 31.6107 15.4 31.6107 15.3C31.6107 15.2 31.5107 15.1 31.4107 15.1C31.3107 15.1 31.2107 15.2 31.2107 15.3C31.2107 15.4 31.3107 15.5 31.4107 15.5ZM31.4107 15.4L31.3107 15.1H31.5107V15.4H31.4107ZM31.4107 15.3C31.4107 15.2 31.4107 15.2 31.4107 15.3V15.3Z" fill="#FCB131"/>
<path fill-rule="evenodd" clip-rule="evenodd" d="M7.90996 11H7.70996C7.10996 11 6.80996 11.2 6.80996 11.6C6.80996 11.8 6.90996 12 7.20996 12C7.60996 12 7.90996 11.6 7.90996 11ZM8.60996 12.8H7.70996V12.4C7.40996 12.7 7.10996 12.9 6.60996 12.9C6.00996 12.9 5.70996 12.5 5.70996 11.8C5.70996 10.8 6.40996 10.3 7.50996 10.3H7.90996V10C7.90996 9.7 7.70996 9.6 7.20996 9.6C6.70996 9.6 6.30996 9.7 6.10996 9.8C6.10996 9.7 6.20996 8.9 6.20996 8.9C6.70996 8.7 7.10996 8.7 7.40996 8.7C8.30996 8.7 8.80996 9.1 8.80996 9.8C8.80996 10 8.80996 10.2 8.70996 10.6C8.90996 11.3 8.70996 12.5 8.60996 12.8ZM5.30996 12.8H4.30996L4.90996 9.1L3.60996 12.8H2.90996L2.80996 9.1L2.20996 12.8H1.20996L2.00996 8H3.50996L3.60996 10.7L4.50996 8H6.10996L5.30996 12.8ZM24.11 11H23.91C23.31 11 23.01 11.2 23.01 11.6C23.01 11.8 23.11 12 23.41 12C23.81 12 24.11 11.6 24.11 11ZM24.91 12.8H24.01V12.4C23.71 12.7 23.41 12.9 22.91 12.9C22.31 12.9 22.01 12.5 22.01 11.8C22.01 10.8 22.71 10.3 23.81 10.3H24.21V10C24.21 9.7 24.01 9.6 23.51 9.6C23.01 9.6 22.61 9.7 22.41 9.8C22.41 9.7 22.51 8.9 22.51 8.9C23.01 8.7 23.41 8.7 23.71 8.7C24.61 8.7 25.11 9.1 25.11 9.8C25.11 10 25.11 10.2 25.01 10.6C25.11 11.3 24.91 12.5 24.91 12.8ZM13.21 12.7C12.91 12.8 12.71 12.8 12.51 12.8C12.01 12.8 11.71 12.5 11.71 11.9C11.71 11.7 11.81 11.3 11.81 10.9C11.91 10.5 12.21 8.2 12.21 8.2H13.21L13.11 8.8H13.71L13.61 9.8H13.01C12.91 10.5 12.71 11.5 12.71 11.6C12.71 11.8 12.81 11.9 13.11 11.9H13.41L13.21 12.7ZM16.41 12.7C16.01 12.8 15.71 12.9 15.31 12.9C14.21 12.9 13.61 12.3 13.61 11.2C13.61 9.9 14.41 8.9 15.41 8.9C16.21 8.9 16.81 9.5 16.81 10.3C16.81 10.6 16.81 10.9 16.71 11.3H14.71C14.61 11.9 15.01 12.1 15.61 12.1C16.01 12.1 16.31 12 16.71 11.9L16.41 12.7ZM15.81 10.4C15.81 10.3 15.91 9.7 15.31 9.7C15.01 9.7 14.71 9.9 14.61 10.4H15.81ZM9.30996 10.1C9.30996 10.6 9.50996 10.9 10.11 11.2C10.51 11.4 10.61 11.5 10.61 11.6C10.61 11.8 10.41 12 10.01 12C9.70996 12 9.40996 12 9.10996 11.8L9.00996 12.7C9.20996 12.8 9.40996 12.8 10.11 12.8C11.21 12.8 11.71 12.4 11.71 11.5C11.71 11 11.51 10.6 11.01 10.4C10.41 10.3 10.31 10.2 10.31 10C10.31 9.8 10.51 9.7 10.81 9.7C11.01 9.7 11.31 9.7 11.51 9.8L11.61 8.9C11.31 8.9 10.91 8.8 10.71 8.8C9.60996 8.8 9.20996 9.4 9.30996 10.1Z" fill="#003473"/>
<path fill-rule="evenodd" clip-rule="evenodd" d="M21.4102 8.90005C21.7102 8.90005 22.0102 9.00005 22.3102 9.20005L22.5102 8.20005C22.3102 8.10005 21.8102 7.80005 21.4102 7.80005C20.7102 7.80005 20.1102 8.10005 19.7102 8.70005C19.1102 8.50005 18.9102 8.90005 18.6102 9.30005L18.3102 9.40005V9.00005H17.4102C17.3102 10.2 17.0102 11.4 16.9102 12.7V13H17.9102C18.1102 11.9 18.2102 11.2 18.2102 10.7L18.6102 10.5C18.7102 10.3 18.8102 10.2 19.2102 10.2C19.2102 10.5 19.1102 10.7 19.1102 11C19.1102 12.3 19.8102 13.1 20.9102 13.1C21.2102 13.1 21.4102 13.1 21.8102 13L22.0102 11.9C21.7102 12.1 21.4102 12.1 21.1102 12.1C20.5102 12.1 20.1102 11.7 20.1102 10.9C20.1102 9.60005 20.6102 8.90005 21.4102 8.90005ZM30.1102 8.00005L29.9102 9.40005C29.6102 9.00005 29.3102 8.80005 28.9102 8.80005C28.4102 8.80005 27.9102 9.20005 27.6102 9.80005C27.2102 9.60005 26.7102 9.50005 26.7102 9.50005V8.90005H25.8102C25.7102 10.1 25.4102 11.3 25.3102 12.6V12.9H26.3102C26.4102 12 26.5102 11.2 26.6102 10.6C27.0102 10.3 27.1102 10 27.5102 10C27.3102 10.4 27.3102 10.8 27.3102 11.3C27.3102 12.3 27.8102 12.9 28.5102 12.9C28.9102 12.9 29.2102 12.8 29.5102 12.5V12.9H30.5102L31.3102 8.10005H30.1102V8.00005ZM28.8102 11.9C28.4102 11.9 28.3102 11.6 28.3102 11.1C28.3102 10.3 28.6102 9.80005 29.1102 9.80005C29.5102 9.80005 29.6102 10.1 29.6102 10.6C29.6102 11.3 29.3102 11.9 28.8102 11.9Z" fill="#003473"/>
<path fill-rule="evenodd" clip-rule="evenodd" d="M5.60977 12.5H4.60977L5.20977 8.8L3.90977 12.5H3.20977L3.10977 8.8L2.50977 12.5H1.50977L2.30977 7.7H3.80977V10.7L4.80977 7.7H6.40977L5.60977 12.5ZM8.20977 10.8H8.00977C7.40977 10.8 7.10977 11 7.10977 11.4C7.10977 11.6 7.20977 11.8 7.50977 11.8C7.90977 11.7 8.20977 11.3 8.20977 10.8ZM8.90977 12.5H8.00977V12.1C7.70977 12.4 7.40977 12.6 6.90977 12.6C6.30977 12.6 6.00977 12.2 6.00977 11.5C6.00977 10.5 6.70977 10 7.80977 10H8.20977V9.7C8.20977 9.4 8.00977 9.3 7.50977 9.3C7.20977 9.4 6.80977 9.5 6.60977 9.6C6.60977 9.5 6.70977 8.7 6.70977 8.7C7.20977 8.6 7.60977 8.5 8.00977 8.5C8.90977 8.5 9.40977 8.9 9.40977 9.6C9.40977 9.8 9.40977 10.1 9.30977 10.4C9.10977 11 9.00977 12.2 8.90977 12.5ZM22.8098 7.8L22.6098 8.8C22.2098 8.6 22.0098 8.5 21.7098 8.5C20.9098 8.5 20.4098 9.2 20.4098 10.3C20.4098 11 20.8098 11.5 21.4098 11.5C21.7098 11.5 21.9098 11.4 22.3098 11.3L22.1098 12.4C21.7098 12.5 21.5098 12.5 21.2098 12.5C20.1098 12.5 19.4098 11.7 19.4098 10.4C19.4098 8.7 20.4098 7.5 21.7098 7.5C22.1098 7.6 22.6098 7.8 22.8098 7.8Z" fill="white"/>
<path fill-rule="evenodd" clip-rule="evenodd" d="M24.41 10.8001H24.21C23.61 10.8001 23.31 11.0001 23.31 11.4001C23.31 11.6001 23.41 11.8001 23.71 11.8001C24.11 11.7001 24.41 11.3001 24.41 10.8001ZM25.21 12.5001H24.31V12.1001C24.01 12.4001 23.71 12.6001 23.21 12.6001C22.61 12.6001 22.31 12.2001 22.31 11.5001C22.31 10.5001 23.01 10.0001 24.11 10.0001H24.51V9.7001C24.51 9.4001 24.31 9.3001 23.81 9.3001C23.31 9.3001 22.91 9.4001 22.71 9.5001C22.71 9.4001 22.81 8.6001 22.81 8.6001C23.51 8.6001 23.81 8.5001 24.21 8.5001C25.11 8.5001 25.61 8.9001 25.61 9.6001C25.61 9.8001 25.61 10.1001 25.51 10.4001C25.41 11.0001 25.21 12.2001 25.21 12.5001ZM13.51 12.4001C13.21 12.5001 13.01 12.5001 12.81 12.5001C12.31 12.5001 12.01 12.2001 12.01 11.6001C12.01 11.4001 12.11 11.0001 12.11 10.6001C12.21 10.2001 12.51 7.9001 12.51 7.9001H13.51L13.41 8.5001H13.91L13.81 9.5001H13.31C13.21 10.2001 13.01 11.2001 13.01 11.3001C13.01 11.5001 13.11 11.6001 13.41 11.6001H13.71L13.51 12.4001ZM16.71 12.4001C16.31 12.5001 16.01 12.6001 15.61 12.6001C14.51 12.6001 13.91 12.0001 13.91 10.9001C13.91 9.5001 14.61 8.5001 15.71 8.5001C16.51 8.5001 17.11 9.1001 17.11 9.9001C17.11 10.2001 17.11 10.5001 17.01 10.9001H15.01C14.91 11.5001 15.31 11.7001 15.91 11.7001C16.31 11.7001 16.61 11.6001 17.01 11.5001L16.71 12.4001ZM16.11 10.1001C16.11 10.0001 16.21 9.4001 15.61 9.4001C15.31 9.4001 15.01 9.6001 14.91 10.1001H16.11ZM9.50996 9.8001C9.50996 10.3001 9.70996 10.6001 10.31 10.9001C10.71 11.1001 10.81 11.2001 10.81 11.3001C10.81 11.5001 10.61 11.7001 10.21 11.7001C9.90996 11.7001 9.60996 11.7001 9.30996 11.5001L9.20996 12.4001C9.40996 12.5001 9.60996 12.6001 10.21 12.6001C11.31 12.6001 11.81 12.2001 11.81 11.3001C11.81 10.8001 11.61 10.4001 11.11 10.2001C10.71 10.0001 10.61 9.9001 10.61 9.7001C10.61 9.5001 10.81 9.4001 11.11 9.4001C11.31 9.4001 11.61 9.4001 11.81 9.5001L11.91 8.6001C11.71 8.5001 11.31 8.5001 11.11 8.5001C9.90996 8.5001 9.50996 9.1001 9.50996 9.8001ZM30.61 12.5001H29.61V12.1001C29.31 12.4001 29.01 12.5001 28.61 12.5001C27.91 12.5001 27.41 11.9001 27.41 10.9001C27.41 9.6001 28.21 8.5001 29.11 8.5001C29.51 8.5001 29.81 8.7001 30.11 9.0001L30.31 7.6001H31.31L30.61 12.5001ZM29.11 11.6001C29.61 11.6001 29.91 11.1001 29.91 10.3001C29.91 9.8001 29.71 9.5001 29.41 9.5001C28.91 9.5001 28.61 10.1001 28.61 10.8001C28.61 11.3001 28.81 11.6001 29.11 11.6001Z" fill="white"/>
<path fill-rule="evenodd" clip-rule="evenodd" d="M26.1094 8.6001C26.0094 9.8001 25.7094 11.0001 25.6094 12.3001V12.6001H26.6094C27.0094 10.2001 27.1094 9.7001 27.6094 9.8001C27.7094 9.3001 27.9094 8.9001 28.0094 8.7001C27.6094 8.6001 27.3094 8.9001 27.0094 9.3001C27.0094 9.1001 27.1094 8.9001 27.1094 8.7001H26.1094V8.6001ZM17.6094 8.6001C17.5094 9.8001 17.2094 11.0001 17.1094 12.3001V12.6001H18.1094C18.5094 10.2001 18.6094 9.7001 19.1094 9.8001C19.2094 9.3001 19.4094 8.9001 19.5094 8.7001C19.1094 8.6001 18.8094 8.9001 18.5094 9.3001C18.5094 9.1001 18.6094 8.9001 18.6094 8.7001H17.6094V8.6001ZM31.1094 12.2001C31.1094 12.0001 31.2094 11.9001 31.4094 11.9001C31.6094 11.9001 31.7094 12.0001 31.7094 12.2001C31.7094 12.4001 31.6094 12.5001 31.4094 12.5001C31.2094 12.5001 31.1094 12.4001 31.1094 12.2001ZM31.4094 12.4001C31.5094 12.4001 31.6094 12.3001 31.6094 12.2001C31.6094 12.1001 31.5094 12.0001 31.4094 12.0001C31.3094 12.0001 31.2094 12.1001 31.2094 12.2001C31.2094 12.3001 31.3094 12.4001 31.4094 12.4001ZM31.4094 12.3001L31.3094 12.0001H31.5094V12.3001H31.4094ZM31.4094 12.2001C31.4094 12.1001 31.4094 12.1001 31.4094 12.2001V12.2001Z" fill="white"/>
</g>
</g>
</g>
<defs>
<clipPath id="clip0_80_4741">
<rect width="32" height="19" fill="white" transform="translate(0.610352 0.5)"/>
</clipPath>
<clipPath id="clip1_80_4741">
<rect width="32" height="19" fill="white" transform="translate(0.610352 0.5)"/>
</clipPath>
<clipPath id="clip2_80_4741">
<rect width="32" height="19" fill="white" transform="translate(0.610352 0.5)"/>
</clipPath>
</defs>
</svg>
