<svg width="34" height="16" viewBox="0 0 34 16" fill="none" xmlns="http://www.w3.org/2000/svg">
<g clip-path="url(#clip0_80_4763)">
<g clip-path="url(#clip1_80_4763)">
<g clip-path="url(#clip2_80_4763)">
<path d="M7.88574 15.2825V7.78323H9.09646V8.34341C9.2591 8.07236 9.58437 7.89165 9.83735 7.8013C10.0903 7.71095 10.3614 7.6748 10.6325 7.6748C11.3011 7.6748 12.0058 7.89165 12.6021 8.50605C13.1443 9.06623 13.4153 9.73484 13.4153 10.548C13.4153 10.9094 13.343 11.2708 13.1985 11.6322C13.0539 11.9756 12.8732 12.2828 12.6202 12.5538C12.3492 12.8249 12.06 13.0417 11.7348 13.1863C11.4095 13.3309 11.1023 13.4031 10.6867 13.4031C10.3975 13.4031 10.1084 13.367 9.83735 13.2586C9.5663 13.1682 9.20489 12.9695 9.07839 12.7345V15.3367H7.88574M10.5782 8.72289C10.1446 8.72289 9.747 8.86746 9.4398 9.17465C9.11454 9.51799 8.98804 9.98783 8.98804 10.4757C8.98804 10.9817 9.11454 11.4877 9.42173 11.8129C9.747 12.1563 10.1265 12.2647 10.5782 12.2647C11.03 12.2647 11.4095 12.084 11.6986 11.7949C12.0239 11.4696 12.1865 11.0178 12.1865 10.5299C12.1865 10.0059 12.0239 9.53606 11.7167 9.19273C11.4456 8.9036 11.0661 8.72289 10.5782 8.72289Z" fill="#164193"/>
<path d="M21.6912 15.2825L22.7212 12.9152L20.3721 7.7832H21.6551L23.3176 11.6322L24.8535 7.7832H26.1366L22.9381 15.2825H21.6912Z" fill="#164193"/>
<path d="M18.457 13.2405V12.6803C18.3305 12.9153 17.9511 13.1321 17.6981 13.2044C17.427 13.2947 17.1379 13.3489 16.8488 13.3489C16.4512 13.3489 16.144 13.2767 15.8007 13.1321C15.4754 12.9875 15.1682 12.7888 14.9152 12.4996C14.6622 12.2466 14.4635 11.9394 14.337 11.5961C14.1924 11.2528 14.1201 10.8914 14.1201 10.5119C14.1201 9.71678 14.4092 9.0301 14.9333 8.46991C15.5115 7.87359 16.2344 7.63867 16.903 7.63867C17.174 7.63867 17.4451 7.67481 17.6981 7.76516C17.9511 7.85552 18.2763 8.03622 18.439 8.30728V7.74709H19.6497V13.2225H18.457M15.8007 9.19273C15.4754 9.53607 15.3308 10.0059 15.3308 10.5299C15.3308 11.0179 15.4935 11.4696 15.8187 11.7949C16.1079 12.084 16.4693 12.2647 16.9391 12.2647C17.3909 12.2647 17.7884 12.1382 18.0956 11.813C18.4209 11.4696 18.5293 10.9817 18.5293 10.4757C18.5293 10.0059 18.4028 9.518 18.0776 9.17466C17.7523 8.84939 17.3728 8.7229 16.9391 8.7229C16.4693 8.7229 16.0717 8.90361 15.8007 9.19273Z" fill="#164193"/>
<path d="M27.4015 4.2955L27.3292 0.645264H28.4857V5.25324H26.8233L25.6848 1.47651H25.6487L25.721 5.25324H24.5645V0.645264H26.2992L27.3654 4.2955H27.4015Z" fill="#164193"/>
<path d="M6.45795 1.07896L5.82548 5.30745H4.56055L5.42793 0.645264H7.48797L8.35535 5.30745H7.10849L6.47602 1.07896H6.45795Z" fill="#164193"/>
<path d="M11.8795 4.20515L12.4577 0.645264H14.3551L14.4636 5.30745H13.289L13.2528 1.1151H13.2348L12.4577 5.30745H11.2832L10.5061 1.1151H10.47L10.4519 5.30745H9.27734L9.38577 0.645264H11.2832L11.8614 4.20515H11.8795Z" fill="#164193"/>
<path d="M21.6376 4.6027C21.9628 4.6027 22.0532 4.38585 22.0893 4.27743C22.1074 4.22322 22.1074 4.15094 22.1074 4.09673V0.663334H23.282V4.00637C23.282 4.09673 23.2639 4.25936 23.2639 4.31357C23.1916 5.18095 22.4869 5.47008 21.6376 5.47008C20.7883 5.47008 20.1016 5.19903 20.0112 4.31357C20.0112 4.25936 19.9932 4.09673 19.9932 4.00637V0.645264H21.1677V4.07866C21.1677 4.13287 21.1677 4.20515 21.1858 4.25936C21.222 4.38585 21.3123 4.6027 21.6376 4.6027Z" fill="#164193"/>
<path d="M2.60889 3.98834C2.64503 4.09676 2.64503 4.24132 2.62696 4.33167C2.59082 4.49431 2.48239 4.63887 2.1752 4.63887C1.88607 4.63887 1.70536 4.47624 1.70536 4.22325V3.77149H0.44043V4.1329C0.44043 5.18099 1.2536 5.48819 2.12098 5.48819C2.9703 5.48819 3.65698 5.19906 3.7654 4.42203C3.81961 4.02448 3.78347 3.75342 3.7654 3.66307C3.56662 2.68726 1.79572 2.39813 1.66922 1.85602C1.65115 1.76567 1.65115 1.65724 1.66922 1.60303C1.70536 1.45847 1.81379 1.29583 2.10291 1.29583C2.37397 1.29583 2.53661 1.45847 2.53661 1.71145V2.00058H3.69312V1.67531C3.69312 0.663367 2.78959 0.500732 2.12098 0.500732C1.28974 0.500732 0.621135 0.77179 0.494641 1.53075C0.4585 1.7476 0.4585 1.9283 0.494641 2.16322C0.711487 3.12095 2.3559 3.39201 2.60889 3.98834Z" fill="#164193"/>
<path d="M17.7339 3.98833C17.7881 4.09675 17.7519 4.24131 17.7519 4.33167C17.7158 4.47623 17.6074 4.63886 17.3002 4.63886C17.0111 4.63886 16.8304 4.47623 16.8304 4.22324V3.77148H15.6016V4.13289C15.6016 5.16291 16.4147 5.47011 17.2821 5.47011C18.1134 5.47011 18.8 5.18098 18.9085 4.42202C18.9627 4.02447 18.9265 3.77148 18.9085 3.66306C18.7097 2.70532 16.9749 2.4162 16.8304 1.87408C16.8123 1.78373 16.8123 1.69338 16.8304 1.63916C16.8665 1.4946 16.9568 1.33197 17.246 1.33197C17.517 1.33197 17.6797 1.4946 17.6797 1.74759V2.03672H18.8362V1.69338C18.8362 0.6995 17.9327 0.536865 17.2821 0.536865C16.4689 0.536865 15.7823 0.807923 15.6738 1.56688C15.6377 1.76566 15.6377 1.94636 15.6738 2.18128C15.8545 3.12094 17.499 3.392 17.7339 3.98833Z" fill="#164193"/>
<path d="M31.3407 4.54852C31.684 4.54852 31.7925 4.33167 31.8105 4.20518C31.8105 4.15097 31.8286 4.07868 31.8286 4.02447V3.35586H31.3588V2.66919H33.0032V3.93412C33.0032 4.02447 33.0032 4.07868 32.9851 4.24132C32.9128 5.09063 32.1719 5.39783 31.3407 5.39783C30.5095 5.39783 29.7866 5.09063 29.7144 4.24132C29.6963 4.07868 29.6963 4.02447 29.6963 3.93412V1.98251C29.6963 1.89216 29.7144 1.74759 29.7144 1.67531C29.8228 0.807926 30.5275 0.518799 31.3407 0.518799C32.1719 0.518799 32.8948 0.789856 32.967 1.67531C32.9851 1.81987 32.967 1.98251 32.967 1.98251V2.12707H31.7925V1.87408C31.7925 1.87408 31.7925 1.76566 31.7744 1.69338C31.7925 1.58496 31.7021 1.35004 31.3407 1.35004C31.0154 1.35004 30.907 1.56689 30.8709 1.69338C30.8528 1.74759 30.8528 1.83794 30.8528 1.91023V4.04254C30.8528 4.09675 30.8528 4.16904 30.8528 4.22325C30.8889 4.34974 31.0154 4.54852 31.3407 4.54852Z" fill="#164193"/>
</g>
</g>
</g>
<defs>
<clipPath id="clip0_80_4763">
<rect width="33.33" height="15" fill="white" transform="translate(0.44043 0.5)"/>
</clipPath>
<clipPath id="clip1_80_4763">
<rect width="33.33" height="15" fill="white" transform="translate(0.44043 0.5)"/>
</clipPath>
<clipPath id="clip2_80_4763">
<rect width="33.33" height="14.9985" fill="white" transform="translate(0.44043 0.500732)"/>
</clipPath>
</defs>
</svg>
