<svg width="36" height="12" viewBox="0 0 36 12" fill="none" xmlns="http://www.w3.org/2000/svg">
<g clip-path="url(#clip0_80_4733)">
<g clip-path="url(#clip1_80_4733)">
<g clip-path="url(#clip2_80_4733)">
<path fill-rule="evenodd" clip-rule="evenodd" d="M12.0455 11.0183L13.6818 0.436444H16.5182L14.7727 11.0183H12.0455ZM24.7 0.654625C24.1546 0.436444 23.2818 0.218262 22.3 0.218262C19.5727 0.218262 17.7182 1.63644 17.7182 3.70917C17.7182 5.23644 19.0273 6.10917 20.1182 6.54553C21.2091 7.09099 21.5364 7.41826 21.5364 7.85462C21.5364 8.50917 20.6637 8.83644 19.9 8.83644C18.8091 8.83644 18.2637 8.72735 17.2818 8.29099L16.9546 8.07281L16.6273 10.4728C17.2818 10.8001 18.4818 11.0183 19.6818 11.0183C22.5182 11.0183 24.3727 9.60008 24.4818 7.41826C24.4818 6.21826 23.7182 5.34553 22.1909 4.5819C21.2091 4.14553 20.6637 3.81826 20.6637 3.27281C20.6637 2.83644 21.2091 2.40008 22.1909 2.40008C23.0637 2.40008 23.7182 2.61826 24.2637 2.83644L24.4818 2.94553L24.7 0.654625ZM31.6818 0.436444H29.6091C28.9546 0.436444 28.5182 0.654625 28.1909 1.30917L24.1546 11.0183H26.8818L27.4273 9.3819H30.9182C31.0273 9.70917 31.2455 11.0183 31.2455 11.0183H33.7546L31.6818 0.436444ZM28.3 7.20008C28.5182 6.54553 29.3909 4.25463 29.3909 4.25463L29.7182 3.27281L29.9364 4.14553C29.9364 4.14553 30.4818 6.65462 30.5909 7.20008H28.3ZM9.75456 0.436444L7.02729 7.63644L6.70002 6.21826C6.15456 4.5819 4.62729 2.72735 2.88184 1.74553L5.28184 11.0183H8.1182L12.3727 0.436444H9.75456Z" fill="#0023A0"/>
<path fill-rule="evenodd" clip-rule="evenodd" d="M4.62731 0.436523H0.263672V0.654705C3.64549 1.52743 5.9364 3.60016 6.91822 6.21834L5.9364 1.30925C5.60913 0.654705 5.17276 0.436523 4.62731 0.436523Z" fill="#FFA000"/>
<path fill-rule="evenodd" clip-rule="evenodd" d="M34.7366 9.70923C35.0638 9.70923 35.3911 9.92741 35.3911 10.3638C35.3911 10.691 35.1729 11.0183 34.7366 11.0183C34.4093 11.0183 34.082 10.8001 34.082 10.3638C34.1911 9.92741 34.4093 9.70923 34.7366 9.70923ZM34.7366 10.8001C35.0638 10.8001 35.1729 10.582 35.1729 10.2547C35.1729 9.92741 34.9548 9.70923 34.7366 9.70923C34.4093 9.70923 34.3002 9.92741 34.3002 10.2547C34.3002 10.582 34.5184 10.8001 34.7366 10.8001ZM34.5184 10.0365H34.7366C34.8457 10.0365 34.9548 10.0365 34.9548 10.2547C34.9548 10.2547 34.9548 10.3638 34.8457 10.3638C34.9548 10.3638 34.9548 10.4729 34.9548 10.4729V10.582H34.8457V10.4729C34.8457 10.3638 34.8457 10.3638 34.7366 10.3638H34.6275V10.582H34.5184V10.0365ZM34.6275 10.2547H34.7366C34.8457 10.2547 34.8457 10.2547 34.8457 10.1456C34.8457 10.0365 34.8457 10.0365 34.7366 10.0365H34.6275V10.2547Z" fill="#0023A0"/>
</g>
</g>
</g>
<defs>
<clipPath id="clip0_80_4733">
<rect width="34.91" height="12" fill="white" transform="translate(0.700195)"/>
</clipPath>
<clipPath id="clip1_80_4733">
<rect width="34.91" height="12" fill="white" transform="translate(0.700195)"/>
</clipPath>
<clipPath id="clip2_80_4733">
<rect width="34.9091" height="12" fill="white" transform="translate(0.700195)"/>
</clipPath>
</defs>
</svg>
