<svg width="20" height="14" viewBox="0 0 20 14" fill="none" xmlns="http://www.w3.org/2000/svg">
<g clip-path="url(#clip0_80_4789)">
<g clip-path="url(#clip1_80_4789)">
<g clip-path="url(#clip2_80_4789)">
<path fill-rule="evenodd" clip-rule="evenodd" d="M19.7824 12.2401C19.7594 12.1804 19.7381 12.1314 19.7182 12.0916C19.3901 11.38 18.7628 10.5062 17.8376 9.47039L17.8183 9.44618L17.8081 9.43471L17.7982 9.4227H17.7887C17.3686 8.94003 17.1024 8.6157 16.991 8.45008C16.7873 8.13376 16.7414 7.81307 16.8529 7.48892C16.9319 7.24358 17.2269 6.72615 17.7391 5.9348C18.0081 5.51601 18.2217 5.17967 18.3787 4.92669C19.5146 3.10739 20.0067 1.94494 19.8556 1.43879L19.7972 1.32067C19.7576 1.24969 19.6562 1.18417 19.4922 1.1252C19.3282 1.0655 19.1181 1.05549 18.862 1.09535L16.0262 1.11883C15.9807 1.09972 15.9147 1.10099 15.8297 1.1252C15.7442 1.14867 15.7011 1.16069 15.7011 1.16069L15.6522 1.19072L15.6132 1.22621C15.5802 1.24969 15.5442 1.29082 15.5046 1.35052C15.4657 1.40967 15.4327 1.47919 15.4067 1.55818C15.0975 2.51515 14.7471 3.4046 14.3529 4.22707C14.1098 4.71757 13.8867 5.14272 13.6833 5.50254C13.4796 5.86218 13.3091 6.12754 13.1717 6.29735C13.0336 6.46734 12.9091 6.60384 12.7975 6.70613C12.6854 6.80932 12.6005 6.85264 12.5415 6.83699C12.4824 6.82061 12.4264 6.80496 12.374 6.7893C12.2818 6.71832 12.2081 6.6215 12.1527 6.49865C12.0966 6.37634 12.0589 6.222 12.0394 6.03581C12.0199 5.85017 12.0081 5.69019 12.0045 5.55587C12.0016 5.42155 12.0033 5.231 12.0098 4.98639C12.0163 4.74105 12.0199 4.57469 12.0199 4.48806C12.0199 4.18721 12.0246 3.86088 12.0341 3.50907C12.0441 3.15707 12.0524 2.87843 12.0589 2.67295C12.0654 2.46747 12.0688 2.24997 12.0688 2.02029C12.0688 1.79133 12.0571 1.61151 12.0341 1.48065C12.0116 1.35052 11.9769 1.22402 11.9308 1.10099C11.8847 0.978684 11.8175 0.883497 11.729 0.816702C11.6405 0.749179 11.5308 0.695852 11.3997 0.655993C11.0517 0.561352 10.6085 0.510209 10.0704 0.501655C8.84966 0.486003 8.06541 0.581372 7.71723 0.786854C7.57917 0.873487 7.45471 0.992335 7.34323 1.14231C7.22526 1.31648 7.20865 1.41167 7.29369 1.42732C7.68778 1.49848 7.96632 1.66847 8.13096 1.93711L8.18987 2.07998C8.23594 2.18245 8.28201 2.36445 8.32748 2.62526C8.3734 2.88625 8.403 3.17491 8.41584 3.49123C8.44892 4.06854 8.44892 4.56268 8.41584 4.97437C8.38352 5.38515 8.35225 5.70584 8.32264 5.9348C8.29319 6.16449 8.24893 6.34995 8.18987 6.49282C8.13096 6.63515 8.09139 6.72178 8.0713 6.75381C8.05181 6.78512 8.03535 6.80496 8.02236 6.81278C7.93686 6.85264 7.84835 6.87248 7.75621 6.87248C7.66482 6.87248 7.55319 6.81715 7.42163 6.70613C7.29067 6.59529 7.15442 6.44313 7.01334 6.24894C6.87241 6.05565 6.71305 5.78483 6.53542 5.43648C6.35839 5.08867 6.17501 4.67789 5.98439 4.20286L5.82684 3.85888C5.72821 3.63774 5.59377 3.3156 5.42323 2.8919C5.2527 2.46892 5.10165 2.06014 4.97069 1.66411C4.91812 1.49848 4.83912 1.37199 4.73399 1.28445L4.68505 1.24896C4.65197 1.21765 4.59956 1.18417 4.52751 1.14795C4.455 1.11246 4.38008 1.08679 4.30093 1.07114L1.60333 1.09462C1.32781 1.09462 1.14066 1.16997 1.04217 1.31994L1.0026 1.3911C0.983113 1.43096 0.973145 1.49412 0.973145 1.58093C0.973145 1.66847 0.992629 1.77495 1.0322 1.90162C1.42629 3.01639 1.85407 4.09202 2.31719 5.1278C2.77986 6.16449 3.18165 6.99842 3.52272 7.63107C3.8644 8.26389 4.21181 8.86104 4.56648 9.42197C4.92114 9.98363 5.15588 10.3435 5.27037 10.502C5.38547 10.6605 5.4758 10.7784 5.54121 10.8574L5.78727 11.1424C5.94481 11.3323 6.17607 11.5598 6.4818 11.8242C6.78677 12.0894 7.12497 12.3504 7.49549 12.6077C7.86662 12.8644 8.29787 13.074 8.7906 13.2362C9.28272 13.3984 9.76185 13.4637 10.228 13.4317H11.3603C11.5897 13.4082 11.7639 13.3208 11.8818 13.1709L11.9208 13.1119C11.9472 13.0642 11.972 12.9909 11.9945 12.892C12.0175 12.7934 12.0293 12.6846 12.0293 12.5659C12.0228 12.2259 12.0441 11.9196 12.093 11.6466C12.1419 11.3743 12.198 11.1688 12.2607 11.0301C12.3232 10.8915 12.3933 10.775 12.4724 10.6803C12.5508 10.5852 12.607 10.5282 12.64 10.5083C12.6724 10.4883 12.6984 10.4749 12.7185 10.4663C12.8761 10.4031 13.0612 10.465 13.2748 10.6505C13.488 10.8369 13.6879 11.0656 13.8756 11.3386C14.0626 11.6116 14.2875 11.9181 14.5494 12.2579C14.8125 12.5977 15.0421 12.8509 15.2385 13.0173L15.4356 13.1594C15.5672 13.2548 15.7377 13.3414 15.9478 13.4204C16.1578 13.4999 16.3413 13.5199 16.4988 13.4801L19.0196 13.4324C19.2685 13.4324 19.4626 13.3827 19.6001 13.2839C19.7381 13.1851 19.8197 13.0762 19.8461 12.9583C19.8727 12.8394 19.8739 12.7051 19.8514 12.5544C19.8278 12.4045 19.8049 12.2993 19.7824 12.2401Z" fill="#7096C3"/>
</g>
</g>
</g>
<defs>
<clipPath id="clip0_80_4789">
<rect width="19" height="13" fill="white" transform="translate(0.979492 0.5)"/>
</clipPath>
<clipPath id="clip1_80_4789">
<rect width="19" height="13" fill="white" transform="translate(0.979492 0.5)"/>
</clipPath>
<clipPath id="clip2_80_4789">
<rect width="19" height="13" fill="white" transform="translate(0.979492 0.5)"/>
</clipPath>
</defs>
</svg>
