<svg width="32" height="32" viewBox="0 0 32 32" fill="none" xmlns="http://www.w3.org/2000/svg">
<g clip-path="url(#clip0_80_3584)">
<path d="M1.56279 32.0002C1.25372 32.0003 0.951566 31.9087 0.694561 31.737C0.437556 31.5653 0.237241 31.3212 0.118955 31.0357C0.000669323 30.7501 -0.0302739 30.4359 0.0300396 30.1328C0.0903531 29.8297 0.239214 29.5512 0.457792 29.3327L29.3328 0.457706C29.6259 0.164642 30.0233 0 30.4378 0C30.8522 0 31.2497 0.164642 31.5428 0.457706C31.8359 0.75077 32.0005 1.14825 32.0005 1.56271C32.0005 1.97716 31.8359 2.37464 31.5428 2.66771L2.66779 31.5427C2.52281 31.688 2.35056 31.8032 2.16093 31.8817C1.9713 31.9602 1.76803 32.0005 1.56279 32.0002Z" fill="#C6A26E"/>
<path d="M30.4377 32.0002C30.2325 32.0005 30.0292 31.9602 29.8396 31.8817C29.6499 31.8032 29.4777 31.688 29.3327 31.5427L0.457706 2.66771C0.164642 2.37464 0 1.97716 0 1.56271C0 1.14825 0.164642 0.75077 0.457706 0.457706C0.75077 0.164642 1.14825 0 1.56271 0C1.97716 0 2.37464 0.164642 2.66771 0.457706L31.5427 29.3327C31.7613 29.5512 31.9101 29.8297 31.9705 30.1328C32.0308 30.4359 31.9998 30.7501 31.8815 31.0357C31.7633 31.3212 31.5629 31.5653 31.3059 31.737C31.0489 31.9087 30.7468 32.0003 30.4377 32.0002Z" fill="#C6A26E"/>
</g>
<defs>
<clipPath id="clip0_80_3584">
<rect width="32" height="32" fill="white"/>
</clipPath>
</defs>
</svg>
