<svg width="41" height="41" viewBox="0 0 41 41" fill="none" xmlns="http://www.w3.org/2000/svg">
<path d="M7.32482 34.7783C7.45257 35.7879 7.94389 36.7164 8.70681 37.3899C9.46974 38.0635 10.452 38.4359 11.4697 38.4375H29.5353C30.553 38.4359 31.5352 38.0635 32.2981 37.3899C33.0611 36.7164 33.5524 35.7879 33.6801 34.7783L35.8583 17.3968C35.9316 16.809 35.8792 16.2123 35.7044 15.6462C35.5296 15.0802 35.2364 14.5579 34.8443 14.1138C34.4522 13.6697 33.9702 13.3141 33.4302 13.0705C32.8902 12.827 32.3045 12.701 31.7121 12.701H29.0228V11.0854C28.9682 8.86183 28.0466 6.7477 26.4547 5.19434C24.8628 3.64098 22.7267 2.77148 20.5025 2.77148C18.2783 2.77148 16.1422 3.64098 14.5502 5.19434C12.9583 6.7477 12.0367 8.86183 11.9822 11.0854V12.701H9.29794C8.70555 12.701 8.11992 12.827 7.57991 13.0705C7.0399 13.3141 6.55786 13.6697 6.16577 14.1138C5.77368 14.5579 5.4805 15.0802 5.30569 15.6462C5.13088 16.2123 5.07843 16.809 5.15182 17.3968L7.32482 34.7783ZM14.5395 11.0854C14.585 9.53552 15.2326 8.06437 16.345 6.98417C17.4573 5.90398 18.9468 5.29976 20.4973 5.29976C22.0479 5.29976 23.5374 5.90398 24.6497 6.98417C25.7621 8.06437 26.4097 9.53552 26.4552 11.0854V12.701H14.5395V11.0854ZM8.08716 15.8093C8.23776 15.6365 8.42391 15.4983 8.63289 15.4041C8.84186 15.3099 9.06872 15.2619 9.29794 15.2635H11.977V18.3219C11.977 18.6617 12.112 18.9876 12.3523 19.2279C12.5926 19.4681 12.9185 19.6031 13.2583 19.6031C13.5981 19.6031 13.924 19.4681 14.1643 19.2279C14.4045 18.9876 14.5395 18.6617 14.5395 18.3219V15.2635H26.4552V18.3219C26.4552 18.6617 26.5901 18.9876 26.8304 19.2279C27.0707 19.4681 27.3966 19.6031 27.7364 19.6031C28.0762 19.6031 28.4021 19.4681 28.6424 19.2279C28.8827 18.9876 29.0177 18.6617 29.0177 18.3219V15.2635H31.6968C31.9268 15.262 32.1545 15.3095 32.3647 15.403C32.5749 15.4964 32.7627 15.6337 32.9156 15.8055C33.0685 15.9774 33.183 16.1798 33.2515 16.3995C33.3199 16.6191 33.3407 16.8508 33.3124 17.0791L31.1343 34.4656C31.0836 34.8553 30.8928 35.2131 30.5977 35.4725C30.3025 35.7318 29.9231 35.8749 29.5302 35.875H11.4697C11.0768 35.8749 10.6973 35.7318 10.4021 35.4725C10.107 35.2131 9.91624 34.8553 9.86554 34.4656L7.69382 17.0791C7.66448 16.8516 7.68443 16.6205 7.7523 16.4014C7.82017 16.1823 7.93437 15.9804 8.08716 15.8093Z" fill="#C6A26E"/>
</svg>
