<svg width="30" height="36" viewBox="0 0 30 36" fill="none" xmlns="http://www.w3.org/2000/svg">
<g clip-path="url(#clip0_44_220)">
<path d="M2.32884 19.7762C3.38484 20.1602 3.86484 16.8962 4.82484 17.0882C5.78484 17.1842 7.41684 21.4082 8.66484 20.0642C9.91284 18.7202 8.56884 14.1122 10.3928 13.9202C12.2168 13.7282 15.5768 17.8562 16.4408 14.8802C17.2088 11.9042 16.3448 10.4642 17.8808 10.2722C19.4168 10.0802 22.0088 10.4642 19.5128 8.7362C17.0168 7.0082 9.62484 5.9522 5.20884 11.2322C0.792837 16.5122 2.32884 19.7762 2.32884 19.7762Z" fill="#00B692"/>
<path d="M3.19205 19.5838C4.15205 17.8558 3.67205 16.8958 5.59205 18.9118C7.51205 20.9278 8.47205 20.7358 8.76006 19.2958C9.04806 17.8558 8.56806 15.2638 9.91206 14.4958C11.2561 13.7278 13.0801 14.0158 14.4241 15.0718C15.7681 16.1278 16.7281 16.5118 16.4401 14.2078C16.1521 11.9038 15.1921 10.7518 17.1121 10.3678C19.0321 9.98384 21.0481 9.59984 22.6801 12.0958C24.3121 14.5918 25.4641 18.0478 25.9441 21.5998C26.4241 25.1518 29.1121 27.8398 27.7681 30.5278C26.4241 33.2158 24.4081 36.0958 19.8001 34.8478C15.1921 33.5998 12.4081 31.2958 9.04805 30.2398C5.68805 29.1838 3.48005 26.4958 2.90405 24.3838C2.32805 22.2718 3.19205 19.5838 3.19205 19.5838Z" fill="#FF5F6B"/>
<path d="M1.94434 21.4082C2.23234 22.3682 3.00034 24.6722 3.57634 25.7282C6.74434 31.2002 11.2563 30.2402 15.4803 33.0242C18.2643 34.8482 23.6403 36.8642 26.4243 33.0242" stroke="black" stroke-width="1.536" stroke-miterlimit="10" stroke-linecap="round" stroke-linejoin="round"/>
<path d="M26.3287 33.1198C28.1527 30.5278 29.3047 28.3198 26.5207 23.5198C24.9847 20.8318 26.2327 16.3198 21.7207 10.6558" stroke="black" stroke-width="1.536" stroke-miterlimit="10" stroke-linecap="round" stroke-linejoin="round"/>
<path d="M19.1275 25.4401C18.8395 24.9601 18.3595 24.6721 17.8795 24.4801C17.3035 24.2881 16.9195 24.6721 17.1115 25.2481C17.3035 25.9201 17.9755 26.5921 18.5515 26.7841C18.5515 26.7841 18.5515 26.7841 18.6475 26.7841C18.2635 26.4961 17.8795 26.2081 17.4955 25.8241C17.7835 26.3041 18.5515 26.9761 19.1275 26.7841C19.7995 26.6881 19.3195 25.8241 19.1275 25.4401Z" fill="black"/>
<path d="M22.4879 21.984C22.4879 20.352 20.5679 19.584 20.5679 21.504C20.4719 23.136 22.3919 24 22.4879 21.984Z" fill="black"/>
<path d="M20.664 18.0481C21.72 16.8001 20.76 14.9761 19.416 16.5121C18.36 17.6641 19.32 19.5841 20.664 18.0481Z" fill="black"/>
<path d="M24.0237 29.7601C23.2557 28.2241 21.1437 28.6081 22.0077 30.4321C22.7757 31.9681 24.8877 31.5841 24.0237 29.7601Z" fill="black"/>
<path d="M15.1916 21.6002C16.3436 20.3522 15.1916 18.5282 13.8476 19.9682C12.5996 21.3122 13.8476 23.1362 15.1916 21.6002Z" fill="black"/>
<path d="M13.6563 25.728C13.8483 26.112 14.0403 26.496 14.2323 26.88C14.1363 26.496 13.8483 25.44 13.2723 25.632C12.6963 25.824 12.8883 26.88 12.9843 27.264C13.0803 27.648 13.2723 28.224 13.6563 28.416C14.6163 28.992 14.3283 26.112 13.6563 25.728Z" fill="black"/>
<path d="M7.31989 24.384C7.22389 24.384 7.22389 24.384 7.31989 24.384C7.70389 24.576 8.08789 24.768 8.56789 24.96C8.27989 24.768 7.22389 24 6.83989 24.48C6.45589 24.96 7.31989 25.728 7.60789 25.92C7.99189 26.208 8.56789 26.592 9.04789 26.496C10.3919 26.496 8.18389 24.288 7.31989 24.384Z" fill="black"/>
<path d="M24.8878 26.5919C25.0798 25.3439 23.6398 23.2319 23.2558 25.1519C23.0638 26.3039 24.5038 28.5119 24.8878 26.5919Z" fill="black"/>
<path d="M19.3202 30.1442C19.8962 30.5282 20.1842 31.2962 19.8962 31.7762C19.6082 32.2562 18.9362 32.2562 18.2642 31.8722C17.6882 31.4882 17.4002 30.7202 17.6882 30.2402C17.9762 29.7602 18.7442 29.7602 19.3202 30.1442Z" fill="black"/>
<path d="M2.32878 22.7519C2.32878 22.7519 2.71278 20.5439 3.48078 19.1039C3.96078 18.2399 5.01678 17.1839 5.01678 17.1839C5.01678 17.1839 5.30478 18.2399 6.36078 19.2959C7.41678 20.3519 8.66478 20.8319 8.66478 20.8319C8.66478 20.8319 8.66478 18.8159 8.95278 17.0879C9.24078 15.2639 10.3928 14.3039 10.3928 14.3039C10.3928 14.3039 11.4488 13.9199 13.1768 14.7839C14.9048 15.6479 16.2488 16.5119 16.2488 16.5119C16.2488 16.5119 17.1128 15.3599 16.6328 13.1519C16.4408 12.4799 15.7688 11.3279 15.7688 11.3279C15.7688 11.3279 16.8248 10.6559 18.4568 10.4639C20.0888 10.2719 21.7208 10.6559 21.7208 10.6559C21.7208 10.6559 16.0568 3.26394 6.84078 10.1759C-0.647223 15.6479 2.32878 22.7519 2.32878 22.7519Z" stroke="black" stroke-width="1.536" stroke-miterlimit="10" stroke-linecap="round" stroke-linejoin="round"/>
<path d="M7.12797 9.79207C7.12797 9.79207 3.95997 3.36007 12.024 0.768066" stroke="black" stroke-width="1.536" stroke-miterlimit="10" stroke-linecap="round" stroke-linejoin="round"/>
</g>
<defs>
<clipPath id="clip0_44_220">
<rect width="28.032" height="36" fill="white" transform="translate(0.984375)"/>
</clipPath>
</defs>
</svg>
