<svg width="22" height="40" viewBox="0 0 22 40" fill="none" xmlns="http://www.w3.org/2000/svg">
<g clip-path="url(#clip0_44_272)">
<path fill-rule="evenodd" clip-rule="evenodd" d="M11.8413 16.8268L14.8123 0.789551L17.3825 1.43212L14.4649 16.8268H11.8413Z" fill="#FFEAA7"/>
<path fill-rule="evenodd" clip-rule="evenodd" d="M5.81634 9.78561H3.24606C1.82663 9.78561 0.675781 8.63476 0.675781 7.21533H3.24606C4.6658 7.21533 5.81634 8.36619 5.81634 9.78561Z" fill="#A0D468"/>
<path fill-rule="evenodd" clip-rule="evenodd" d="M16.9324 39.3439H6.26691C5.27984 39.3439 4.45309 38.5991 4.34955 37.618L1.96094 14.9263H21.238L18.8491 37.618C18.7462 38.5991 17.9195 39.3439 16.9324 39.3439Z" fill="#E6E9ED"/>
<path fill-rule="evenodd" clip-rule="evenodd" d="M2.60352 20.7094C2.60352 20.7094 4.53123 18.7817 7.74408 18.7817C10.9569 18.7817 16.0975 21.352 20.5955 21.352L19.135 35.2598C18.6552 36.1795 17.6976 36.7737 16.6362 36.7737H6.5631C5.50167 36.7737 4.54346 36.1795 4.06373 35.2598L2.60352 20.7094Z" fill="#B4DD7F"/>
<path fill-rule="evenodd" clip-rule="evenodd" d="M13.6582 7.13652L16.6404 5.32961L17.2438 2.16162L14.2352 3.96289L13.6582 7.13652Z" fill="#B4DD7F"/>
<path fill-rule="evenodd" clip-rule="evenodd" d="M16.0323 8.52246L13.082 10.3093L12.5044 13.4836L15.4211 11.73L16.0323 8.52246Z" fill="#B4DD7F"/>
<path fill-rule="evenodd" clip-rule="evenodd" d="M9.67181 12.3559C9.67181 13.7754 8.52127 14.9262 7.10153 14.9262C5.6821 14.9262 4.53125 13.7754 4.53125 12.3559C4.53125 10.9365 5.6821 9.78564 7.10153 9.78564C8.52127 9.78564 9.67181 10.9365 9.67181 12.3559Z" fill="#FFC729"/>
<path d="M15.5895 14.2837L18.1281 0.956012L14.3034 0L11.7061 14.2837H9.65576C10.0633 13.7453 10.3143 13.082 10.3143 12.356C10.3143 10.5845 8.87325 9.14314 7.10148 9.14314C6.98162 9.14314 6.8671 9.16573 6.75007 9.17859C6.14044 7.36697 5.81634 5.45808 5.81634 3.54763V3.36H4.5312V3.54763C4.5312 4.71323 4.64634 5.8782 4.86158 7.02466C4.38499 6.74448 3.83748 6.57285 3.24605 6.57285H0.0332031V7.21542C0.0332031 8.98689 1.47459 10.4283 3.24605 10.4283H4.54814C4.13994 10.9667 3.88862 11.63 3.88862 12.356C3.88862 13.082 4.13994 13.7453 4.54814 14.2837H1.24775L3.71073 37.6861C3.84909 38.9976 4.94849 39.9865 6.26752 39.9865H16.933C18.2526 39.9865 19.3517 38.9969 19.4892 37.6854L21.9515 14.2837H15.5895ZM19.9858 20.6862C19.1905 20.6451 18.3716 20.5321 17.5473 20.3709L17.9712 15.5688H20.5249L19.9858 20.6862ZM18.466 35.1249C18.0685 35.748 17.3854 36.1311 16.6362 36.1311H16.1568L16.6625 30.4044L15.3824 30.2915L14.8666 36.1311H6.56307C5.8132 36.1311 5.13015 35.7474 4.73263 35.1242L3.24605 20.9999C3.77693 20.5654 5.39371 19.4243 7.74405 19.4243C9.1252 19.4243 10.982 19.9583 12.9483 20.523C13.9758 20.8186 15.063 21.127 16.1677 21.3881L15.5522 28.3638L16.832 28.4767L17.4334 21.6585C18.2432 21.8119 19.0527 21.9227 19.8509 21.9676L18.466 35.1249ZM14.8158 4.36433L16.345 3.4466L16.0592 4.94729L14.5444 5.85561L14.8158 4.36433ZM14.2388 7.53796L15.7373 6.63906L15.4511 8.13881L13.9674 9.02861L14.2388 7.53796ZM13.6618 10.711L15.1292 9.83057L14.8434 11.3309L13.3904 12.2026L13.6618 10.711ZM16.478 1.86872L15.1217 2.68198L15.3222 1.57944L16.478 1.86872ZM13.0845 13.8852L14.5208 13.0237L14.2805 14.2837H13.0114L13.0845 13.8852ZM1.42847 7.85799H3.24605C4.08409 7.85799 4.79851 8.39514 5.06395 9.14314H3.24605C2.40833 9.14314 1.69391 8.60599 1.42847 7.85799ZM5.17377 12.356C5.17377 11.7115 5.49442 11.1433 5.98168 10.7932C6.15049 11.2014 6.32933 11.6055 6.52668 12.0005L7.67596 11.4254C7.51406 11.1022 7.3644 10.7728 7.22321 10.4399C8.2288 10.5048 9.02919 11.335 9.02919 12.356C9.02919 13.4187 8.16448 14.2837 7.10148 14.2837C6.03879 14.2837 5.17377 13.4187 5.17377 12.356ZM16.681 15.5688L16.2819 20.0944C15.2641 19.8491 14.2573 19.5623 13.3032 19.2881C11.2474 18.697 9.30623 18.1391 7.74405 18.1391C5.62306 18.1391 4.02574 18.9103 3.09075 19.5225L2.67439 15.5688H16.681ZM16.9324 38.7014H6.26689C5.60769 38.7014 5.05768 38.2066 4.98834 37.5511L4.93029 37.0005C5.42383 37.2647 5.9798 37.4162 6.56307 37.4162H16.6362C17.2194 37.4162 17.7754 37.2653 18.2683 37.0011L18.2103 37.5511C18.1416 38.2066 17.5916 38.7014 16.9324 38.7014Z" fill="black"/>
</g>
<defs>
<clipPath id="clip0_44_272">
<rect width="22" height="40" fill="white"/>
</clipPath>
</defs>
</svg>
