<svg width="40" height="30" viewBox="0 0 40 30" fill="none" xmlns="http://www.w3.org/2000/svg">
<g clip-path="url(#clip0_44_158)">
<path d="M38.3319 13.2333C38.3319 11.5548 37.6251 10.2297 36.565 9.16953C36.83 9.69959 35.7699 10.053 34.1797 10.1413C35.1515 9.78794 35.5932 9.43456 35.5932 9.08119C35.5049 8.02107 23.1368 3.25051 20.3098 2.0137C17.5711 0.776894 6.17482 6.43088 3.78954 7.57935C2.81776 8.10941 2.55273 8.63947 2.9061 9.25788C0.344141 8.9045 1.31592 11.6432 1.22758 14.4701C1.13923 17.5622 4.05457 25.0714 5.11469 27.28C6.17482 29.5769 33.0313 28.6051 35.7699 28.6935C38.5969 28.7818 36.9184 24.1879 36.83 22.156C36.6533 20.1241 38.1552 18.8873 38.3319 13.2333Z" fill="#FFC259"/>
<path d="M33.2959 7.40282C34.4444 7.84453 35.2395 8.19791 35.7695 8.55128C33.5609 6.87276 31.264 6.60772 33.2959 7.40282Z" fill="#FFC259"/>
<path d="M35.6816 8.46289C35.9467 8.72792 36.3 8.90461 36.5651 9.16964C36.4767 8.99295 36.2117 8.72792 35.6816 8.46289Z" fill="#FFC259"/>
<path d="M1.93429 8.9043C1.93429 8.9043 0.785823 11.1129 1.49257 16.3252C2.19932 21.5374 5.55638 28.0749 5.55638 28.0749L36.7417 28.6933L37.2717 24.8945C37.2717 24.8945 33.0312 24.8061 33.3846 20.919C33.738 16.9436 38.3318 16.9436 38.3318 16.9436L38.7736 10.1411C38.7736 10.1411 23.1367 10.1411 14.9208 10.1411C6.70484 10.1411 4.05454 9.69939 1.93429 8.9043Z" stroke="black" stroke-width="1.4135" stroke-miterlimit="10" stroke-linecap="round" stroke-linejoin="round"/>
<path d="M38.7729 10.141C38.7729 10.141 31.8821 7.314 26.0514 4.57535C20.2207 1.8367 18.5422 1.30664 18.5422 1.30664C18.5422 1.30664 12.7115 3.33854 1.93359 8.90419" stroke="black" stroke-width="1.4135" stroke-miterlimit="10" stroke-linecap="round" stroke-linejoin="round"/>
<path d="M8.47131 19.1525C10.3254 19.1525 11.8284 17.8472 11.8284 16.2371C11.8284 14.627 10.3254 13.3218 8.47131 13.3218C6.61726 13.3218 5.11426 14.627 5.11426 16.2371C5.11426 17.8472 6.61726 19.1525 8.47131 19.1525Z" stroke="black" stroke-width="1.4135" stroke-miterlimit="10" stroke-linecap="round" stroke-linejoin="round"/>
<path d="M23.402 10.4062C23.4903 10.7596 23.5786 11.113 23.5786 11.5547C23.5786 13.6749 21.7234 15.3535 19.3381 15.3535C16.9529 15.3535 15.0977 13.6749 15.0977 11.5547C15.0977 11.113 15.186 10.7596 15.3627 10.3179" stroke="black" stroke-width="1.4135" stroke-miterlimit="10" stroke-linecap="round" stroke-linejoin="round"/>
<path d="M25.2567 24.188C26.818 24.188 28.0837 23.0805 28.0837 21.7143C28.0837 20.3482 26.818 19.2407 25.2567 19.2407C23.6954 19.2407 22.4297 20.3482 22.4297 21.7143C22.4297 23.0805 23.6954 24.188 25.2567 24.188Z" stroke="black" stroke-width="1.4135" stroke-miterlimit="10" stroke-linecap="round" stroke-linejoin="round"/>
<path d="M15.0089 25.0712C16.1799 25.0712 17.1292 24.201 17.1292 23.1276C17.1292 22.0542 16.1799 21.1841 15.0089 21.1841C13.8379 21.1841 12.8887 22.0542 12.8887 23.1276C12.8887 24.201 13.8379 25.0712 15.0089 25.0712Z" stroke="black" stroke-width="1.4135" stroke-miterlimit="10" stroke-linecap="round" stroke-linejoin="round"/>
<path d="M8.38281 9.78788L22.3411 3.16211" stroke="black" stroke-width="1.4135" stroke-miterlimit="10" stroke-linecap="round" stroke-linejoin="round"/>
<path d="M16.0693 10.1411L26.6706 5.10547" stroke="black" stroke-width="1.4135" stroke-miterlimit="10" stroke-linecap="round" stroke-linejoin="round"/>
<path d="M24.9033 10.053L31.1757 7.04932" stroke="black" stroke-width="1.4135" stroke-miterlimit="10" stroke-linecap="round" stroke-linejoin="round"/>
<path d="M38.3312 16.9438C38.3312 16.9438 35.0625 20.0359 37.271 24.8948" stroke="black" stroke-width="1.4135" stroke-miterlimit="10" stroke-linecap="round" stroke-linejoin="round"/>
</g>
<defs>
<clipPath id="clip0_44_158">
<rect width="38.9595" height="28.8" fill="white" transform="translate(0.520508 0.600098)"/>
</clipPath>
</defs>
</svg>
