<svg width="36" height="40" viewBox="0 0 36 40" fill="none" xmlns="http://www.w3.org/2000/svg">
<g clip-path="url(#clip0_44_104)">
<path fill-rule="evenodd" clip-rule="evenodd" d="M18.0931 9C19.1011 8.96513 20.0098 8.41753 20.3575 7.53503C20.8296 6.33756 20.0901 4.97806 18.7059 4.49813C18.4075 4.39471 17.8435 4.24821 17.8607 4.20514C18.3325 3.00767 17.5929 1.64817 16.2087 1.16825C14.8248 0.688321 13.32 1.27021 12.8482 2.46768C12.8313 2.51075 12.3014 2.27811 12.003 2.17439C10.6188 1.69476 9.11398 2.27635 8.64216 3.47382C8.32283 4.28454 8.55905 5.16938 9.1746 5.80548" fill="#FF5046"/>
<path fill-rule="evenodd" clip-rule="evenodd" d="M4.5 21.1317C4.5 23.6706 5.18316 25.9255 6.40376 27.7491C6.91676 28.1928 7.39974 28.7424 7.81217 29.384C7.98265 29.2374 8.1683 29.1206 8.36632 29.038C9.85115 28.4177 12.2432 29.6243 13.6701 31.9997C14.3477 30.0768 15.7076 28.7752 16.9999 28.7752C18.2926 28.7752 19.6525 30.0771 20.3297 32C21.757 29.6243 24.149 28.4174 25.6339 29.038C25.6698 29.0529 25.705 29.069 25.74 29.0863C29.1806 25.5279 29.5887 20.1028 29.4866 16.9293C29.1329 16.8219 28.8108 16.6993 28.5543 16.5627C28.3758 16.4677 28.2291 16.3664 28.1255 16.2589C28.0209 16.1606 27.9179 16.0337 27.8173 15.885C25.9303 17.4956 23.4959 18.4058 20.9479 18.4058H16.0569C16.0569 18.4058 17.1373 12.9819 17.4377 11.4463C17.5021 11.1161 17.5361 10.7753 17.5361 10.4269C17.5361 7.42969 15.0482 5 11.9792 5C8.91025 5 6.42233 7.42969 6.42233 10.4269V10.4363C6.42264 11.042 6.12654 11.6114 5.62623 11.9662L5.00185 12.4092C5.90965 13.0824 6.23607 13.3233 5.79981 14.3546C5.19678 15.7794 4.5 18.0853 4.5 21.1317Z" fill="#FFD170"/>
<path fill-rule="evenodd" clip-rule="evenodd" d="M28.5 16.2502C29.5184 16.7429 31.6158 17.0299 32.4792 16.9975C33.2356 16.9683 33.8843 16.6561 34.2306 16.2111C34.4134 15.9771 34.5121 15.7063 34.4988 15.4211C34.4607 14.6131 33.5363 13.988 32.4174 14.0002" fill="#F7BB50"/>
<path fill-rule="evenodd" clip-rule="evenodd" d="M28.5 16C28.6511 15.9744 28.8158 15.929 28.9886 15.8681C30.0105 15.5086 31.3187 14.6033 31.8466 14.0401C32.5158 13.3274 32.6786 12.3694 32.2997 11.7105C32.2285 11.586 32.1375 11.4726 32.0272 11.3734C31.4094 10.8164 30.3857 10.897 29.6078 11.5188" fill="#E6E6E6"/>
<path fill-rule="evenodd" clip-rule="evenodd" d="M29.4996 12.2365C29.5107 13.0876 29.3007 14.9791 28.9039 16.1053C28.7182 16.6344 28.4908 16.9948 28.2264 16.9999C27.3983 17.0163 26.5169 13.5457 26.5003 12.2947C26.4837 11.0434 27.1416 10.0166 27.9697 10.0002C28.0879 9.99767 28.2032 10.0166 28.3135 10.0537C28.9799 10.2749 29.4853 11.1638 29.4996 12.2365Z" fill="#F7BB50"/>
<path fill-rule="evenodd" clip-rule="evenodd" d="M12.833 12H12.167C11.7986 12 11.5 11.5523 11.5 11C11.5 10.4477 11.7986 10 12.167 10H12.833C13.2014 10 13.5 10.4477 13.5 11C13.5 11.5523 13.2014 12 12.833 12Z" fill="black"/>
<path fill-rule="evenodd" clip-rule="evenodd" d="M19.4587 21H10.5229C10.1025 27.4987 15.6152 27.968 15.6451 27.9709C18.263 28.2294 20.668 26.7423 21.5962 24.4766C21.7009 24.4963 21.8071 24.5126 21.9127 24.5229C22.36 24.5671 22.8173 24.5243 23.2545 24.3909C24.4286 24.0318 25.2527 23.0995 25.5 21" fill="#F7BB50"/>
<path fill-rule="evenodd" clip-rule="evenodd" d="M22.5 22C22.4352 22 22.3691 21.9941 22.3051 21.9812C22.241 21.968 22.1781 21.9492 22.1172 21.9242C22.057 21.8992 21.9992 21.8679 21.9453 21.832C21.8902 21.7949 21.8391 21.7531 21.793 21.7069C21.607 21.521 21.5 21.2638 21.5 20.9997C21.5 20.7367 21.607 20.4785 21.793 20.2925C21.8391 20.2464 21.8902 20.2046 21.9453 20.1686C21.9992 20.1327 22.057 20.1014 22.1172 20.0764C22.1781 20.0514 22.241 20.0326 22.3051 20.0193C22.4332 19.9936 22.566 19.9936 22.6953 20.0193C22.759 20.0326 22.8223 20.0514 22.882 20.0764C22.943 20.1014 23.0012 20.1327 23.0551 20.1686C23.1102 20.2046 23.1609 20.2464 23.207 20.2925C23.393 20.4785 23.5 20.7367 23.5 20.9997C23.5 21.2638 23.393 21.521 23.207 21.7069C23.1609 21.7531 23.1102 21.7949 23.0551 21.832C23.0012 21.8679 22.943 21.8992 22.882 21.9242C22.8219 21.9492 22.759 21.968 22.6953 21.9812C22.6309 21.9941 22.5652 22 22.5 22Z" fill="black"/>
<path fill-rule="evenodd" clip-rule="evenodd" d="M8.5 28.901C7.05497 26.6746 4.74944 25.5616 3.30193 26.1605C1.62258 26.8551 0.852519 29.9554 2.15802 32.934C3.46352 35.9127 5.79453 36.4222 7.49159 35.7201C7.65877 35.6506 7.82161 35.5691 7.97792 35.4752" fill="#E6E6E6"/>
<path fill-rule="evenodd" clip-rule="evenodd" d="M14.2107 32.1068C12.8616 29.7437 10.6 28.5434 9.1962 29.1605C7.61539 29.8551 6.89051 32.9554 8.11941 35.934C9.34832 38.9127 11.5426 39.4222 13.14 38.7201C13.6625 38.4903 14.1387 38.1233 14.5 37.6291" fill="#FCC595"/>
<path fill-rule="evenodd" clip-rule="evenodd" d="M27.0221 35.4754C27.1784 35.5693 27.3412 35.6508 27.5084 35.7202C29.2055 36.4221 31.5365 35.9125 32.842 32.9342C34.1475 29.9555 33.3774 26.8554 31.6981 26.1605C30.2506 25.5616 27.945 26.6746 26.5 28.901" fill="#E6E6E6"/>
<path fill-rule="evenodd" clip-rule="evenodd" d="M20.5 37.6293C20.8613 38.1235 21.3375 38.4906 21.8602 38.7201C23.4576 39.4222 25.6518 38.9127 26.8807 35.9342C28.1095 32.9555 27.3844 29.8551 25.8039 29.1605C24.4001 28.5434 22.1384 29.7437 20.7893 32.1069" fill="#FCC595"/>
<path fill-rule="evenodd" clip-rule="evenodd" d="M17 39C18.7063 39 20.5 37.5644 20.5 34.137C20.5 30.7096 18.6882 28 17 28C15.3118 28 13.5 30.7096 13.5 34.137C13.5 37.5644 15.294 39 17 39Z" fill="#E6E6E6"/>
<path d="M35.498 15.4419C35.4551 14.4156 34.7126 13.5654 33.67 13.2175C33.8155 12.5775 33.747 11.9235 33.4429 11.3825C33.3297 11.1807 33.186 10.9985 33.0155 10.8411C32.3574 10.2341 31.4061 10.0952 30.5108 10.4123C30.1741 9.70673 29.5963 9.17481 28.8916 8.98133C28.6898 8.92518 28.4822 8.89832 28.2737 8.90199C26.8901 8.92457 25.7854 10.2622 25.8115 11.8832C25.8231 12.5955 26.1099 13.815 26.509 14.8486C26.6094 15.1093 26.7123 15.3473 26.8179 15.5628C25.1668 16.8207 23.1455 17.507 21.0602 17.507H17.1942C17.5114 15.8777 18.154 12.576 18.3719 11.4371C18.4453 11.0526 18.4827 10.6583 18.4827 10.2646C18.4827 10.1068 18.477 9.95026 18.4651 9.79524C19.4812 9.54072 20.3089 8.82997 20.6666 7.85951C21.2748 6.21034 20.3461 4.34114 18.5969 3.69294C18.5388 3.67128 18.4742 3.649 18.4072 3.62672C18.5397 2.20033 17.6465 0.773937 16.164 0.224316C15.3278 -0.0854375 14.4264 -0.074146 13.6264 0.256664C13.0575 0.49165 12.5868 0.867626 12.2517 1.34523C12.1868 1.31898 12.1241 1.29396 12.0663 1.27259C11.23 0.962536 10.3287 0.974133 9.52867 1.30464C8.70675 1.6446 8.0897 2.27784 7.79107 3.08808C7.47813 3.93708 7.56641 4.87611 8.00811 5.67597C6.76793 6.81703 5.98954 8.45155 5.98954 10.2646V10.2747C5.98984 10.632 5.81754 10.9702 5.52896 11.1795L4.91434 11.6251C4.71434 11.7703 4.59531 12.0029 4.59288 12.2504C4.59014 12.4982 4.70582 12.7332 4.90308 12.8827C5.18101 13.093 5.52682 13.3551 5.56457 13.454C5.56457 13.454 5.58405 13.5581 5.43641 13.9148C4.82606 15.3894 4.0982 17.8204 4.0982 21.0288C4.0982 22.7011 4.37674 24.2984 4.91495 25.7532C4.14752 25.5426 3.39592 25.5576 2.73868 25.838C0.540197 26.7767 -0.175484 30.4553 1.20687 33.7103C1.87049 35.2731 2.86289 36.3837 4.07689 36.9223C4.62393 37.1649 5.2011 37.2864 5.7804 37.2864C6.28451 37.2864 6.78984 37.1942 7.27782 37.0102C7.91101 38.1143 8.74145 38.913 9.71406 39.3448C10.2611 39.5874 10.8383 39.7089 11.4173 39.7089C11.9826 39.7089 12.5491 39.5932 13.0909 39.3619C13.4718 39.1992 13.8249 38.9841 14.1393 38.7244C14.94 39.5477 16.0145 40 17.1759 40C18.3369 40 19.4115 39.5477 20.2121 38.7244C20.5269 38.9841 20.88 39.1992 21.2608 39.3619C21.8027 39.5932 22.3692 39.7089 22.9342 39.7089C23.5135 39.7089 24.091 39.5874 24.6377 39.3448C25.6106 38.913 26.4408 38.1143 27.074 37.0102C27.5619 37.1942 28.0673 37.2864 28.5714 37.2864C29.1507 37.2864 29.7281 37.1649 30.2749 36.9223C31.4889 36.3837 32.4813 35.2731 33.1449 33.7103C34.5273 30.4553 33.8113 26.7767 31.6128 25.838C30.7327 25.462 29.6834 25.5627 28.6526 26.0443C29.9263 23.1946 30.2359 20.0717 30.2524 17.8098C31.0916 17.9874 31.9376 18.0832 32.5005 18.0832C32.5616 18.0832 32.6195 18.0823 32.6737 18.0798C33.6728 18.0368 34.5735 17.5714 35.0828 16.8353C35.3754 16.4148 35.5187 15.9329 35.498 15.4419ZM31.9601 11.9907C32.0104 12.0374 32.0511 12.0889 32.0849 12.1488C32.2463 12.4359 32.2317 12.9193 31.9394 13.3804C31.9294 13.3948 31.9196 13.4097 31.9105 13.4247C31.8584 13.5016 31.7988 13.5779 31.7306 13.652C31.4694 13.9374 30.9829 14.3204 30.4533 14.661C30.6928 13.7003 30.8195 12.6441 30.8307 11.973C31.2521 11.7539 31.6998 11.7511 31.9601 11.9907ZM28.2992 10.4642H28.3093C28.3647 10.4642 28.4204 10.4718 28.4776 10.4877C28.8207 10.5817 29.1884 11.0089 29.2603 11.6373C29.2612 11.6461 29.2621 11.655 29.2633 11.6641C29.2685 11.7169 29.2718 11.7716 29.2727 11.8271C29.284 12.5766 29.0466 14.2618 28.6475 15.1972C28.6079 15.2902 28.5714 15.3644 28.5397 15.423C28.3778 15.2039 28.1297 14.7711 27.8639 14.018C27.5479 13.1235 27.3762 12.2543 27.3698 11.8579C27.358 11.1108 27.7835 10.4727 28.2992 10.4642ZM9.25287 3.62977C9.39899 3.23335 9.70797 2.92085 10.1229 2.74934C10.5597 2.56868 11.0581 2.56471 11.5259 2.73835C11.6097 2.76948 11.7281 2.81861 11.8422 2.86653C12.3396 3.07405 12.589 3.17842 12.9272 3.03071C13.1217 2.94587 13.2772 2.78108 13.3506 2.58149C13.4967 2.18537 13.8057 1.87257 14.2206 1.70106C14.6575 1.5204 15.1558 1.51673 15.6237 1.69007C16.5671 2.03981 17.0821 3.00843 16.7719 3.8498C16.6986 4.04939 16.7098 4.27583 16.8027 4.46717C16.9634 4.79951 17.2206 4.88313 17.7327 5.04945C17.8508 5.0876 17.9725 5.12727 18.0563 5.1584C18.9996 5.50813 19.515 6.47676 19.2048 7.31812C19.0362 7.77589 18.6438 8.1183 18.1525 8.26173C17.315 5.8014 14.9792 4.02619 12.2361 4.02619C11.1734 4.02619 10.1722 4.29261 9.29518 4.76197C9.13902 4.39485 9.11923 3.99263 9.25287 3.62977ZM4.70764 35.4938C3.86167 35.1181 3.14691 34.2902 2.64066 33.0985C1.44766 30.2893 2.27719 27.7335 3.34965 27.2757C4.03245 26.9843 5.15787 27.3285 6.20232 28.2388C6.22363 28.2602 6.24616 28.28 6.2696 28.2983C6.57158 28.5696 6.86625 28.8886 7.13992 29.2535C6.04798 30.6967 5.8011 33.2037 6.63155 35.5826C5.99562 35.7956 5.32074 35.7657 4.70764 35.4938ZM12.4803 37.9245C11.7847 38.2214 11.0264 38.2187 10.3448 37.9163C9.53202 37.5555 8.84039 36.7767 8.3384 35.6595C8.33688 35.6555 8.33506 35.6516 8.33323 35.6479C8.31466 35.6061 8.29609 35.5637 8.27813 35.5209C7.08513 32.7118 7.91466 30.1559 8.98681 29.6982C9.95333 29.2856 11.8066 30.1605 13.0492 32.0648C12.8191 32.8479 12.6903 33.6981 12.6903 34.5752C12.6903 35.6537 12.8833 36.6165 13.2565 37.4249C13.031 37.6318 12.7683 37.8015 12.4803 37.9245ZM17.1759 38.4375C15.8258 38.4375 14.2486 37.4261 14.2486 34.5752C14.2486 33.7244 14.3856 32.9532 14.6081 32.2836C14.6291 32.2379 14.6456 32.1903 14.6572 32.1414C15.2477 30.4929 16.3585 29.4965 17.1759 29.4965C17.9935 29.4965 19.1044 30.4929 19.6949 32.1417C19.7065 32.1903 19.7229 32.2379 19.7436 32.2833C19.9665 32.9532 20.1031 33.7241 20.1031 34.5752C20.1031 37.4261 18.5263 38.4375 17.1759 38.4375ZM24.0073 37.9163C23.3257 38.2184 22.5674 38.2217 21.8718 37.9245C21.5835 37.8015 21.3208 37.6318 21.0952 37.4249C21.4684 36.6165 21.6618 35.6537 21.6618 34.5752C21.6618 33.6981 21.533 32.8479 21.3028 32.0651C22.5455 30.1605 24.3994 29.2859 25.3653 29.6982C25.3838 29.7061 25.4021 29.7147 25.4204 29.7238C25.4234 29.7253 25.4268 29.7269 25.4298 29.7287C26.4703 30.2594 27.2429 32.7686 26.0739 35.5209C26.0557 35.5643 26.0371 35.607 26.0182 35.6494C26.0173 35.6512 26.0164 35.6531 26.0155 35.6552C25.5135 36.7746 24.8213 37.5549 24.0073 37.9163ZM31.0024 27.2757C32.0746 27.7335 32.9041 30.2896 31.7111 33.0988C31.2052 34.2902 30.4904 35.1184 29.6444 35.4938C29.0313 35.7657 28.3561 35.7956 27.7208 35.5826C28.551 33.204 28.3041 30.6967 27.2122 29.2535C28.4487 27.6053 30.1065 26.893 31.0024 27.2757ZM25.5443 28.1177C23.9948 27.7423 22.0493 28.6597 20.6024 30.3928C20.27 29.8047 19.8727 29.296 19.431 28.8965C20.8079 28.2718 21.9671 27.1896 22.6703 25.795C23.1683 25.8194 23.6605 25.7553 24.1366 25.6043C25.7872 25.0806 26.7193 23.6807 26.9869 21.3251C27.0356 20.8963 26.7284 20.5093 26.3007 20.4605C25.873 20.4117 25.4867 20.7196 25.4383 21.1484C25.1872 23.3588 24.3595 23.8947 23.6666 24.1144C23.3217 24.2239 22.9628 24.2606 22.6003 24.2233C22.5232 24.2154 22.4392 24.2026 22.3436 24.184C21.9756 24.1122 21.6085 24.3137 21.4706 24.6634C20.6243 26.8076 18.4368 28.1415 16.1436 27.9062C15.95 27.8879 11.5865 27.4085 11.5561 22.0181H19.9954C20.4258 22.0181 20.7747 21.6684 20.7747 21.2369C20.7747 20.8054 20.4258 20.4556 19.9954 20.4556H10.7996C10.388 20.4556 10.0474 20.7764 10.0218 21.1881C9.77738 25.1135 11.3865 27.1555 12.7792 28.1772C13.4346 28.6578 14.1025 28.9612 14.6593 29.1513C14.3217 29.5044 14.0151 29.9234 13.7497 30.3928C12.1649 28.4946 9.98194 27.5751 8.37615 28.2608C8.36824 28.2642 8.36063 28.2675 8.35271 28.2709C8.03886 27.8571 7.69792 27.4847 7.33992 27.1585C6.23855 25.4327 5.65681 23.316 5.65681 21.0291C5.65681 18.0783 6.31983 15.8572 6.87599 14.5139C7.32653 13.4256 7.104 12.803 6.62759 12.2983C7.20842 11.7923 7.54875 11.0516 7.54784 10.2744V10.2649C7.54784 7.68647 9.65104 5.589 12.2358 5.589C14.8209 5.589 16.9241 7.68647 16.9241 10.2649C16.9241 10.56 16.8961 10.8554 16.841 11.1429C16.5494 12.6679 15.4937 18.0841 15.483 18.1387C15.4386 18.3679 15.4983 18.6047 15.6465 18.7851C15.7944 18.9652 16.0152 19.0695 16.248 19.0695H21.0602C23.4767 19.0695 25.8192 18.2779 27.7361 16.8259C27.824 16.8955 27.9135 16.9531 28.0049 16.9995C28.0539 17.0465 28.1099 17.0877 28.1723 17.1216C28.3281 17.2064 28.5038 17.2864 28.6934 17.3608C28.7233 20.2252 28.2883 24.902 25.5443 28.1177ZM33.8034 15.9442C33.5729 16.2769 33.1145 16.4972 32.6076 16.5192C32.1814 16.5369 31.4551 16.4594 30.73 16.3156C31.5915 15.8341 32.4368 15.1907 32.8779 14.7095C32.8986 14.6869 32.919 14.664 32.9391 14.6411C33.4929 14.7443 33.9236 15.0971 33.941 15.5078C33.947 15.6564 33.9011 15.8032 33.8034 15.9442Z" fill="black"/>
</g>
<defs>
<clipPath id="clip0_44_104">
<rect width="35" height="40" fill="white" transform="translate(0.5)"/>
</clipPath>
</defs>
</svg>
