<svg width="46" height="30" viewBox="0 0 46 30" fill="none" xmlns="http://www.w3.org/2000/svg">
<g clip-path="url(#clip0_44_129)">
<path fill-rule="evenodd" clip-rule="evenodd" d="M12.2081 16.8339C13.9593 15.0826 13.8556 12.1396 10.8423 9.1264C8.06134 6.3454 4.35502 5.69908 2.35066 5.56364C1.54878 5.50946 0.883486 6.17458 0.937662 6.97637C1.07302 8.98064 1.71925 12.6871 4.50043 15.4683C5.08984 16.0577 5.67643 16.5348 6.25199 16.9089C6.52102 17.0838 6.52102 17.4742 6.25199 17.6491C5.67643 18.0232 5.08984 18.5003 4.50043 19.0897C1.71916 21.8709 1.07302 25.5777 0.937662 27.5819C0.883486 28.3836 1.54869 29.0485 2.3504 28.9943C4.35466 28.859 8.06116 28.2128 10.8423 25.4316C13.8556 22.4183 13.9593 19.4753 12.2081 17.7241C11.962 17.4779 11.962 17.0801 12.2081 16.8339Z" fill="#F7D88B"/>
<path fill-rule="evenodd" clip-rule="evenodd" d="M12.3416 16.3743L6.38099 10.2016C6.12714 9.93872 5.7082 9.93131 5.44526 10.1852C5.18232 10.4391 5.17499 10.858 5.42893 11.121L11.3752 17.2789L5.42893 23.4369C5.17499 23.6998 5.18232 24.1187 5.44526 24.3726C5.57373 24.4967 5.73935 24.5583 5.90488 24.5583C6.07808 24.5583 6.2512 24.4907 6.38099 24.3563L12.3416 18.1836C12.5854 17.931 12.5876 17.5348 12.3543 17.279C12.5876 17.0231 12.5854 16.627 12.3416 16.3743Z" fill="#EAC268"/>
<path fill-rule="evenodd" clip-rule="evenodd" d="M12.2081 17.7238C12.1494 17.6651 12.112 17.5564 12.095 17.4336H9.68789C10.6445 21.9297 8.1173 26.0747 5.1781 25.1492C3.35251 24.5745 3.18636 21.6915 4.20522 19.3978C1.67392 22.1388 1.06819 25.6495 0.937686 27.5807C0.883333 28.3843 1.54748 29.0484 2.35104 28.9941C4.35539 28.8587 8.06145 28.2122 10.8423 25.4314C13.8556 22.4182 13.9593 19.4751 12.2081 17.7238Z" fill="#F4CF7A"/>
<path fill-rule="evenodd" clip-rule="evenodd" d="M37.5215 7.24003C36.5117 3.73665 33.4375 1.38341 28.3213 0.857706C20.722 0.0768234 12.5746 1.82282 18.7865 7.81788L37.5215 7.24003Z" fill="#F7D88B"/>
<path d="M22.2243 3.06863C21.9003 2.92366 21.5204 3.06872 21.3755 3.39255C21.2306 3.71637 21.3756 4.0964 21.6994 4.24128C23.0455 4.84375 23.9507 5.80666 24.3897 7.10319C24.4804 7.3709 24.7302 7.53969 24.998 7.53969C25.0663 7.53969 25.1358 7.52866 25.2042 7.50555C25.5402 7.39172 25.7204 7.02713 25.6066 6.69105C25.0481 5.04202 23.9101 3.82322 22.2243 3.06863ZM32.0135 6.98302C31.862 5.85396 30.5371 3.6711 29.2638 2.82758C28.968 2.63178 28.5694 2.71252 28.3736 3.00837C28.1776 3.30413 28.2585 3.70269 28.5542 3.89866C29.4628 4.5006 30.6326 6.35275 30.7401 7.15384C30.7834 7.47652 31.0592 7.71087 31.3759 7.71087C31.4043 7.71087 31.4332 7.70902 31.4621 7.70513C31.8138 7.65793 32.0607 7.33463 32.0135 6.98302Z" fill="#EAC268"/>
<path fill-rule="evenodd" clip-rule="evenodd" d="M20.9237 1.01318C16.8271 1.76989 14.7006 3.87483 18.7864 7.81807L23.7419 7.66524C21.1269 6.20265 19.9445 2.27221 20.9237 1.01318Z" fill="#F4CF7A"/>
<path fill-rule="evenodd" clip-rule="evenodd" d="M44.7878 17.2792C44.7878 24.9731 37.9299 29.3164 29.8882 29.3164C19.6464 29.3164 12.7058 24.1813 9.83427 18.6543C9.38727 17.794 9.38727 16.7646 9.83427 15.9043C12.7058 10.3773 19.6464 5.24219 29.8882 5.24219C37.93 5.2421 44.7878 9.58539 44.7878 17.2792Z" fill="#F49E73"/>
<path fill-rule="evenodd" clip-rule="evenodd" d="M25.8868 12.9332C26.2523 12.9332 26.5485 12.6369 26.5485 12.2714C26.5485 11.906 26.2523 11.6097 25.8868 11.6097C25.364 11.6097 24.9388 11.1844 24.9388 10.6617C24.9388 10.139 25.364 9.71367 25.8868 9.71367C26.2523 9.71367 26.5485 9.41737 26.5485 9.0519C26.5485 8.68643 26.2523 8.39014 25.8868 8.39014C24.6343 8.39014 23.6152 9.40917 23.6152 10.6617C23.6152 11.2902 23.8719 11.8598 24.2858 12.2714C23.8719 12.6831 23.6152 13.2527 23.6152 13.8812C23.6152 15.1337 24.6343 16.1527 25.8868 16.1527C26.2523 16.1527 26.5485 15.8564 26.5485 15.491C26.5485 15.1255 26.2523 14.8292 25.8868 14.8292C25.364 14.8292 24.9388 14.4039 24.9388 13.8812C24.9388 13.3585 25.364 12.9332 25.8868 12.9332Z" fill="#EA8962"/>
<path fill-rule="evenodd" clip-rule="evenodd" d="M20.1719 16.1529C20.5374 16.1529 20.8337 15.8566 20.8337 15.4912C20.8337 15.1257 20.5374 14.8294 20.1719 14.8294C19.6492 14.8294 19.2239 14.4041 19.2239 13.8814C19.2239 13.3587 19.6492 12.9334 20.1719 12.9334C20.5374 12.9334 20.8337 12.6371 20.8337 12.2716C20.8337 11.9062 20.5374 11.6099 20.1719 11.6099C18.9194 11.6099 17.9004 12.6289 17.9004 13.8814C17.9004 14.5099 18.1571 15.0795 18.571 15.4912C18.1571 15.9029 17.9004 16.4724 17.9004 17.1009C17.9004 18.3535 18.9194 19.3725 20.1719 19.3725C20.5374 19.3725 20.8337 19.0762 20.8337 18.7108C20.8337 18.3453 20.5374 18.049 20.1719 18.049C19.6492 18.049 19.2239 17.6237 19.2239 17.1009C19.2239 16.5782 19.6491 16.1529 20.1719 16.1529Z" fill="#EA8962"/>
<path fill-rule="evenodd" clip-rule="evenodd" d="M30.629 25.8116C29.3765 25.8116 28.3574 24.7926 28.3574 23.5401C28.3574 22.2876 29.3765 21.2686 30.629 21.2686C30.9945 21.2686 31.2907 21.5648 31.2907 21.9303C31.2907 22.2958 30.9945 22.5921 30.629 22.5921C30.1062 22.5921 29.681 23.0174 29.681 23.5401C29.681 24.0628 30.1062 24.4881 30.629 24.4881C30.9945 24.4881 31.2907 24.7844 31.2907 25.1498C31.2907 25.5154 30.9945 25.8116 30.629 25.8116Z" fill="#EA8962"/>
<path fill-rule="evenodd" clip-rule="evenodd" d="M19.3035 7.37207C14.7792 9.37978 11.5662 12.5703 9.83427 15.904C9.38727 16.7643 9.38727 17.7937 9.83427 18.654C12.7057 24.181 19.6464 29.3161 29.8882 29.3161C32.3334 29.3161 34.6686 28.9138 36.7354 28.1386C13.8367 27.11 13.6968 14.3538 19.3035 7.37207Z" fill="#EF9067"/>
<path fill-rule="evenodd" clip-rule="evenodd" d="M19.303 23.789C20.8849 25.371 23.0073 25.8474 24.6565 24.1982C27.9221 20.9327 28.1428 17.2185 27.0082 16.0839C25.8736 14.9493 22.1594 15.17 18.8938 18.4355C17.2446 20.0847 17.721 22.2071 19.303 23.789Z" fill="#F7D88B"/>
<path d="M22.2572 19.1574C22.0064 18.9065 21.5996 18.9065 21.3487 19.1574L18.1406 22.3653C18.3019 22.7593 18.5299 23.1435 18.8148 23.508L22.2571 20.0658C22.508 19.815 22.508 19.4082 22.2572 19.1574ZM24.2044 21.1046C23.9536 20.8537 23.5469 20.8537 23.2959 21.1046L19.8536 24.5468C20.2181 24.8317 20.6023 25.0598 20.9963 25.221L24.2044 22.0129C24.4553 21.7622 24.4553 21.3554 24.2044 21.1046Z" fill="#EAC268"/>
<path d="M31.4634 18.505C32.5047 18.505 33.3488 17.8326 33.3488 17.0032C33.3488 16.1738 32.5047 15.5015 31.4634 15.5015C30.4222 15.5015 29.5781 16.1738 29.5781 17.0032C29.5781 17.8326 30.4222 18.505 31.4634 18.505Z" fill="#F27281"/>
<path d="M41.6822 18.505C42.7234 18.505 43.5675 17.8326 43.5675 17.0032C43.5675 16.1738 42.7234 15.5015 41.6822 15.5015C40.641 15.5015 39.7969 16.1738 39.7969 17.0032C39.7969 17.8326 40.641 18.505 41.6822 18.505Z" fill="#F27281"/>
<path d="M31.0027 15.3697C31.0027 15.7352 31.2989 16.0315 31.6644 16.0315C32.03 16.0315 32.3262 15.7352 32.3262 15.3697C32.3262 15.2398 32.4319 15.1341 32.5619 15.1341C32.6918 15.1341 32.7974 15.2398 32.7974 15.3697C32.7974 15.7352 33.0937 16.0315 33.4592 16.0315C33.8248 16.0315 34.121 15.7352 34.121 15.3697C34.121 14.51 33.4215 13.8106 32.5619 13.8106C31.702 13.8106 31.0027 14.51 31.0027 15.3697ZM39.0242 15.3697C39.0242 15.7352 39.3204 16.0315 39.686 16.0315C40.0515 16.0315 40.3477 15.7352 40.3477 15.3697C40.3477 15.2398 40.4534 15.1341 40.5833 15.1341C40.7133 15.1341 40.8189 15.2398 40.8189 15.3697C40.8189 15.7352 41.1151 16.0315 41.4807 16.0315C41.8462 16.0315 42.1424 15.7352 42.1424 15.3697C42.1424 14.51 41.443 13.8106 40.5833 13.8106C39.7237 13.8106 39.0242 14.51 39.0242 15.3697ZM23.6087 15.2327C21.8131 15.6232 19.9722 16.6902 18.4252 18.2373C17.5004 19.1621 17.0866 20.2852 17.2288 21.4851C17.355 22.5509 17.9102 23.6028 18.8343 24.5268C19.7584 25.4509 20.8102 26.006 21.8759 26.1323C22.0302 26.1506 22.1831 26.1597 22.3345 26.1597C23.3612 26.1597 24.3179 25.7419 25.1238 24.9359C26.6708 23.3889 27.7379 21.548 28.1284 19.7524C28.4878 18.0995 28.2437 16.6541 27.4754 15.8857C26.7069 15.1174 25.2614 14.8734 23.6087 15.2327ZM26.835 19.4711C26.4978 21.0218 25.5577 22.6302 24.1878 24C23.5511 24.6368 22.8253 24.9124 22.0316 24.818C21.2749 24.7283 20.4717 24.2925 19.7701 23.591C18.6034 22.4242 17.8832 20.651 19.361 19.1732C20.7308 17.8034 22.3392 16.8633 23.8899 16.526C24.3138 16.4338 24.6995 16.394 25.04 16.394C25.7727 16.394 26.2961 16.5783 26.5394 16.8215C26.8959 17.178 27.1254 18.1355 26.835 19.4711ZM37.0256 15.9837C36.9112 16.1151 36.7461 16.1904 36.5726 16.1904C36.3991 16.1904 36.234 16.1151 36.1196 15.9837C35.8795 15.7082 35.4614 15.6795 35.186 15.9196C34.9104 16.1597 34.8817 16.5777 35.1217 16.8533C35.4877 17.2732 36.0164 17.514 36.5725 17.514C37.1287 17.514 37.6574 17.2732 38.0233 16.8533C38.2634 16.5777 38.2347 16.1598 37.959 15.9196C37.6837 15.6794 37.2656 15.7081 37.0256 15.9837ZM43.549 10.7812C43.3463 10.4771 42.9353 10.3951 42.6314 10.5976C42.3273 10.8004 42.2451 11.2112 42.4478 11.5153C43.561 13.1852 44.1254 15.1244 44.1254 17.279C44.1254 20.704 42.6833 23.6001 39.955 25.6541C37.3852 27.5889 33.8098 28.6543 29.8875 28.6543C19.4823 28.6543 13.0092 23.3308 10.4208 18.3489C10.0727 17.6789 10.0727 16.879 10.4208 16.209C11.9196 13.3242 14.721 10.325 18.8342 8.31107C18.8978 8.29184 18.9591 8.26263 19.0157 8.2239C21.973 6.80993 25.5954 5.90357 29.8875 5.90357C32.4979 5.90357 34.9395 6.37104 37.0389 7.24987C37.0626 7.26134 37.0867 7.27193 37.1115 7.28057C38.2844 7.77875 39.3493 8.40557 40.2742 9.15284C40.5584 9.38243 40.9752 9.33822 41.2049 9.05392C41.4345 8.76963 41.3903 8.35298 41.1059 8.12331C40.1429 7.34534 39.0456 6.68657 37.8435 6.15575C37.183 4.53116 36.0797 3.20013 34.5587 2.1976C32.9316 1.1251 30.8557 0.452749 28.3887 0.199161C23.5903 -0.293721 17.5147 0.129896 16.1836 2.94681C15.572 4.24122 16.032 5.76496 17.5488 7.4836C15.7852 8.42551 14.2625 9.54072 12.9801 10.7441C12.5497 10.0381 11.9909 9.33937 11.3099 8.65837C8.36818 5.71669 4.46192 5.04301 2.39527 4.90334C1.82139 4.86407 1.25994 5.07504 0.854326 5.48066C0.448709 5.88628 0.238267 6.4479 0.277003 7.0216C0.277532 7.02937 0.27815 7.03704 0.279032 7.04472C0.422238 9.11763 1.10174 13.0055 4.03247 15.9362C4.54971 16.4534 5.08168 16.904 5.61744 17.2789C5.08159 17.6538 4.54962 18.1043 4.03247 18.6215C1.10191 21.5524 0.422326 25.4395 0.27912 27.5126C0.278326 27.5204 0.27762 27.5284 0.277091 27.5364C0.238356 28.11 0.448797 28.6717 0.854415 29.0773C1.22827 29.4512 1.73456 29.6592 2.26071 29.6592C2.30544 29.6592 2.35044 29.6577 2.39536 29.6547C3.39541 29.5871 4.38833 29.4282 5.34647 29.1826C5.70047 29.0918 5.91391 28.7313 5.82312 28.3772C5.73233 28.0232 5.37206 27.8097 5.01771 27.9005C4.13783 28.1262 3.22547 28.2721 2.30606 28.3342C2.11062 28.3471 1.92771 28.279 1.79015 28.1415C1.65674 28.0081 1.58836 27.8315 1.59656 27.6428C1.59709 27.6374 1.59753 27.632 1.59789 27.6266C1.72486 25.7449 2.33165 22.1945 4.96839 19.5577C5.50847 19.0175 6.06162 18.5622 6.61256 18.2041C6.92747 17.9995 7.1155 17.6537 7.1155 17.2792C7.1155 16.9047 6.92747 16.559 6.61265 16.3543C6.06171 15.9963 5.50847 15.5408 4.96839 15.0007C2.33191 12.3642 1.72503 8.81384 1.59797 6.93213C1.59762 6.92675 1.59718 6.92145 1.59674 6.91616C1.58836 6.72716 1.65683 6.55043 1.79033 6.41684C1.9278 6.27937 2.11089 6.21107 2.30615 6.22413C4.18777 6.35128 7.73791 6.95834 10.3741 9.59454C11.0741 10.2945 11.6236 11.0061 12.0138 11.7154C10.8459 12.9728 9.92306 14.2968 9.24647 15.599C8.69986 16.6512 8.69986 17.9074 9.24647 18.9593C9.92306 20.2617 10.8459 21.5855 12.0138 22.843C11.6236 23.5522 11.0741 24.2638 10.3741 24.9638C9.63683 25.701 8.77291 26.3325 7.8063 26.8407C7.48274 27.0107 7.35841 27.4108 7.52844 27.7343C7.64686 27.9596 7.8768 28.0883 8.11477 28.0883C8.21853 28.0883 8.32388 28.0639 8.42209 28.0122C9.50677 27.442 10.4784 26.7312 11.3099 25.8996C11.9909 25.2186 12.5497 24.52 12.9802 23.8139C16.6476 27.2553 22.2815 29.978 29.8876 29.978C34.0951 29.978 37.9532 28.8179 40.7511 26.7115C43.8245 24.3976 45.449 21.1359 45.449 17.279C45.4489 14.8586 44.8097 12.6724 43.549 10.7812ZM17.3803 3.51248C18.1933 1.79181 22.7661 0.952161 28.2534 1.51607C31.928 1.89363 34.5713 3.2506 36.0017 5.46866C34.1242 4.88604 32.0573 4.58031 29.8876 4.58031C25.5424 4.58031 21.8412 5.46937 18.782 6.87284C17.8096 5.83916 16.9054 4.5174 17.3803 3.51248Z" fill="black"/>
</g>
<defs>
<clipPath id="clip0_44_129">
<rect width="45.4545" height="30" fill="white" transform="translate(0.272461)"/>
</clipPath>
</defs>
</svg>
