<svg width="36" height="32" viewBox="0 0 36 32" fill="none" xmlns="http://www.w3.org/2000/svg">
<g clip-path="url(#clip0_44_203)">
<path d="M15.7866 2.67442C15.7866 2.67442 13.4811 -0.276587 10.2535 0.92226C7.02581 2.12111 6.93359 5.34877 5.73474 5.71765C4.53589 6.08652 3.79814 6.4554 3.33705 7.74647C2.87595 9.03753 3.98258 9.12975 2.32264 10.2364C0.662695 11.343 0.201599 14.0174 1.40045 15.4929C2.59929 16.9684 3.52148 17.0606 3.98258 18.905C4.44367 20.7493 4.53589 20.196 3.98258 22.1326C3.42926 24.0692 3.79814 26.2825 5.36586 27.2047C6.93359 28.1269 8.22465 29.1413 9.70016 30.1557C11.1757 31.1701 15.0489 28.7724 16.0633 29.9713C17.0777 31.1701 19.752 31.0779 21.3198 30.4323C22.8875 29.7868 22.0575 27.6658 23.4408 28.1269C24.8241 28.588 26.9451 27.6658 27.5906 26.4669C28.2362 25.3603 27.5906 23.977 28.7895 23.4237C29.8961 22.8704 32.7549 19.7349 33.7693 16.8762C34.7837 14.0174 35.2448 12.2652 31.8327 12.173C28.4206 12.0808 24.1785 12.3574 22.3342 9.49863C20.4898 6.63984 21.7808 2.39776 20.1209 2.67442C18.1843 3.0433 17.3543 4.05771 15.7866 2.67442Z" fill="#00B692"/>
<path d="M5.08939 20.3802C5.08939 20.3802 2.96835 22.1323 3.98276 25.2678C4.99717 28.2188 7.94818 28.2188 7.94818 28.2188C7.94818 28.2188 8.5015 30.5243 10.8992 30.8009C13.2969 31.0776 14.8646 29.4176 14.8646 29.4176C14.8646 29.4176 15.7868 31.3542 18.83 31.262C21.8733 31.1698 22.9799 28.311 22.9799 28.311C22.9799 28.311 25.2854 28.9565 26.9453 27.481C28.513 26.19 27.9597 24.2534 27.9597 24.2534C27.9597 24.2534 35.6139 19.1813 34.8761 11.2505" stroke="black" stroke-width="1.4755" stroke-miterlimit="10" stroke-linecap="round" stroke-linejoin="round"/>
<path d="M34.7839 11.0662C34.7839 11.0662 28.2363 13.8327 23.8098 11.0662C19.3833 8.2996 20.951 2.95089 20.951 2.95089C20.951 2.95089 20.3977 2.67424 18.7378 2.76646C17.0778 2.85867 16.1556 3.68865 16.1556 3.68865C16.1556 3.68865 15.049 0.184323 10.6225 0.829856C6.19597 1.47539 6.47263 5.62525 6.47263 5.62525C6.47263 5.62525 4.62825 5.53303 3.79828 6.73187C2.96831 7.93072 3.4294 9.49844 3.4294 9.49844C3.4294 9.49844 1.12393 10.144 1.03171 13.3716C0.93949 16.5993 3.52162 17.5215 3.52162 17.5215C3.52162 17.5215 3.79828 19.7348 5.64266 20.7492C7.48704 21.6714 9.60808 21.0258 9.60808 21.0258C9.60808 21.0258 9.79252 23.1469 12.6513 24.1613C15.5101 25.1757 17.5389 22.8702 17.5389 22.8702C17.5389 22.8702 19.3833 23.9768 21.5043 23.2391C23.4409 22.5013 23.6254 20.7492 23.6254 20.7492C23.6254 20.7492 32.6628 18.8126 34.7839 11.0662Z" stroke="black" stroke-width="1.4755" stroke-miterlimit="10" stroke-linecap="round" stroke-linejoin="round"/>
<path d="M33.5851 12.3575C33.5851 12.3575 29.1586 17.1528 16.0635 14.6629C12.8358 14.1096 10.0692 11.343 9.23926 9.68311" stroke="black" stroke-width="1.4755" stroke-miterlimit="10" stroke-linecap="round" stroke-linejoin="round"/>
<path d="M7.5791 12.5419C7.5791 12.5419 8.96239 13.3719 11.4523 12.4497" stroke="black" stroke-width="1.4755" stroke-miterlimit="10" stroke-linecap="round" stroke-linejoin="round"/>
<path d="M13.1123 18.2593C13.1123 18.2593 17.4466 18.6282 19.6599 15.585" stroke="black" stroke-width="1.4755" stroke-miterlimit="10" stroke-linecap="round" stroke-linejoin="round"/>
<path d="M13.7583 8.39209C13.7583 8.39209 12.9283 12.2653 15.6949 14.5708" stroke="black" stroke-width="1.4755" stroke-miterlimit="10" stroke-linecap="round" stroke-linejoin="round"/>
<path d="M19.4756 11.8965C19.4756 11.8965 19.5678 14.3864 22.4266 15.3086" stroke="black" stroke-width="1.4755" stroke-miterlimit="10" stroke-linecap="round" stroke-linejoin="round"/>
</g>
<defs>
<clipPath id="clip0_44_203">
<rect width="35.4121" height="32" fill="white" transform="translate(0.293945)"/>
</clipPath>
</defs>
</svg>
