<svg width="36" height="32" viewBox="0 0 36 32" fill="none" xmlns="http://www.w3.org/2000/svg">
<g clip-path="url(#clip0_44_86)">
<path d="M33.0077 6.9457C30.1963 3.30746 25.0697 1.48834 25.0697 1.48834C25.0697 1.48834 21.2661 -2.48065 18.0413 3.63821C17.3798 4.87852 16.9663 5.95346 16.8009 6.9457C16.8009 6.69764 16.8009 6.44958 16.8836 6.20152C17.1317 3.30746 15.4779 4.63046 14.9818 5.62271C14.9818 5.62271 11.3436 11.9896 10.5994 14.0568C9.85521 16.124 10.8475 19.5142 9.60715 20.5891C8.36684 21.664 7.45728 22.739 5.9689 23.8139C4.48053 24.8889 2.66141 23.5659 1.58648 24.6408C0.51154 25.7157 1.50379 27.5349 2.33066 28.1137C3.15753 28.6925 2.82679 31.3385 4.81128 31.3385C6.79578 31.3385 6.71309 28.7752 7.2919 27.4522C7.9534 26.1292 11.0955 24.6408 12.6666 23.4832C14.2376 22.3255 17.049 25.0542 19.6123 24.9715C22.1756 24.8889 25.2351 25.7157 27.4676 24.31C29.1214 23.3178 28.4599 23.1524 27.3849 22.8217C28.7906 23.0697 30.1963 22.9044 31.3539 22.2429C35.7363 19.6796 35.819 10.5013 33.0077 6.9457ZM18.1239 13.8088C17.7105 13.0646 17.4624 12.3204 17.2971 11.6589C17.5451 12.4031 17.8759 13.0646 18.1239 13.8088Z" fill="#F56C65"/>
<path d="M24.2424 7.02847C25.4 6.2016 27.4672 6.61503 29.4517 9.67446C31.4362 12.8166 30.1132 15.4626 27.7153 15.9587C25.2346 16.4548 20.108 9.83984 24.2424 7.02847Z" fill="white"/>
<path d="M8.20179 22.5737C8.20179 22.5737 7.04417 23.9794 4.31549 24.3102C1.5868 24.6409 0.594555 25.137 1.09068 26.7908C1.5868 28.4445 2.66174 27.8657 2.82711 29.6848C2.9098 31.504 5.30773 31.8347 6.13461 30.8425C6.96148 29.8502 7.20954 27.1215 8.36717 26.46C9.60748 25.8812 10.1036 24.7236 9.19404 23.8967C8.28448 23.0699 8.20179 22.5737 8.20179 22.5737Z" fill="white"/>
<path d="M20.1907 1.15765C22.6713 -0.165345 27.5499 1.24034 31.5188 5.45739C35.4878 9.67445 36.8935 16.4548 32.0977 21.2507C27.3018 26.0465 20.2734 18.6047 18.2889 13.8088C16.3044 9.01295 16.2217 3.14215 20.1907 1.15765Z" stroke="black" stroke-width="1.323" stroke-miterlimit="10" stroke-linecap="round" stroke-linejoin="round"/>
<path d="M24.2425 7.02844C25.2348 6.53231 27.7154 7.60725 28.7904 8.76487C30.3614 10.5013 30.6922 12.8992 29.0384 15.0491C26.9712 17.6951 24.3252 13.9742 23.4984 12.0724C22.6715 10.1706 22.6715 7.85531 24.2425 7.02844Z" stroke="black" stroke-width="1.323" stroke-miterlimit="10" stroke-linecap="round" stroke-linejoin="round"/>
<path d="M19.1165 1.81934C19.1165 1.81934 13.5765 6.03639 11.7574 10.1708C9.93825 14.5532 10.4344 16.7857 10.5997 18.4395C10.8478 20.0932 8.36719 21.4162 8.36719 21.4162C8.36719 21.4162 8.03644 22.1604 8.78063 23.4007C9.77288 24.8891 10.8478 24.7237 10.8478 24.7237C10.8478 24.7237 12.8323 22.9046 13.6592 22.9873C14.9822 23.1527 22.7548 28.6927 30.362 22.4085" stroke="black" stroke-width="1.323" stroke-miterlimit="10" stroke-linecap="round" stroke-linejoin="round"/>
<path d="M8.0356 22.2427C8.0356 22.2427 7.12604 22.9869 5.88573 23.8137C4.64541 24.6406 3.73585 24.3099 3.73585 24.3099C3.48779 24.2272 3.23973 24.1445 2.90898 24.1445C1.75136 24.1445 0.841797 25.054 0.841797 26.2117C0.841797 27.3693 1.75136 28.2789 2.90898 28.2789H2.99167C2.82629 28.5269 2.66092 28.8577 2.66092 29.1884C2.66092 30.346 3.57048 31.2556 4.7281 31.2556C5.88572 31.2556 6.79529 30.4287 6.79529 29.2711C6.79529 29.2711 6.7126 27.8654 7.45678 27.2039C8.20097 26.4597 9.52397 25.3021 10.1028 24.806" stroke="black" stroke-width="1.323" stroke-miterlimit="10" stroke-linecap="round" stroke-linejoin="round"/>
<path d="M25.0698 24.9718C24.9045 24.9718 19.9432 23.318 16.8838 18.1914" stroke="black" stroke-width="1.323" stroke-miterlimit="10" stroke-linecap="round" stroke-linejoin="round"/>
<path d="M18.2066 24.8064C16.801 23.8142 15.1472 22.3258 13.8242 20.0933" stroke="black" stroke-width="1.323" stroke-miterlimit="10" stroke-linecap="round" stroke-linejoin="round"/>
</g>
<defs>
<clipPath id="clip0_44_86">
<rect width="35.6382" height="32" fill="white" transform="translate(0.180664)"/>
</clipPath>
</defs>
</svg>
