<svg width="34" height="32" viewBox="0 0 34 32" fill="none" xmlns="http://www.w3.org/2000/svg">
<g clip-path="url(#clip0_44_181)">
<path fill-rule="evenodd" clip-rule="evenodd" d="M1.0293 11.2428C1.0293 5.40408 5.76255 0.670898 11.6011 0.670898H14.4203C20.2591 0.670898 24.9922 5.40415 24.9922 11.2427C24.9922 13.189 23.4145 14.7666 21.4683 14.7666H18.7196H4.55326C2.60702 14.7668 1.0293 13.189 1.0293 11.2428Z" fill="#ED732F"/>
<path fill-rule="evenodd" clip-rule="evenodd" d="M10.1738 14.7666C9.04748 19.297 8.32031 25.1137 8.32031 26.6382C8.32031 29.2289 10.4205 31.3292 13.0114 31.3292C15.6022 31.3292 17.7025 29.229 17.7025 26.6382C17.7025 25.1137 16.9753 19.2969 15.849 14.7666H10.1738Z" fill="#FFE48D"/>
<path fill-rule="evenodd" clip-rule="evenodd" d="M21.6816 22.2956C21.6816 19.6698 23.8103 17.541 26.4362 17.541H27.7041C30.33 17.541 32.4587 19.6697 32.4587 22.2956C32.4587 23.1708 31.7491 23.8804 30.8738 23.8804H29.6376H23.2665C22.3912 23.8805 21.6816 23.1709 21.6816 22.2956Z" fill="#ED732F"/>
<path fill-rule="evenodd" clip-rule="evenodd" d="M25.7945 23.8804C25.288 25.9178 24.9609 28.5339 24.9609 29.2194C24.9609 30.3846 25.9055 31.3292 27.0707 31.3292C28.2359 31.3292 29.1805 30.3846 29.1805 29.2194C29.1805 28.5338 28.8534 25.9178 28.3469 23.8804H25.7945Z" fill="#FFE48D"/>
<path d="M21.4686 15.4359C23.7809 15.4359 25.6619 13.5548 25.6619 11.2426C25.6619 5.04422 20.6191 0.00146484 14.4208 0.00146484H11.6016C5.40317 0.00146484 0.360352 5.04415 0.360352 11.2426C0.360352 13.5547 2.24144 15.4359 4.55363 15.4359H9.32509C8.29635 19.8887 7.65072 25.1852 7.65072 26.6381C7.65072 29.5938 10.0554 31.9985 13.0111 31.9985C15.9668 31.9985 18.3715 29.5938 18.3715 26.6381C18.3715 25.1851 17.7259 19.8886 16.6971 15.4359H21.4686ZM1.69904 11.2426C1.69904 5.78239 6.14128 1.34009 11.6016 1.34009H14.4208C19.881 1.34009 24.3233 5.78233 24.3233 11.2426C24.3233 12.8167 23.0427 14.0972 21.4687 14.0972H4.55363C2.97962 14.0972 1.69904 12.8166 1.69904 11.2426ZM17.0329 26.6382C17.0329 28.8558 15.2287 30.6598 13.0112 30.6598C10.7936 30.6598 8.98947 28.8557 8.98947 26.6382C8.98947 25.2054 9.65136 19.8515 10.6998 15.436H15.3225C16.3709 19.8514 17.0329 25.2053 17.0329 26.6382Z" fill="black"/>
<path fill-rule="evenodd" clip-rule="evenodd" d="M13.934 4.51489H13.9496C14.3192 4.51489 14.6189 4.21525 14.6189 3.84558C14.6189 3.47592 14.3192 3.17627 13.9496 3.17627H13.934C13.5644 3.17627 13.2646 3.47592 13.2646 3.84558C13.2646 4.21525 13.5644 4.51489 13.934 4.51489Z" fill="black"/>
<path fill-rule="evenodd" clip-rule="evenodd" d="M12.3741 3.8224C12.3565 3.45319 12.0445 3.16864 11.6736 3.18579C7.57535 3.38163 4.36523 6.54368 4.36523 10.3845C4.36523 10.7542 4.66495 11.0538 5.03455 11.0538C5.40415 11.0538 5.70386 10.7542 5.70386 10.3845C5.70386 7.25933 8.35416 4.68461 11.7375 4.52295C12.1068 4.50528 12.3918 4.19162 12.3741 3.8224Z" fill="black"/>
<path fill-rule="evenodd" clip-rule="evenodd" d="M11.1635 21.0185C10.8 20.9516 10.4511 21.1927 10.3846 21.5563C10.0403 23.4378 9.82715 25.2949 9.82715 25.9366C9.82715 26.3063 10.1269 26.6059 10.4965 26.6059C10.8661 26.6059 11.1658 26.3063 11.1658 25.9366C11.1658 25.4282 11.3518 23.7068 11.7014 21.7973C11.768 21.4338 11.5271 21.085 11.1635 21.0185Z" fill="black"/>
<path d="M11.3466 20.2313C11.3945 20.2417 11.4423 20.2467 11.4895 20.2467C11.7918 20.2467 12.0645 20.0406 12.1389 19.7368C12.2285 19.3823 12.0167 19.0206 11.6624 18.9261C11.3056 18.8309 10.9385 19.0431 10.8432 19.4003C10.8406 19.4104 10.837 19.4249 10.8348 19.4351C10.7561 19.7964 10.9853 20.1528 11.3466 20.2313Z" fill="black"/>
<path d="M27.7045 16.8716H26.4366C23.4458 16.8716 21.0127 19.3047 21.0127 22.2956C21.0127 23.5385 22.0238 24.5498 23.2669 24.5498H24.9534C24.5385 26.4885 24.2915 28.5831 24.2915 29.2196C24.2915 30.752 25.5382 31.9987 27.0706 31.9987C28.603 31.9987 29.8497 30.752 29.8497 29.2196C29.8497 28.583 29.6027 26.4882 29.1877 24.5498H30.8743C32.1173 24.5498 33.1286 23.5385 33.1286 22.2956C33.1285 19.3048 30.6953 16.8716 27.7045 16.8716ZM28.511 29.2195C28.511 30.0138 27.8649 30.6599 27.0706 30.6599C26.2763 30.6599 25.6302 30.0137 25.6302 29.2195C25.6302 28.6855 25.8895 26.4834 26.324 24.5497H27.8172C28.2517 26.4832 28.511 28.6853 28.511 29.2195ZM30.8743 23.211H23.2669C22.7621 23.211 22.3514 22.8004 22.3514 22.2955C22.3514 20.0428 24.184 18.2102 26.4366 18.2102H27.7045C29.9571 18.2102 31.7898 20.0428 31.7898 22.2955C31.7898 22.8004 31.3792 23.211 30.8743 23.211Z" fill="black"/>
<path fill-rule="evenodd" clip-rule="evenodd" d="M26.282 18.9046C24.5863 18.9857 23.2578 20.3056 23.2578 21.9096C23.2578 22.2793 23.5575 22.5789 23.9271 22.5789C24.2967 22.5789 24.5964 22.2793 24.5964 21.9096C24.5964 21.0213 25.3648 20.2887 26.3459 20.2418C26.7152 20.2242 27.0001 19.9105 26.9825 19.5413C26.9649 19.1721 26.6523 18.8866 26.282 18.9046Z" fill="black"/>
</g>
<defs>
<clipPath id="clip0_44_181">
<rect width="33.28" height="32" fill="white" transform="translate(0.360352)"/>
</clipPath>
</defs>
</svg>
