<svg width="38" height="30" viewBox="0 0 38 30" fill="none" xmlns="http://www.w3.org/2000/svg">
<g clip-path="url(#clip0_44_245)">
<path fill-rule="evenodd" clip-rule="evenodd" d="M36.2513 11.1935C36.2513 5.65142 28.3979 1.15869 18.7101 1.15869C9.02238 1.15869 1.16895 5.65149 1.16895 11.1935C1.16895 16.3452 4.43782 20.8669 9.35838 23.428C9.30226 23.6384 9.27269 23.853 9.27269 24.0711C9.27269 26.7056 13.498 28.8411 18.7101 28.8411C23.9223 28.8411 28.1476 26.7056 28.1476 24.0711C28.1476 23.853 28.118 23.6384 28.0619 23.428C32.9824 20.8669 36.2513 16.3452 36.2513 11.1935Z" fill="#FEDA44"/>
<path fill-rule="evenodd" clip-rule="evenodd" d="M12.5624 24.0712C12.5624 23.8531 12.592 23.6384 12.6481 23.4281C7.72751 20.8669 4.45864 16.3452 4.45864 11.1935C4.45864 5.96879 11.4387 1.67737 20.355 1.20295C19.8133 1.17415 19.2649 1.15869 18.7101 1.15869C9.02238 1.15869 1.16895 5.65142 1.16895 11.1935C1.16895 16.3452 4.43782 20.8669 9.35838 23.428C9.30226 23.6384 9.27269 23.853 9.27269 24.0711C9.27269 26.7056 13.498 28.8411 18.7101 28.8411C19.2712 28.8411 19.8208 28.8162 20.355 28.7688C15.927 28.3755 12.5624 26.422 12.5624 24.0712Z" fill="#FF9911"/>
<path d="M18.7105 18.35C26.5313 18.35 32.8712 15.1457 32.8712 11.1931C32.8712 7.2404 26.5313 4.03613 18.7105 4.03613C10.8898 4.03613 4.5498 7.2404 4.5498 11.1931C4.5498 15.1457 10.8898 18.35 18.7105 18.35Z" fill="#FF9911"/>
<path fill-rule="evenodd" clip-rule="evenodd" d="M7.17814 15.3475C9.74599 17.1654 13.9543 18.3506 18.7103 18.3506C23.4664 18.3506 27.6747 17.1654 30.2426 15.3475C30.9586 14.546 31.3572 13.6565 31.3572 12.7198C31.3572 9.1895 25.695 6.32764 18.7103 6.32764C11.7257 6.32764 6.06348 9.18957 6.06348 12.7198C6.06348 13.6565 6.46209 14.546 7.17814 15.3475Z" fill="#FF5023"/>
<path fill-rule="evenodd" clip-rule="evenodd" d="M11.4695 15.3475C10.7534 14.546 10.3548 13.6565 10.3548 12.7198C10.3548 9.55924 14.8934 6.93484 20.856 6.41968C20.1585 6.3594 19.4419 6.32764 18.7103 6.32764C11.7256 6.32764 6.06348 9.1895 6.06348 12.7198C6.06348 13.6565 6.46209 14.546 7.17814 15.3475C9.74599 17.1654 13.9543 18.3506 18.7103 18.3506C19.4398 18.3506 20.1563 18.3225 20.856 18.2687C16.9934 17.9719 13.6435 16.8866 11.4695 15.3475Z" fill="#D80029"/>
<path d="M28.9621 5.66006C26.2149 4.27152 22.5741 3.50684 18.7103 3.50684C14.8466 3.50684 11.2058 4.27152 8.4586 5.66006C5.59667 7.10655 4.02051 9.07166 4.02051 11.1934C4.02051 13.3151 5.59667 15.2802 8.4586 16.7268C11.2058 18.1154 14.8466 18.88 18.7103 18.88C22.5741 18.88 26.2149 18.1154 28.9621 16.7268C31.824 15.2803 33.4002 13.3151 33.4002 11.1934C33.4002 9.07166 31.824 7.10655 28.9621 5.66006ZM8.9362 6.60502C11.5382 5.28997 15.0093 4.56566 18.7103 4.56566C22.4114 4.56566 25.8825 5.28997 28.4845 6.60502C30.9716 7.8622 32.3414 9.49166 32.3414 11.1934C32.3414 11.7676 32.1848 12.3334 31.8827 12.8796C31.8849 12.8265 31.8867 12.7732 31.8867 12.7198C31.8867 10.8024 30.4679 9.02938 27.8919 7.72731C25.4306 6.48326 22.1698 5.79813 18.7103 5.79813C15.2509 5.79813 11.9901 6.48326 9.52879 7.72731C6.95274 9.02931 5.53399 10.8023 5.53399 12.7198C5.53399 12.7732 5.53583 12.8265 5.53801 12.8796C5.23583 12.3334 5.07933 11.7676 5.07933 11.1934C5.07933 9.49159 6.4491 7.86213 8.9362 6.60502ZM28.4845 15.7818C25.8825 17.0969 22.4114 17.8212 18.7103 17.8212C15.0093 17.8212 11.5382 17.0969 8.9362 15.7818C8.42218 15.522 7.95672 15.2461 7.54039 14.9572C6.91208 14.2404 6.59281 13.4879 6.59281 12.7198C6.59281 11.2223 7.8051 9.78495 10.0064 8.67227C12.3225 7.50164 15.4136 6.85695 18.7103 6.85695C22.007 6.85695 25.0981 7.50164 27.4142 8.67227C29.6154 9.78495 30.8277 11.2223 30.8277 12.7198C30.8277 13.488 30.5085 14.2405 29.88 14.9572C29.4638 15.2462 28.9984 15.522 28.4845 15.7818Z" fill="black"/>
<path fill-rule="evenodd" clip-rule="evenodd" d="M34.2005 11.1936C34.2005 12.1361 33.8874 13.0629 33.2699 13.9486L34.1385 14.5541C34.8822 13.4874 35.2593 12.3568 35.2593 11.1936C35.2593 8.98066 33.8525 6.85094 31.2982 5.19678L30.7227 6.08548C32.9654 7.53791 34.2005 9.35195 34.2005 11.1936Z" fill="white"/>
<path fill-rule="evenodd" clip-rule="evenodd" d="M30.7644 4.86748C30.2787 4.58216 29.7541 4.31153 29.2054 4.06299L28.7686 5.02751C29.2835 5.26073 29.7746 5.51407 30.2282 5.78047L30.7644 4.86748Z" fill="white"/>
<path d="M36.7808 11.1936C36.7808 8.31518 34.8615 5.63205 31.3766 3.63843C27.9848 1.69796 23.4864 0.629395 18.7102 0.629395C13.9341 0.629395 9.43572 1.69796 6.04388 3.63836C2.55894 5.63198 0.639648 8.31518 0.639648 11.1936C0.639648 13.1637 1.10786 15.112 2.00482 16.9171C2.00574 16.9188 2.00638 16.9205 2.00737 16.9221C2.29007 17.4905 2.61492 18.0449 2.98155 18.581C4.38915 20.6395 6.38334 22.4071 8.76541 23.7115C8.75073 23.8315 8.74332 23.9516 8.74332 24.0713C8.74332 27.0429 13.1213 29.3707 18.7102 29.3707C24.2991 29.3707 28.677 27.0429 28.677 24.0713C28.677 23.9517 28.6697 23.8315 28.6549 23.7115C31.0371 22.4071 33.0312 20.6395 34.4388 18.581C35.971 16.3406 36.7808 13.7861 36.7808 11.1936ZM27.8176 22.9586L27.7277 23.0054C27.031 23.3629 26.2984 23.6814 25.5476 23.9518L25.9064 24.948C26.4868 24.7389 27.057 24.5023 27.61 24.2425C27.4136 26.4655 23.4185 28.3118 18.7102 28.3118C14.0021 28.3118 10.007 26.4655 9.81047 24.2426C12.5158 25.5133 15.5753 26.1825 18.7102 26.1825C20.5652 26.1825 22.3943 25.9505 24.1468 25.4929L23.8793 24.4684C22.2141 24.9032 20.4749 25.1237 18.7102 25.1237C15.5087 25.1237 12.3938 24.3914 9.69407 23.0059L9.60287 22.9585C8.59261 22.4326 7.66551 21.8308 6.8296 21.1653C8.66207 22.1282 10.8439 22.868 13.2467 23.309L13.4378 22.2675C8.48235 21.3581 4.54946 19.1575 2.91718 16.3807L2.91442 16.3824C2.90638 16.3659 2.89812 16.3495 2.89014 16.3329C3.72499 17.213 4.78099 18.0263 6.04381 18.7488C9.43565 20.6891 13.934 21.7577 18.7102 21.7577C23.3175 21.7577 27.7001 20.7537 31.0504 18.9307L30.5444 18.0006C27.3467 19.7407 23.1439 20.699 18.7102 20.699C14.1156 20.699 9.80398 19.68 6.56962 17.8298C3.42845 16.0327 1.69847 13.676 1.69847 11.1936C1.69847 10.3459 1.9005 9.51292 2.29127 8.71182H3.93372V7.65299H2.93165C3.75711 6.51568 4.98308 5.46504 6.56962 4.55742C9.80398 2.70716 14.1156 1.68822 18.7102 1.68822C23.3049 1.68822 27.6165 2.70723 30.8508 4.55742C33.992 6.35445 35.722 8.71118 35.722 11.1936C35.722 13.2538 34.5399 15.2213 32.3037 16.8835L32.9353 17.7333C33.536 17.2869 34.0682 16.8179 34.5317 16.3301C33.232 19.0197 30.9156 21.346 27.8176 22.9586Z" fill="black"/>
<path fill-rule="evenodd" clip-rule="evenodd" d="M22.8404 10.541C21.7285 9.97896 20.2619 9.66943 18.7107 9.66943C17.103 9.66943 15.5983 9.99873 14.4736 10.5966L14.9706 11.5315C15.9309 11.0211 17.2941 10.7283 18.7107 10.7283C21.6414 10.7283 23.6838 11.915 23.6838 12.98H24.7427C24.7427 12.0272 24.0671 11.161 22.8404 10.541Z" fill="black"/>
<path fill-rule="evenodd" clip-rule="evenodd" d="M18.7107 15.2317C15.7799 15.2317 13.7375 14.045 13.7375 12.98H12.6787C12.6787 13.9329 13.3542 14.7991 14.581 15.4191C15.6929 15.9811 17.1595 16.2906 18.7107 16.2906C20.5878 16.2906 22.3157 15.8417 23.4515 15.0588L22.8505 14.187C21.9014 14.8411 20.3538 15.2317 18.7107 15.2317Z" fill="black"/>
<path fill-rule="evenodd" clip-rule="evenodd" d="M24.0621 8.62128C23.3295 8.38848 22.5417 8.20445 21.7206 8.07422L21.5547 9.11991C22.3235 9.24189 23.0593 9.41356 23.7414 9.63027L24.0621 8.62128Z" fill="white"/>
<path fill-rule="evenodd" clip-rule="evenodd" d="M25.1896 9.03662L24.7764 10.0115C26.7926 10.8661 27.9491 12.068 27.9491 13.309H29.0079C29.0079 11.6224 27.6162 10.0651 25.1896 9.03662Z" fill="white"/>
</g>
<defs>
<clipPath id="clip0_44_245">
<rect width="36.72" height="28.8" fill="white" transform="translate(0.639648 0.600098)"/>
</clipPath>
</defs>
</svg>
