<svg width="40" height="40" viewBox="0 0 40 40" fill="none" xmlns="http://www.w3.org/2000/svg">
<g clip-path="url(#clip0_20_758)">
<path d="M34.6272 33.203C37.4424 29.8704 39.1404 25.5635 39.1404 20.8593C39.1404 10.2883 30.5709 1.71875 19.9999 1.71875C9.42889 1.71875 0.859436 10.2883 0.859436 20.8593C0.859436 25.5852 2.57311 29.9101 5.41162 33.249L34.6272 33.203Z" fill="#FF4155"/>
<path d="M26.6545 29.6812C24.163 33.8975 20.1457 33.9344 20.1457 33.9344C20.1457 33.9344 16.1319 33.8975 13.6402 29.6861C13.5831 29.7553 13.5243 29.8226 13.4616 29.8853C13.1273 29.9624 12.798 30.0475 12.4721 30.1385C12.6513 30.2165 12.8073 30.3493 12.9114 30.5272C14.4435 33.1439 17.1148 36.2694 20.1543 36.2694C23.1938 36.2694 25.8651 33.1439 27.3972 30.5272C27.5006 30.3506 27.6551 30.2185 27.8327 30.1401C27.5048 30.0484 27.1736 29.9629 26.8373 29.8853C26.773 29.8212 26.7129 29.7522 26.6545 29.6812Z" fill="#FCAD6D"/>
<path d="M17.8801 33.411C16.5561 32.8824 14.9028 31.8206 13.6401 29.6865C13.583 29.7557 13.5242 29.8231 13.4614 29.8857C13.1271 29.9629 12.7978 30.0479 12.472 30.139C12.6512 30.2171 12.8071 30.3498 12.9113 30.5277C13.799 32.0439 15.0693 33.7309 16.5721 34.8818C16.6501 34.8519 16.7168 34.8231 16.7693 34.7949C17.3518 34.4825 17.7011 33.8424 17.8801 33.411Z" fill="#FD995B"/>
<path d="M30.376 7.99709C30.376 5.86186 29.1458 4.97709 28.3322 4.62545C27.9221 4.44819 27.6018 4.12491 27.4389 3.72131C27.0829 2.83905 26.0762 1.3103 23.2612 0.376079C19.1225 -0.997515 15.4437 1.79389 13.4663 2.32561C12.1659 2.67522 11.144 1.90397 10.5966 1.33483C10.3653 1.09428 9.95403 1.16709 9.8227 1.46959C9.39528 2.45413 8.77254 4.39038 9.34231 6.40397C9.37723 6.52733 9.25223 6.63733 9.12715 6.59444C8.96184 6.5378 8.81332 6.48499 8.69403 6.4417C8.57184 6.39749 8.44997 6.50788 8.48879 6.62788C8.97036 8.11631 9.43715 8.96538 9.85606 9.42334C10.0414 9.626 10.1654 9.87467 10.1974 10.143C10.2597 10.6658 10.3642 11.223 10.5365 11.7391C10.7907 12.5012 10.9502 13.2909 10.9961 14.093C10.9967 14.1024 10.9971 14.1079 10.9974 14.109H29.5071C29.5079 14.1051 29.5089 14.0918 29.5101 14.0705C29.555 13.2839 29.7085 12.507 29.9607 11.7607C30.5229 10.0979 30.376 7.99709 30.376 7.99709Z" fill="#41416B"/>
<path d="M16.0303 8.95584C16.0303 8.95584 17.7499 6.89607 16.5518 4.57154C15.3538 2.24701 18.2506 0.411621 18.2506 0.411621C16.2591 0.99459 14.5886 2.02412 13.4663 2.32584C12.166 2.67553 11.144 1.9042 10.5966 1.33506C10.3653 1.09451 9.95403 1.16732 9.8227 1.46982C9.39528 2.45436 8.77254 4.39061 9.34231 6.4042C9.37723 6.52756 9.25223 6.63756 9.12715 6.59467C8.96184 6.53803 8.81332 6.48522 8.69403 6.44193C8.57184 6.39772 8.44997 6.50811 8.48879 6.62811C8.97036 8.11654 9.43715 8.96568 9.85606 9.42357C10.0414 9.62623 10.1654 9.8749 10.1974 10.1433C10.2597 10.666 10.3642 11.2231 10.5365 11.7394C10.7907 12.5015 10.9502 13.2912 10.9961 14.0933C10.9967 14.1026 10.9971 14.1081 10.9974 14.1092H14.9007L16.0303 8.95584Z" fill="#35355E"/>
<path d="M30.0985 14.0266C29.6834 13.6462 28.8565 13.839 28.499 14.072C28.5774 14.5597 28.5818 15.0586 28.5142 15.5514L28.0923 18.6239C28.0923 18.8716 28.0845 19.1146 28.0701 19.3534C29.0989 19.6637 29.6098 18.7401 29.6959 18.1064C29.7329 17.8335 29.7936 17.5646 29.8776 17.3022C30.1513 16.4476 31.1385 14.9796 30.0985 14.0266Z" fill="#FCAD6D"/>
<path d="M29.3172 16.9337C28.9354 16.9337 28.5982 16.7466 28.3894 16.46L28.0923 18.6239C28.0923 18.8715 28.0845 19.1146 28.0701 19.3533C29.0989 19.6636 29.6098 18.7401 29.6959 18.1063C29.7329 17.8335 29.7936 17.5646 29.8776 17.3021C29.9484 17.0811 30.067 16.8186 30.1859 16.535C29.9754 16.7788 29.6647 16.9337 29.3172 16.9337Z" fill="#FD995B"/>
<path d="M10.1933 14.0266C10.6084 13.6462 11.4352 13.839 11.7927 14.072C11.7144 14.5597 11.7099 15.0586 11.7777 15.5514L12.1995 18.6239C12.1995 18.8716 12.2073 19.1146 12.2217 19.3534C11.193 19.6637 10.682 18.7401 10.5959 18.1064C10.5589 17.8335 10.4983 17.5646 10.4143 17.3022C10.1405 16.4476 9.15328 14.9796 10.1933 14.0266Z" fill="#FCAD6D"/>
<path d="M27.9684 12.4761C27.713 12.0753 27.6006 11.6012 27.6348 11.1285C27.6555 10.8423 27.6693 10.4981 27.6619 10.1262C27.6589 10.0773 27.6573 10.0242 27.6573 9.9664C27.6534 9.85804 27.6474 9.74773 27.6393 9.63616C27.5391 8.64046 27.004 7.92335 26.5778 7.50179C26.2932 7.22023 25.8544 7.16491 25.5038 7.3582C20.2352 10.2634 15.8689 9.19007 13.518 8.13195C13.2332 8.00374 12.9046 8.16991 12.8298 8.4732C12.5952 9.42366 12.6072 10.4515 12.6578 11.1401C12.6923 11.6092 12.5768 12.0784 12.3233 12.4762C12.1772 12.7054 12.0603 12.948 11.9668 13.1882C11.6635 13.9672 11.5752 14.8121 11.6887 15.6394L12.1107 18.7126C12.1107 18.7182 12.1109 18.7235 12.1109 18.7291C12.5448 19.9944 13.4226 21.8083 14.991 22.3231L15.0109 22.3288C15.9548 22.6001 16.6845 23.3446 16.994 24.2941C17.431 25.6353 18.6713 25.9919 20.1456 25.9919C21.6206 25.9919 22.8601 25.6351 23.2971 24.2946C23.6067 23.345 24.3363 22.6001 25.2804 22.3288L25.3002 22.3231C26.8688 21.8082 27.7469 19.9939 28.1808 18.7286C28.1808 18.7232 28.181 18.718 28.181 18.7126L28.6029 15.6401C28.7154 14.8209 28.6301 13.9843 28.3338 13.2114C28.239 12.9635 28.1193 12.7126 27.9684 12.4761Z" fill="#F9BA8F"/>
<path d="M10.9745 16.9337C11.3563 16.9337 11.6936 16.7466 11.9023 16.46L12.1994 18.6239C12.1994 18.8715 12.2073 19.1146 12.2216 19.3533C11.1928 19.6636 10.6819 18.7401 10.5958 18.1063C10.5587 17.8335 10.4981 17.5646 10.4141 17.3021C10.3433 17.0811 10.2247 16.8186 10.1058 16.535C10.3164 16.7788 10.6271 16.9337 10.9745 16.9337Z" fill="#FD995B"/>
<path d="M15.2035 15.6393C15.0695 14.4086 15.3095 13.2619 15.7065 12.4762C15.9076 12.0784 15.9991 11.6092 15.9718 11.1401C15.9384 10.5669 15.9264 9.75866 16.0303 8.95562C15.0447 8.74413 14.1999 8.43851 13.5222 8.13382C13.2354 8.00491 12.9051 8.16788 12.8298 8.47304C12.5952 9.42359 12.6072 10.4515 12.6578 11.1401C12.6922 11.6092 12.5768 12.0784 12.3233 12.4762C11.8157 13.2725 11.5215 14.4211 11.6887 15.6393L12.1108 18.7126C12.1108 18.7181 12.111 18.7235 12.1111 18.729C12.5449 19.9943 13.4227 21.8081 14.9912 22.323L15.011 22.3287C15.4603 22.4579 15.8602 22.6951 16.1902 23.0098C15.7915 21.7694 15.5382 20.337 15.5382 18.7126L15.2035 15.6393Z" fill="#FCAD6D"/>
<path d="M23.0245 15.5435C23.0245 15.3989 23.0515 15.2613 23.0999 15.1362C22.9119 15.2285 22.7601 15.3329 22.6521 15.4212C22.3999 15.6268 21.9615 15.8876 21.7215 16.0255C21.6761 16.0516 21.6946 16.1209 21.7469 16.1209H21.7706C21.9933 16.1209 22.2149 16.1557 22.4265 16.2254C22.7934 16.3462 23.1445 16.4063 23.4692 16.4262C23.2024 16.2432 23.0245 15.9165 23.0245 15.5435Z" fill="#FFF5EE"/>
<path d="M26.0103 15.7697C25.5719 15.3585 25.1505 15.1211 24.7607 15.001C24.8484 15.1589 24.8991 15.3446 24.8991 15.5435C24.8991 15.8686 24.7638 16.1585 24.5525 16.3487C24.8716 16.2828 25.1206 16.1911 25.2748 16.1208C25.5912 15.9768 25.8305 15.9182 25.9727 15.8943C26.0319 15.8845 26.0541 15.8108 26.0103 15.7697Z" fill="#FFF5EE"/>
<path d="M23.041 15.1664C22.9875 15.2886 22.9577 15.4233 22.9577 15.5652C22.9577 15.9322 23.1565 16.2526 23.452 16.4254C23.8783 16.4532 24.2597 16.4112 24.5721 16.345C24.8017 16.1626 24.949 15.8812 24.949 15.5652C24.949 15.3582 24.8858 15.1659 24.7776 15.0067C24.0636 14.7807 23.4547 14.9493 23.041 15.1664Z" fill="#41416B"/>
<path d="M24.3247 15.6277C24.3247 15.8385 24.1539 16.0094 23.9431 16.0094C23.7323 16.0094 23.5615 15.8385 23.5615 15.6277C23.5615 15.417 23.7323 15.2461 23.9431 15.2461C24.1539 15.2461 24.3247 15.417 24.3247 15.6277Z" fill="#35355E"/>
<path d="M26.8537 14.3564C26.7966 13.9815 26.5695 13.1101 25.683 12.9086C24.7878 12.7052 22.9002 13.0886 22.136 13.2614C21.9324 13.3074 21.7711 13.4623 21.7165 13.6638L21.5591 14.2444C21.5457 14.2937 21.5911 14.3387 21.6402 14.3249C22.2196 14.1624 24.8875 13.4409 25.7002 13.7017C26.3199 13.9004 26.6382 14.2102 26.7789 14.389C26.8056 14.4229 26.8602 14.3992 26.8537 14.3564Z" fill="#41416B"/>
<path d="M17.4705 15.5435C17.4705 15.3989 17.4435 15.2613 17.3951 15.1362C17.5831 15.2285 17.7349 15.3329 17.843 15.4212C18.0952 15.6268 18.5336 15.8876 18.7736 16.0255C18.8189 16.0516 18.8004 16.1209 18.7481 16.1209H18.7244C18.5017 16.1209 18.2801 16.1557 18.0686 16.2254C17.7016 16.3462 17.3505 16.4063 17.0258 16.4262C17.2926 16.2432 17.4705 15.9165 17.4705 15.5435Z" fill="#FFF5EE"/>
<path d="M14.4848 15.7697C14.9232 15.3585 15.3446 15.1211 15.7344 15.001C15.6467 15.1589 15.596 15.3446 15.596 15.5435C15.596 15.8686 15.7313 16.1585 15.9426 16.3487C15.6235 16.2828 15.3745 16.1911 15.2202 16.1208C14.9038 15.9768 14.6646 15.9182 14.5224 15.8943C14.4631 15.8845 14.441 15.8108 14.4848 15.7697Z" fill="#FFF5EE"/>
<path d="M17.4541 15.1664C17.5075 15.2886 17.5373 15.4233 17.5373 15.5652C17.5373 15.9322 17.3386 16.2526 17.0431 16.4254C16.6167 16.4532 16.2354 16.4112 15.923 16.345C15.6934 16.1626 15.546 15.8812 15.546 15.5652C15.546 15.3582 15.6092 15.1659 15.7174 15.0067C16.4314 14.7807 17.0403 14.9493 17.4541 15.1664Z" fill="#41416B"/>
<path d="M16.1703 15.6277C16.1703 15.8385 16.3411 16.0094 16.5519 16.0094C16.7627 16.0094 16.9336 15.8385 16.9336 15.6277C16.9336 15.417 16.7627 15.2461 16.5519 15.2461C16.3411 15.2461 16.1703 15.417 16.1703 15.6277Z" fill="#35355E"/>
<path d="M13.6413 14.3564C13.6984 13.9815 13.9256 13.1101 14.812 12.9086C15.7072 12.7052 17.5948 13.0886 18.359 13.2614C18.5626 13.3074 18.7239 13.4623 18.7785 13.6638L18.9359 14.2444C18.9493 14.2937 18.9039 14.3387 18.8547 14.3249C18.2753 14.1624 15.6075 13.4409 14.7948 13.7017C14.175 13.9004 13.8567 14.2102 13.716 14.389C13.6895 14.4229 13.6349 14.3992 13.6413 14.3564Z" fill="#41416B"/>
<path d="M22.4837 23.2641L21.6315 23.6001C21.5357 23.6379 21.4298 23.6422 21.3312 23.6125L20.3491 23.3164L19.3671 23.6125C19.2684 23.6422 19.1626 23.6379 19.0667 23.6001L18.2145 23.2641C17.9791 23.1713 17.8635 22.9051 17.9563 22.6697C18.0489 22.4349 18.3145 22.3185 18.5507 22.4115L19.2548 22.6892L20.2126 22.4003C20.3054 22.3714 20.4021 22.3735 20.4858 22.4004L21.4433 22.6892L22.1475 22.4115C22.3825 22.319 22.6487 22.4337 22.7419 22.6697C22.8348 22.9052 22.7192 23.1713 22.4837 23.2641Z" fill="#FCAD6D"/>
<path d="M23.6245 12.978C23.0307 13.0678 22.4737 13.1852 22.136 13.2615C21.9324 13.3076 21.7711 13.4624 21.7165 13.6639L21.5591 14.2445C21.5457 14.2938 21.5911 14.3388 21.6403 14.3251C21.9616 14.2349 22.9248 13.9732 23.8579 13.8021C23.4741 13.7279 23.3335 13.246 23.6245 12.978Z" fill="#35355E"/>
<path d="M16.328 12.906C15.7518 12.8417 15.1923 12.8221 14.8121 12.9085C13.9255 13.11 13.6984 13.9813 13.6414 14.3563C13.6349 14.399 13.6894 14.4228 13.7162 14.3889C13.8569 14.2102 14.1752 13.9003 14.7949 13.7016C15.1042 13.6024 15.6823 13.6456 16.3116 13.7459C15.9842 13.5559 15.9948 13.082 16.328 12.906Z" fill="#35355E"/>
<path d="M28.3556 17.4414C28.3556 17.4414 27.6179 21.421 25.1897 22.2181L25.1703 22.2237C24.2465 22.4891 23.5326 23.218 23.2296 24.1473C22.802 25.4591 21.5891 25.8081 20.1457 25.8081C18.703 25.8081 17.4894 25.4592 17.0616 24.1468C16.7588 23.2177 16.0447 22.4891 15.1211 22.2237L15.1017 22.2181C12.6735 21.421 11.9363 17.4414 11.9363 17.4414C10.0698 34.083 20.1457 34.1749 20.1457 34.1749C20.1457 34.1749 30.2221 34.083 28.3556 17.4414Z" fill="#41416B"/>
<path d="M20.6433 24.3647H20.0551C19.8019 24.3647 19.5969 24.5699 19.5969 24.8229C19.5969 25.0761 19.802 25.2812 20.0551 25.2812H20.6433C20.8964 25.2812 21.1015 25.076 21.1015 24.8229C21.1015 24.5699 20.8963 24.3647 20.6433 24.3647Z" fill="#FCAD6D"/>
<path d="M15.1017 22.3776L15.1211 22.3832C15.7485 22.5635 16.2787 22.9579 16.6495 23.4832L17.0778 23.1987C17.3238 23.0353 17.6138 22.9465 17.909 22.9559C18.9353 22.9888 19.8343 22.6897 20.1886 22.5528C20.2921 22.5128 20.4063 22.5128 20.5097 22.5528C20.864 22.6897 21.7631 22.9888 22.7893 22.9559C23.0846 22.9465 23.3746 23.0353 23.6206 23.1987L23.7796 23.3043C24.1392 22.8689 24.6166 22.5424 25.1704 22.3832L25.1897 22.3777C25.4182 22.3027 25.6318 22.1994 25.8312 22.074C25.1337 20.8807 23.5354 19.2041 20.3492 20.3597C17.0071 19.1475 15.4118 21.0516 14.7711 22.2453C14.8775 22.2958 14.9878 22.3402 15.1017 22.3776Z" fill="#41416B"/>
<path d="M18.8119 20.1095L19.1612 20.0359C19.8103 20.6771 20.889 20.676 21.537 20.0359L21.8864 20.1095C22.1375 20.1621 22.3846 20.0016 22.4376 19.75C22.4905 19.4985 22.3296 19.2518 22.0781 19.1988L21.4513 19.0669C21.2472 19.0239 21.048 19.1058 20.9517 19.2905C20.6982 19.6826 20.0005 19.6831 19.7466 19.2905C19.6503 19.1058 19.4511 19.0241 19.247 19.0669L18.6201 19.1988C18.3687 19.2518 18.2077 19.4986 18.2607 19.75C18.3136 20.0015 18.5605 20.1623 18.8119 20.1095Z" fill="#FCAD6D"/>
<path d="M20 39.9998C25.9037 39.9998 31.1823 37.3263 34.6933 33.1247C34.2183 33.0132 33.853 32.7685 33.2009 32.4009C31.5937 31.4946 29.9648 30.6516 28.2291 30.1013C27.8219 29.9722 27.3776 30.1437 27.1619 30.5123C25.6785 33.0457 23.0922 36.0719 20.1494 36.0719C17.2065 36.0719 14.6202 33.0458 13.1369 30.5123C12.921 30.1437 12.4768 29.9721 12.0696 30.1013C10.3339 30.6515 8.70498 31.4946 7.09787 32.4009C6.33248 32.8324 5.96233 33.0947 5.34576 33.171C8.85678 37.3458 14.118 39.9998 20 39.9998Z" fill="#FFF5EE"/>
<path d="M13.1369 30.5128C12.921 30.1442 12.4768 29.9727 12.0696 30.1017C10.3339 30.652 8.70498 31.4951 7.09787 32.4013C6.33248 32.8329 5.96233 33.0952 5.34576 33.1714C6.89061 35.0083 8.77451 36.5503 10.9008 37.7018C12.6583 35.699 16.0333 35.1895 16.7694 34.7949L16.7695 34.7949C15.2761 33.6797 14.0137 32.0103 13.1369 30.5128Z" fill="#FCE6D6"/>
<path d="M17.7235 20.0166C16.1107 20.2588 15.2134 21.4211 14.7711 22.2452C14.8776 22.2958 14.9878 22.3402 15.1017 22.3776L15.1211 22.3832C15.7485 22.5635 16.2787 22.9579 16.6496 23.4832L17.0779 23.1987C17.3239 23.0353 17.6139 22.9464 17.9091 22.9559C18.121 22.9627 18.3269 22.9548 18.5243 22.9376C16.7212 21.8535 17.7231 20.0172 17.7235 20.0166Z" fill="#35355E"/>
<path d="M19.7804 29.5748C18.1843 27.5813 20.3491 25.8082 20.3491 25.8082L20.3479 25.8055C20.281 25.8072 20.2136 25.8082 20.1456 25.8082C18.7029 25.8082 17.4892 25.4593 17.0615 24.1469C16.7587 23.2177 16.0446 22.4891 15.121 22.2237L15.1016 22.2181C12.6734 21.421 11.9361 17.4414 11.9361 17.4414C10.0696 34.083 20.1456 34.1749 20.1456 34.1749C20.1456 34.1749 21.9446 32.278 19.7804 29.5748Z" fill="#35355E"/>
</g>
<defs>
<clipPath id="clip0_20_758">
<rect width="40" height="40" fill="white"/>
</clipPath>
</defs>
</svg>
