<svg width="40" height="40" viewBox="0 0 40 40" fill="none" xmlns="http://www.w3.org/2000/svg">
<g clip-path="url(#clip0_23_843)">
<path d="M25.2259 36.7911C27.5051 34.5119 28.0857 32.7969 26.6562 31.3674C25.2267 29.9379 24.59 28.0622 24.8403 27.0036C25.2582 25.2363 26.7575 23.6432 25.9951 21.8659L18.4042 17.5615L20 37.2345" fill="#DD636E"/>
<path d="M38.7146 20C38.7146 21.3046 40.2171 22.7387 39.9733 23.9726C39.8333 24.6776 39.1733 25.2225 38.531 25.7673L20 20L25.7674 38.531C25.2225 39.1733 24.6777 39.8332 23.9726 39.9733C22.7389 40.2172 21.3046 38.7145 20 38.7145C18.6954 38.7145 17.2612 40.2172 16.0274 39.9733C14.7574 39.7214 14.0057 37.7801 12.8371 37.2948C11.6476 36.8015 9.74424 37.6385 8.68667 36.9311C7.6219 36.2172 7.67018 34.1367 6.76721 33.2337C5.86338 32.3299 3.78292 32.3782 3.06987 31.3134C2.36159 30.2559 3.19862 28.3525 2.70526 27.1637C2.21995 25.9944 0.278697 25.2426 0.0268224 23.9726C-0.217006 22.7388 1.28557 21.3047 1.28557 20.0001C1.28557 18.6954 -0.217006 17.2612 0.0268224 16.0275C0.278697 14.7575 2.21995 14.0058 2.70526 12.8372C3.19862 11.6476 2.36159 9.7442 3.06901 8.6867C3.78292 7.62193 5.86338 7.67021 6.76635 6.76717C7.67018 5.86334 7.6219 3.78287 8.68667 3.06982C9.74424 2.36154 11.6476 3.19857 12.8364 2.70521C14.0057 2.2199 14.7574 0.278651 16.0274 0.0267764C17.2612 -0.21713 18.6954 1.28553 20 1.28553C21.3046 1.28553 22.7389 -0.217052 23.9726 0.0267764C25.2426 0.278651 25.9943 2.2199 27.1629 2.70521C28.3524 3.19857 30.2558 2.36154 31.3134 3.06896C32.3782 3.78287 32.3299 5.86334 33.2328 6.76631C34.1367 7.67014 36.2171 7.62185 36.9302 8.68662C37.6385 9.74412 36.8014 11.6476 37.2948 12.8363C37.7801 14.0057 39.7214 14.7574 39.9732 16.0274C40.2171 17.2612 38.7146 18.6954 38.7146 20Z" fill="#E49542"/>
<path d="M7.27412 8.13285C6.53209 9.24191 7.41014 11.2387 6.89264 12.4861C6.38318 13.7127 4.34701 14.5006 4.08303 15.8325C3.82709 17.1267 5.40295 18.6318 5.40295 19.9999C5.40295 21.368 3.82709 22.8731 4.08303 24.1672C4.34701 25.4993 6.38318 26.2871 6.89264 27.5145C7.41014 28.7611 6.53209 30.7579 7.2749 31.867C8.02256 32.9841 10.2052 32.9334 11.1533 33.8814C11.9308 34.6589 12.0362 36.2686 12.6664 37.2343C11.472 36.8762 9.69498 37.6054 8.68654 36.9309C7.62178 36.217 7.67006 34.1365 6.76709 33.2336C5.86326 32.3297 3.78279 32.378 3.06975 31.3132C2.36147 30.2557 3.1985 28.3523 2.70514 27.1636C2.21983 25.9942 0.278575 25.2425 0.0267004 23.9725C-0.217128 22.7386 1.28545 21.3045 1.28545 19.9999C1.28545 18.6953 -0.217128 17.2611 0.0267004 16.0273C0.278575 14.7573 2.21983 14.0056 2.70514 12.837C3.1985 11.6475 2.36147 9.74402 3.06889 8.68652C3.78279 7.62176 5.86326 7.67004 6.76623 6.76699C7.67006 5.86316 7.62178 3.7827 8.68654 3.06965C9.69498 2.39441 11.4737 3.12434 12.6672 2.76465C12.0362 3.72957 11.9315 5.34004 11.1525 6.1191C10.2053 7.06644 8.02264 7.01582 7.27412 8.13285Z" fill="#E28424"/>
<path d="M34.6421 24.557L20 20.0002L24.5568 34.6423C23.1178 35.0889 21.5871 35.3304 20 35.3304C11.5333 35.3304 4.66974 28.4669 4.66974 20.0002C4.66974 11.5334 11.5333 4.66992 20 4.66992C28.4667 4.66992 35.3302 11.5334 35.3302 20.0002C35.3302 21.5873 35.0887 23.118 34.6421 24.557Z" fill="#FFD064"/>
<path d="M7.73294 20.0002C7.73294 27.9494 13.7836 34.4853 21.53 35.2548C21.0269 35.3047 20.5167 35.3304 20 35.3304C11.5333 35.3304 4.66974 28.4669 4.66974 20.0002C4.66974 11.5334 11.5333 4.66992 20 4.66992C20.5167 4.66992 21.0277 4.69563 21.5315 4.74555C13.7843 5.51414 7.73294 12.0501 7.73294 20.0002Z" fill="#E7A561"/>
<path d="M23.3693 12.4282C23.7258 11.0866 23.4526 9.84949 22.759 9.66515C22.0654 9.48081 21.2141 10.419 20.8575 11.7607C20.5009 13.1023 20.7741 14.3394 21.4677 14.5237C22.1614 14.7081 23.0127 13.7699 23.3693 12.4282Z" fill="#DD636E"/>
<path d="M19.1807 28.2407C19.5373 26.8991 19.2641 25.662 18.5705 25.4777C17.8769 25.2933 17.0255 26.2315 16.6689 27.5732C16.3124 28.9148 16.5856 30.1519 17.2792 30.3362C17.9728 30.5206 18.8242 29.5824 19.1807 28.2407Z" fill="#DD636E"/>
<path d="M15.9839 15.9959C16.4896 15.4873 16.1021 14.2821 15.1184 13.304C14.1347 12.3258 12.9273 11.9451 12.4217 12.4537C11.916 12.9622 12.3035 14.1675 13.2872 15.1456C14.2709 16.1238 15.4783 16.5044 15.9839 15.9959Z" fill="#DD636E"/>
<path d="M12.4413 23.3826C13.7802 23.0205 14.7138 22.1658 14.5266 21.4737C14.3394 20.7815 13.1023 20.5139 11.7634 20.8761C10.4245 21.2382 9.49087 22.0929 9.67808 22.785C9.86529 23.4772 11.1024 23.7448 12.4413 23.3826Z" fill="#DD636E"/>
<path d="M28.2192 19.117C29.558 18.7549 30.4916 17.9002 30.3044 17.208C30.1172 16.5159 28.8801 16.2483 27.5412 16.6104C26.2023 16.9726 25.2687 17.8272 25.4559 18.5194C25.6431 19.2116 26.8803 19.4791 28.2192 19.117Z" fill="#DD636E"/>
</g>
<defs>
<clipPath id="clip0_23_843">
<rect width="40" height="40" fill="white"/>
</clipPath>
</defs>
</svg>
