<svg width="40" height="40" viewBox="0 0 40 40" fill="none" xmlns="http://www.w3.org/2000/svg">
<path d="M20.864 12.723L22.3104 14.156C22.4424 14.2868 22.6096 14.3761 22.7916 14.4132C22.9736 14.4503 23.1625 14.4335 23.3351 14.3648C23.5077 14.2961 23.6565 14.1786 23.7633 14.0266C23.87 13.8746 23.9301 13.6947 23.9362 13.5091L24.0473 11.0273L26.3999 11.3041L26.3572 11.8169C26.2867 15.1437 26.9881 18.4416 28.4064 21.4517L28.4671 21.5805L25.625 23.125L24.8247 21.5245C23.7002 19.2756 22.1906 17.241 20.3642 15.5129L18.927 14.0442L20.864 12.723Z" fill="#4E965A"/>
<path d="M5.86742 5.48422C6.62428 4.83875 7.60656 4.52038 8.59816 4.59914C9.58975 4.67791 10.5095 5.14736 11.1549 5.90422L13.5887 8.75797C14.2341 9.51483 14.5525 10.4971 14.4737 11.4887C14.395 12.4803 13.9255 13.4 13.1687 14.0455C12.4118 14.6909 11.4295 15.0093 10.4379 14.9305C9.44634 14.8518 8.52664 14.3823 7.88117 13.6255L5.44742 10.7717C4.80195 10.0149 4.48358 9.03258 4.56234 8.04098C4.64111 7.04939 5.11056 6.12969 5.86742 5.48422Z" fill="#B5CF7F"/>
<path d="M16.2441 16.7014L12.187 11.9382L12.3068 10.4281C12.3184 10.2637 12.2645 10.1014 12.157 9.97656C12.0495 9.85168 11.8971 9.77431 11.7328 9.76128C11.5685 9.74824 11.4058 9.8006 11.2799 9.90696C11.1541 10.0133 11.0753 10.1651 11.0608 10.3292L11.04 10.5915L10.1593 9.55753L10.2788 8.0505C10.2905 7.88606 10.2367 7.72368 10.1292 7.5987C10.0217 7.47373 9.86914 7.3963 9.70481 7.38326C9.54048 7.37022 9.37764 7.42263 9.25177 7.52908C9.1259 7.63553 9.04719 7.78741 9.03277 7.95162L9.01221 8.2108L8.36932 7.45601C8.26155 7.33082 8.10859 7.25338 7.94389 7.24063C7.77918 7.22789 7.61613 7.28086 7.49038 7.38798C7.36462 7.4951 7.28639 7.64765 7.27278 7.81229C7.25917 7.97692 7.3113 8.14025 7.41776 8.26656L8.06027 9.0209L7.8032 9.00051C7.72096 8.99324 7.63811 9.00232 7.55941 9.02725C7.48071 9.05217 7.40772 9.09244 7.34467 9.14573C7.28162 9.19902 7.22975 9.26427 7.19206 9.33771C7.15437 9.41116 7.1316 9.49134 7.12507 9.57364C7.11854 9.65593 7.12837 9.7387 7.15401 9.81718C7.17965 9.89565 7.22058 9.96826 7.27443 10.0308C7.32829 10.0934 7.39401 10.1447 7.46779 10.1817C7.54157 10.2187 7.62196 10.2408 7.70431 10.2465L9.20566 10.3656L10.0851 11.3981L9.8312 11.378C9.66683 11.3664 9.50456 11.4203 9.37968 11.5278C9.25481 11.6353 9.17744 11.7878 9.1644 11.952C9.15137 12.1163 9.20373 12.279 9.31009 12.4049C9.41644 12.5307 9.5682 12.6095 9.73233 12.624L11.2305 12.7429L15.2926 17.5119C15.4004 17.6371 15.5533 17.7145 15.718 17.7273C15.8827 17.74 16.0458 17.687 16.1715 17.5799C16.2973 17.4728 16.3755 17.3203 16.3891 17.1556C16.4027 16.991 16.3506 16.8277 16.2441 16.7014Z" fill="#9CB26D"/>
<path d="M26.1199 5.02044C26.0921 4.64434 25.9609 4.28324 25.7407 3.97704C25.5206 3.67083 25.2201 3.43144 24.8725 3.28531C24.5248 3.13918 24.1435 3.09199 23.7707 3.14897C23.3979 3.20595 23.0481 3.36487 22.76 3.60818C22.1747 3.34123 21.5415 3.19545 20.8985 3.17962C20.2554 3.16379 19.6158 3.27824 19.0181 3.51608C18.4204 3.75392 17.877 4.11023 17.4206 4.56357C16.9643 5.0169 16.6043 5.55789 16.3625 6.15397C15.9861 6.17539 15.6229 6.30039 15.3131 6.51516C15.0032 6.72994 14.7587 7.02615 14.6065 7.37111C14.4544 7.71606 14.4005 8.09635 14.4508 8.47C14.5011 8.84365 14.6536 9.19614 14.8916 9.48857C14.6317 9.88304 14.4566 10.3272 14.3775 10.7929C14.2983 11.2587 14.3168 11.7357 14.4318 12.1939C14.5469 12.6521 14.7558 13.0814 15.0456 13.4545C15.3353 13.8276 15.6994 14.1365 16.1148 14.3614C16.5301 14.5864 16.9878 14.7225 17.4586 14.7613C17.9294 14.8 18.4031 14.7404 18.8497 14.5864C19.2962 14.4323 19.7059 14.1871 20.0527 13.8663C20.3994 13.5455 20.6758 13.1562 20.8641 12.7229C22.0274 12.7027 23.1434 12.2586 24.0026 11.474C24.4371 11.6595 24.9054 11.7526 25.3778 11.7474C25.8502 11.7423 26.3163 11.639 26.7467 11.4441C27.177 11.2492 27.5622 10.967 27.8777 10.6154C28.1932 10.2638 28.4322 9.8504 28.5794 9.40151C28.7267 8.95263 28.7791 8.47804 28.7332 8.00785C28.6873 7.53766 28.5442 7.08214 28.3129 6.6702C28.0817 6.25826 27.7673 5.89888 27.3898 5.61488C27.0122 5.33088 26.5798 5.12844 26.1199 5.02044Z" fill="#57A865"/>
<path d="M20.5217 13.3479C20.504 13.3479 20.4863 13.3471 20.4686 13.3456C19.9782 13.3055 19.5088 13.1289 19.1137 12.8356C18.7186 12.5423 18.4136 12.1442 18.2332 11.6864C18.2029 11.6102 18.1879 11.5287 18.189 11.4466C18.1902 11.3645 18.2075 11.2835 18.24 11.2081C18.2724 11.1327 18.3195 11.0645 18.3783 11.0073C18.4372 10.9501 18.5067 10.905 18.583 10.8747C18.737 10.8134 18.909 10.8158 19.0613 10.8814C19.1367 10.9139 19.2049 10.9609 19.2621 11.0197C19.3193 11.0786 19.3644 11.1481 19.3947 11.2244C19.4878 11.4606 19.6438 11.6668 19.8457 11.8206C20.0477 11.9744 20.288 12.0699 20.5404 12.0968L20.8532 12.0855C21.9552 12.046 23.0021 11.5939 23.7867 10.819L23.7966 10.8092C23.9657 10.6161 24.0779 10.3799 24.121 10.1268C24.164 9.87376 24.1361 9.61373 24.0403 9.37556C23.9791 9.22154 23.9815 9.04948 24.0471 8.89725C24.1127 8.74501 24.236 8.62506 24.3901 8.56379C24.5441 8.50252 24.7161 8.50495 24.8684 8.57054C25.0206 8.63612 25.1406 8.7595 25.2018 8.91352C25.3853 9.37006 25.4371 9.86887 25.3515 10.3534C25.2659 10.8379 25.0463 11.2887 24.7175 11.6548C24.7088 11.6646 24.6998 11.6741 24.6904 11.6834L24.6651 11.7083C23.6576 12.7034 22.3133 13.2838 20.8982 13.3348L20.5442 13.3475C20.5366 13.3477 20.5291 13.3479 20.5217 13.3479Z" fill="#4E965A"/>
<path d="M35.6435 11.6608L37.8582 10.1115C37.928 10.0627 37.9871 10.0001 38.0318 9.92767C38.0766 9.8552 38.106 9.77435 38.1184 9.69008C38.1307 9.60582 38.1257 9.51992 38.1037 9.43765C38.0816 9.35539 38.043 9.27849 37.9902 9.21169L37.1753 8.18141L35.084 6.81159L33.814 6.47627C33.7316 6.45453 33.6457 6.44985 33.5615 6.46252C33.4772 6.47518 33.3965 6.50492 33.3242 6.54992C33.2519 6.59492 33.1895 6.65422 33.141 6.72418C33.0924 6.79415 33.0587 6.8733 33.0418 6.95678L32.5065 9.60612L35.6435 11.6608Z" fill="#4E965A"/>
<path d="M33.5521 10.2909L35.6132 6.08371C35.6327 6.04392 35.6604 6.00873 35.6945 5.98047C35.7287 5.95221 35.7684 5.93154 35.8111 5.91982C35.8539 5.9081 35.8986 5.9056 35.9424 5.91249C35.9862 5.91938 36.028 5.9355 36.065 5.95978L37.5641 6.94166C37.6011 6.96594 37.6326 6.99783 37.6564 7.0352C37.6802 7.07257 37.6958 7.11458 37.7021 7.15844C37.7085 7.20229 37.7054 7.24699 37.6931 7.28957C37.6809 7.33215 37.6597 7.37164 37.631 7.40541L34.5978 10.9758L33.5521 10.2909Z" fill="#57A865"/>
<path d="M22.4318 28.4096C22.144 28.2211 21.9357 27.9332 21.8465 27.6009C21.7573 27.2686 21.7936 26.9151 21.9484 26.6079L29.6258 11.3656C29.8396 10.9412 30.1413 10.5672 30.5108 10.2685C30.8803 9.96977 31.3092 9.75315 31.7689 9.63306C32.2287 9.51297 32.7087 9.49216 33.1771 9.572C33.6455 9.65185 34.0916 9.83052 34.4856 10.0961C34.8734 10.3576 35.2022 10.6976 35.4506 11.094C35.699 11.4904 35.8616 11.9345 35.9278 12.3976C35.994 12.8607 35.9623 13.3325 35.8349 13.7826C35.7075 14.2327 35.4871 14.6511 35.188 15.0108L24.2762 28.1335C24.0563 28.3979 23.7468 28.5722 23.4067 28.6231C23.0665 28.6741 22.7195 28.5981 22.4318 28.4096Z" fill="#F08B24"/>
<path d="M29.2867 17.9432C29.2305 18.0328 29.1523 18.1066 29.0597 18.1578C28.967 18.2089 28.8629 18.2356 28.757 18.2354C28.6395 18.2356 28.5243 18.2023 28.425 18.1393L26.7461 17.0838L27.3109 15.9619L29.0906 17.0814C29.2309 17.1697 29.3304 17.3101 29.3671 17.4717C29.4039 17.6333 29.375 17.8029 29.2867 17.9432Z" fill="#F08B24"/>
<path d="M30.1375 15.503C30.0946 15.573 30.0384 15.6339 29.972 15.6821C29.9056 15.7304 29.8304 15.7651 29.7506 15.7842C29.6708 15.8034 29.588 15.8066 29.5069 15.7937C29.4258 15.7809 29.3481 15.7522 29.2781 15.7093L27.8719 14.8483L28.4359 13.728L29.9313 14.6437C30.0013 14.6865 30.0621 14.7427 30.1104 14.8091C30.1587 14.8755 30.1934 14.9508 30.2125 15.0306C30.2317 15.1104 30.2349 15.1932 30.222 15.2743C30.2092 15.3553 30.1804 15.4331 30.1375 15.503Z" fill="#F08B24"/>
<path d="M30.9922 13.057C30.9371 13.1518 30.8581 13.2304 30.7631 13.285C30.6681 13.3396 30.5603 13.3682 30.4508 13.368C30.3406 13.368 30.2324 13.3386 30.1375 13.2828L28.9945 12.618L29.5586 11.5L30.7664 12.2023C30.9095 12.2859 31.0136 12.4228 31.0559 12.583C31.0982 12.7432 31.0753 12.9137 30.9922 13.057Z" fill="#F08B24"/>
<path d="M30.9922 13.057C30.9371 13.1518 30.8581 13.2304 30.7631 13.285C30.6681 13.3396 30.5603 13.3682 30.4508 13.368C30.3406 13.368 30.2324 13.3386 30.1375 13.2828L28.9945 12.618L29.5586 11.5L30.7664 12.2023C30.9095 12.2859 31.0136 12.4228 31.0559 12.583C31.0982 12.7432 31.0753 12.9137 30.9922 13.057Z" fill="#DA7E21"/>
<path d="M30.1375 15.503C30.0946 15.573 30.0384 15.6339 29.972 15.6821C29.9056 15.7304 29.8304 15.7651 29.7506 15.7842C29.6708 15.8034 29.588 15.8066 29.5069 15.7937C29.4258 15.7809 29.3481 15.7522 29.2781 15.7093L27.8719 14.8483L28.4359 13.728L29.9313 14.6437C30.0013 14.6865 30.0621 14.7427 30.1104 14.8091C30.1587 14.8755 30.1934 14.9508 30.2125 15.0306C30.2317 15.1104 30.2349 15.1932 30.222 15.2743C30.2092 15.3553 30.1804 15.4331 30.1375 15.503Z" fill="#DA7E21"/>
<path d="M29.2867 17.9432C29.2305 18.0328 29.1523 18.1066 29.0597 18.1578C28.967 18.2089 28.8629 18.2356 28.757 18.2354C28.6395 18.2356 28.5243 18.2023 28.425 18.1393L26.7461 17.0838L27.3109 15.9619L29.0906 17.0814C29.2309 17.1697 29.3304 17.3101 29.3671 17.4717C29.4039 17.6333 29.375 17.8029 29.2867 17.9432Z" fill="#DA7E21"/>
<path d="M4.63171 17.0383L5.68054 15.4119C5.80118 15.2248 5.86684 15.0076 5.87004 14.785C5.87324 14.5625 5.81385 14.3435 5.69864 14.153C5.62568 14.0324 5.58243 13.8962 5.57245 13.7556C5.56247 13.615 5.58604 13.474 5.64122 13.3443C5.6964 13.2146 5.78161 13.0999 5.88983 13.0096C5.99805 12.9193 6.12618 12.856 6.26366 12.8249L7.60835 12.521C7.73619 12.4921 7.86903 12.4937 7.99613 12.5257C8.12324 12.5577 8.24103 12.6191 8.33997 12.7051C8.43892 12.791 8.51624 12.8991 8.56569 13.0204C8.61514 13.1418 8.63532 13.2731 8.6246 13.4038C8.60473 13.6459 8.65954 13.8882 8.78166 14.0982C8.90377 14.3082 9.08731 14.4757 9.30755 14.5782L11.3376 15.5228L10 16.2501L6.875 17.5001L4.63171 17.0383Z" fill="#FFC864"/>
<path d="M32.6658 36.8748H7.33415C6.67815 36.8748 6.04279 36.6455 5.53799 36.2265C5.03319 35.8076 4.69072 35.2253 4.56983 34.5806L3.13287 26.2363H37.1262L35.4301 34.5806C35.3092 35.2253 34.9668 35.8076 34.462 36.2265C33.9572 36.6455 33.3218 36.8748 32.6658 36.8748Z" fill="#D78E0C"/>
<path d="M4.36145 16.7393C4.82839 16.5682 5.34417 16.5897 5.79531 16.7989C6.24646 17.0081 6.59601 17.388 6.76707 17.8549L9.13207 24.3105L7.50559 24.9064C7.00307 25.0905 6.44799 25.0674 5.96248 24.8423C5.47697 24.6171 5.10079 24.2083 4.91669 23.7058L3.24583 19.1449C3.07477 18.678 3.0962 18.1622 3.30542 17.711C3.51464 17.2599 3.8945 16.9103 4.36145 16.7393Z" fill="#4E965A"/>
<path d="M11.5162 23.9988L9.79094 24.1616L9.14469 17.3141C9.09795 16.8188 9.24987 16.3252 9.56704 15.9419C9.88421 15.5587 10.3406 15.3171 10.8359 15.2703C11.3312 15.2236 11.8248 15.3755 12.2081 15.6927C12.5914 16.0099 12.8329 16.4663 12.8797 16.9616L13.3363 21.7993C13.3866 22.3323 13.2231 22.8635 12.8817 23.276C12.5404 23.6885 12.0492 23.9485 11.5162 23.9988Z" fill="#4E965A"/>
<path d="M10.1435 24.5608C9.79636 24.7708 9.3905 24.8626 8.98681 24.8223C8.59523 24.7832 8.22587 24.6219 7.93105 24.3612C7.63624 24.1005 7.43091 23.7537 7.34416 23.3699L6.12651 17.9822C6.01689 17.4971 6.10445 16.9884 6.36991 16.5679C6.63538 16.1474 7.05701 15.8496 7.54205 15.74C8.02709 15.6304 8.53582 15.7179 8.95631 15.9834C9.3768 16.2488 9.67461 16.6705 9.78424 17.1555L11.0019 22.5432C11.0886 22.9271 11.0524 23.3285 10.8983 23.6906C10.7443 24.0527 10.4802 24.3572 10.1435 24.5608Z" fill="#57A865"/>
<path d="M15.5651 16.3382L17.4568 15.9298C17.6743 15.8828 17.8744 15.7756 18.034 15.6205C18.1937 15.4654 18.3065 15.2685 18.3597 15.0524C18.3934 14.9155 18.4592 14.7886 18.5515 14.6822C18.6439 14.5757 18.7602 14.4927 18.8909 14.44C19.0217 14.3873 19.163 14.3664 19.3034 14.3791C19.4438 14.3918 19.5792 14.4376 19.6983 14.5128L20.8641 15.2488C20.9749 15.3188 21.0677 15.4138 21.135 15.5263C21.2022 15.6388 21.2421 15.7655 21.2513 15.8963C21.2604 16.027 21.2387 16.1581 21.1879 16.2789C21.137 16.3997 21.0584 16.5068 20.9585 16.5916C20.7732 16.7487 20.6406 16.9589 20.5785 17.1937C20.5163 17.4285 20.5277 17.6768 20.6109 17.905L21.3785 20.0083L18.75 19.9999L15.625 18.7499L15.5651 16.3382Z" fill="#FFC864"/>
<path d="M15.5793 15.9334C16.0303 16.1428 16.3797 16.5227 16.5506 16.9897C16.7215 17.4567 16.6999 17.9724 16.4905 18.4234L13.5962 24.659L12.0251 23.9298C11.5397 23.7045 11.1637 23.2956 10.9798 22.7931C10.7959 22.2905 10.8191 21.7355 11.0444 21.2501L13.0893 16.8447C13.2986 16.3936 13.6786 16.0442 14.1456 15.8733C14.6125 15.7025 15.1283 15.7241 15.5793 15.9334Z" fill="#C92535"/>
<path d="M15.5245 26.1369L14.1907 25.0318L18.577 19.7381C18.8943 19.3552 19.3506 19.114 19.8457 19.0676C20.3408 19.0211 20.8341 19.1733 21.217 19.4906C21.5999 19.8078 21.8411 20.2642 21.8875 20.7593C21.9339 21.2544 21.7818 21.7477 21.4645 22.1306L18.3656 25.8706C18.0242 26.2826 17.5331 26.5422 17.0002 26.5922C16.4674 26.6421 15.9366 26.4784 15.5245 26.1369Z" fill="#C92535"/>
<path d="M14.1433 25.5548C13.7494 25.4578 13.3976 25.2357 13.1406 24.9218C12.8914 24.6172 12.7442 24.242 12.7201 23.8492C12.6959 23.4564 12.796 23.066 13.0061 22.7332L15.9548 18.0625C16.2202 17.642 16.6419 17.3442 17.1269 17.2346C17.6119 17.125 18.1207 17.2125 18.5412 17.478C18.9617 17.7435 19.2595 18.1651 19.3691 18.6501C19.4787 19.1352 19.3912 19.6439 19.1257 20.0644L16.177 24.7351C15.9669 25.0679 15.6575 25.3261 15.2925 25.4732C14.9275 25.6203 14.5254 25.6489 14.1433 25.5548Z" fill="#E42A3C"/>
<path d="M36.25 23.125H3.75C2.71447 23.125 1.875 23.9645 1.875 25C1.875 26.0355 2.71447 26.875 3.75 26.875H36.25C37.2855 26.875 38.125 26.0355 38.125 25C38.125 23.9645 37.2855 23.125 36.25 23.125Z" fill="#ECAB2C"/>
<path d="M36.7257 16.4103C36.6936 16.3348 36.647 16.2663 36.5884 16.2088C36.5298 16.1513 36.4605 16.1059 36.3844 16.0751C36.3083 16.0444 36.2269 16.029 36.1448 16.0297C36.0627 16.0305 35.9816 16.0474 35.9061 16.0795L34.8542 16.5263L35.2252 15.6072C35.2873 15.4535 35.2857 15.2814 35.2209 15.1289C35.1561 14.9763 35.0333 14.8558 34.8796 14.7938C34.8035 14.763 34.7221 14.7476 34.64 14.7484C34.558 14.7491 34.4769 14.766 34.4013 14.7981C34.2488 14.8629 34.1282 14.9857 34.0662 15.1394L33.6952 16.0585L33.2483 15.0066C33.1835 14.854 33.0607 14.7335 32.907 14.6714C32.7533 14.6094 32.5812 14.6109 32.4287 14.6757C32.2761 14.7405 32.1555 14.8633 32.0935 15.017C32.0314 15.1707 32.033 15.3428 32.0978 15.4954L33.1346 17.9359C33.1667 18.0115 33.2133 18.08 33.2718 18.1376C33.3304 18.1951 33.3997 18.2406 33.4758 18.2713C33.552 18.302 33.6334 18.3174 33.7155 18.3167C33.7976 18.3159 33.8787 18.299 33.9542 18.2668L36.3948 17.23C36.4704 17.1979 36.5388 17.1512 36.5964 17.0927C36.6539 17.0341 36.6993 16.9648 36.73 16.8887C36.7607 16.8126 36.7762 16.7312 36.7754 16.6491C36.7747 16.567 36.7578 16.4859 36.7257 16.4103Z" fill="#57A865"/>
<path d="M21.25 30H18.75C18.5842 30 18.4253 29.9342 18.3081 29.8169C18.1908 29.6997 18.125 29.5408 18.125 29.375C18.125 29.2092 18.1908 29.0503 18.3081 28.9331C18.4253 28.8158 18.5842 28.75 18.75 28.75H21.25C21.4158 28.75 21.5747 28.8158 21.6919 28.9331C21.8092 29.0503 21.875 29.2092 21.875 29.375C21.875 29.5408 21.8092 29.6997 21.6919 29.8169C21.5747 29.9342 21.4158 30 21.25 30Z" fill="#B97A0A"/>
<path d="M21.25 32.5H18.75C18.5842 32.5 18.4253 32.4342 18.3081 32.3169C18.1908 32.1997 18.125 32.0408 18.125 31.875C18.125 31.7092 18.1908 31.5503 18.3081 31.4331C18.4253 31.3158 18.5842 31.25 18.75 31.25H21.25C21.4158 31.25 21.5747 31.3158 21.6919 31.4331C21.8092 31.5503 21.875 31.7092 21.875 31.875C21.875 32.0408 21.8092 32.1997 21.6919 32.3169C21.5747 32.4342 21.4158 32.5 21.25 32.5Z" fill="#B97A0A"/>
<path d="M21.25 35H18.75C18.5842 35 18.4253 34.9342 18.3081 34.8169C18.1908 34.6997 18.125 34.5408 18.125 34.375C18.125 34.2092 18.1908 34.0503 18.3081 33.9331C18.4253 33.8158 18.5842 33.75 18.75 33.75H21.25C21.4158 33.75 21.5747 33.8158 21.6919 33.9331C21.8092 34.0503 21.875 34.2092 21.875 34.375C21.875 34.5408 21.8092 34.6997 21.6919 34.8169C21.5747 34.9342 21.4158 35 21.25 35Z" fill="#B97A0A"/>
<path d="M26.25 30H23.75C23.5842 30 23.4253 29.9342 23.3081 29.8169C23.1908 29.6997 23.125 29.5408 23.125 29.375C23.125 29.2092 23.1908 29.0503 23.3081 28.9331C23.4253 28.8158 23.5842 28.75 23.75 28.75H26.25C26.4158 28.75 26.5747 28.8158 26.6919 28.9331C26.8092 29.0503 26.875 29.2092 26.875 29.375C26.875 29.5408 26.8092 29.6997 26.6919 29.8169C26.5747 29.9342 26.4158 30 26.25 30Z" fill="#B97A0A"/>
<path d="M26.25 32.5H23.75C23.5842 32.5 23.4253 32.4342 23.3081 32.3169C23.1908 32.1997 23.125 32.0408 23.125 31.875C23.125 31.7092 23.1908 31.5503 23.3081 31.4331C23.4253 31.3158 23.5842 31.25 23.75 31.25H26.25C26.4158 31.25 26.5747 31.3158 26.6919 31.4331C26.8092 31.5503 26.875 31.7092 26.875 31.875C26.875 32.0408 26.8092 32.1997 26.6919 32.3169C26.5747 32.4342 26.4158 32.5 26.25 32.5Z" fill="#B97A0A"/>
<path d="M26.25 35H23.75C23.5842 35 23.4253 34.9342 23.3081 34.8169C23.1908 34.6997 23.125 34.5408 23.125 34.375C23.125 34.2092 23.1908 34.0503 23.3081 33.9331C23.4253 33.8158 23.5842 33.75 23.75 33.75H26.25C26.4158 33.75 26.5747 33.8158 26.6919 33.9331C26.8092 34.0503 26.875 34.2092 26.875 34.375C26.875 34.5408 26.8092 34.6997 26.6919 34.8169C26.5747 34.9342 26.4158 35 26.25 35Z" fill="#B97A0A"/>
<path d="M31.25 30H28.75C28.5842 30 28.4253 29.9342 28.3081 29.8169C28.1908 29.6997 28.125 29.5408 28.125 29.375C28.125 29.2092 28.1908 29.0503 28.3081 28.9331C28.4253 28.8158 28.5842 28.75 28.75 28.75H31.25C31.4158 28.75 31.5747 28.8158 31.6919 28.9331C31.8092 29.0503 31.875 29.2092 31.875 29.375C31.875 29.5408 31.8092 29.6997 31.6919 29.8169C31.5747 29.9342 31.4158 30 31.25 30Z" fill="#B97A0A"/>
<path d="M31.25 32.5H28.75C28.5842 32.5 28.4253 32.4342 28.3081 32.3169C28.1908 32.1997 28.125 32.0408 28.125 31.875C28.125 31.7092 28.1908 31.5503 28.3081 31.4331C28.4253 31.3158 28.5842 31.25 28.75 31.25H31.25C31.4158 31.25 31.5747 31.3158 31.6919 31.4331C31.8092 31.5503 31.875 31.7092 31.875 31.875C31.875 32.0408 31.8092 32.1997 31.6919 32.3169C31.5747 32.4342 31.4158 32.5 31.25 32.5Z" fill="#B97A0A"/>
<path d="M31.25 35H28.75C28.5842 35 28.4253 34.9342 28.3081 34.8169C28.1908 34.6997 28.125 34.5408 28.125 34.375C28.125 34.2092 28.1908 34.0503 28.3081 33.9331C28.4253 33.8158 28.5842 33.75 28.75 33.75H31.25C31.4158 33.75 31.5747 33.8158 31.6919 33.9331C31.8092 34.0503 31.875 34.2092 31.875 34.375C31.875 34.5408 31.8092 34.6997 31.6919 34.8169C31.5747 34.9342 31.4158 35 31.25 35Z" fill="#B97A0A"/>
<path d="M11.25 30H8.75C8.58424 30 8.42527 29.9342 8.30806 29.8169C8.19085 29.6997 8.125 29.5408 8.125 29.375C8.125 29.2092 8.19085 29.0503 8.30806 28.9331C8.42527 28.8158 8.58424 28.75 8.75 28.75H11.25C11.4158 28.75 11.5747 28.8158 11.6919 28.9331C11.8092 29.0503 11.875 29.2092 11.875 29.375C11.875 29.5408 11.8092 29.6997 11.6919 29.8169C11.5747 29.9342 11.4158 30 11.25 30Z" fill="#B97A0A"/>
<path d="M11.25 32.5H8.75C8.58424 32.5 8.42527 32.4342 8.30806 32.3169C8.19085 32.1997 8.125 32.0408 8.125 31.875C8.125 31.7092 8.19085 31.5503 8.30806 31.4331C8.42527 31.3158 8.58424 31.25 8.75 31.25H11.25C11.4158 31.25 11.5747 31.3158 11.6919 31.4331C11.8092 31.5503 11.875 31.7092 11.875 31.875C11.875 32.0408 11.8092 32.1997 11.6919 32.3169C11.5747 32.4342 11.4158 32.5 11.25 32.5Z" fill="#B97A0A"/>
<path d="M11.25 35H8.75C8.58424 35 8.42527 34.9342 8.30806 34.8169C8.19085 34.6997 8.125 34.5408 8.125 34.375C8.125 34.2092 8.19085 34.0503 8.30806 33.9331C8.42527 33.8158 8.58424 33.75 8.75 33.75H11.25C11.4158 33.75 11.5747 33.8158 11.6919 33.9331C11.8092 34.0503 11.875 34.2092 11.875 34.375C11.875 34.5408 11.8092 34.6997 11.6919 34.8169C11.5747 34.9342 11.4158 35 11.25 35Z" fill="#B97A0A"/>
<path d="M16.25 30H13.75C13.5842 30 13.4253 29.9342 13.3081 29.8169C13.1908 29.6997 13.125 29.5408 13.125 29.375C13.125 29.2092 13.1908 29.0503 13.3081 28.9331C13.4253 28.8158 13.5842 28.75 13.75 28.75H16.25C16.4158 28.75 16.5747 28.8158 16.6919 28.9331C16.8092 29.0503 16.875 29.2092 16.875 29.375C16.875 29.5408 16.8092 29.6997 16.6919 29.8169C16.5747 29.9342 16.4158 30 16.25 30Z" fill="#B97A0A"/>
<path d="M16.25 32.5H13.75C13.5842 32.5 13.4253 32.4342 13.3081 32.3169C13.1908 32.1997 13.125 32.0408 13.125 31.875C13.125 31.7092 13.1908 31.5503 13.3081 31.4331C13.4253 31.3158 13.5842 31.25 13.75 31.25H16.25C16.4158 31.25 16.5747 31.3158 16.6919 31.4331C16.8092 31.5503 16.875 31.7092 16.875 31.875C16.875 32.0408 16.8092 32.1997 16.6919 32.3169C16.5747 32.4342 16.4158 32.5 16.25 32.5Z" fill="#B97A0A"/>
<path d="M16.25 35H13.75C13.5842 35 13.4253 34.9342 13.3081 34.8169C13.1908 34.6997 13.125 34.5408 13.125 34.375C13.125 34.2092 13.1908 34.0503 13.3081 33.9331C13.4253 33.8158 13.5842 33.75 13.75 33.75H16.25C16.4158 33.75 16.5747 33.8158 16.6919 33.9331C16.8092 34.0503 16.875 34.2092 16.875 34.375C16.875 34.5408 16.8092 34.6997 16.6919 34.8169C16.5747 34.9342 16.4158 35 16.25 35Z" fill="#B97A0A"/>
<path d="M32.774 23.1348C34.4999 23.1348 35.899 21.7357 35.899 20.0098C35.899 18.2839 34.4999 16.8848 32.774 16.8848C31.0482 16.8848 29.649 18.2839 29.649 20.0098C29.649 21.7357 31.0482 23.1348 32.774 23.1348Z" fill="#E42A3C"/>
</svg>
